G04 #@! TF.GenerationSoftware,KiCad,Pcbnew,(5.0.1-3-g963ef8bb5)*
G04 #@! TF.CreationDate,2019-01-03T19:12:47-05:00*
G04 #@! TF.ProjectId,neoshiba,6E656F73686962612E6B696361645F70,rev?*
G04 #@! TF.SameCoordinates,Original*
G04 #@! TF.FileFunction,Paste,Top*
G04 #@! TF.FilePolarity,Positive*
%FSLAX46Y46*%
G04 Gerber Fmt 4.6, Leading zero omitted, Abs format (unit mm)*
G04 Created by KiCad (PCBNEW (5.0.1-3-g963ef8bb5)) date Thursday, January 03, 2019 at 07:12:47 PM*
%MOMM*%
%LPD*%
G01*
G04 APERTURE LIST*
%ADD10C,0.100000*%
%ADD11C,1.030000*%
%ADD12C,0.250000*%
%ADD13R,0.500000X0.600000*%
%ADD14R,0.750000X0.300000*%
%ADD15C,0.950000*%
%ADD16R,0.373000X1.509000*%
G04 APERTURE END LIST*
D10*
G04 #@! TO.C,U1*
G36*
X149089505Y-95966204D02*
X149113773Y-95969804D01*
X149137572Y-95975765D01*
X149160671Y-95984030D01*
X149182850Y-95994520D01*
X149203893Y-96007132D01*
X149223599Y-96021747D01*
X149241777Y-96038223D01*
X149258253Y-96056401D01*
X149272868Y-96076107D01*
X149285480Y-96097150D01*
X149295970Y-96119329D01*
X149304235Y-96142428D01*
X149310196Y-96166227D01*
X149313796Y-96190495D01*
X149315000Y-96214999D01*
X149315000Y-96745001D01*
X149313796Y-96769505D01*
X149310196Y-96793773D01*
X149304235Y-96817572D01*
X149295970Y-96840671D01*
X149285480Y-96862850D01*
X149272868Y-96883893D01*
X149258253Y-96903599D01*
X149241777Y-96921777D01*
X149223599Y-96938253D01*
X149203893Y-96952868D01*
X149182850Y-96965480D01*
X149160671Y-96975970D01*
X149137572Y-96984235D01*
X149113773Y-96990196D01*
X149089505Y-96993796D01*
X149065001Y-96995000D01*
X148534999Y-96995000D01*
X148510495Y-96993796D01*
X148486227Y-96990196D01*
X148462428Y-96984235D01*
X148439329Y-96975970D01*
X148417150Y-96965480D01*
X148396107Y-96952868D01*
X148376401Y-96938253D01*
X148358223Y-96921777D01*
X148341747Y-96903599D01*
X148327132Y-96883893D01*
X148314520Y-96862850D01*
X148304030Y-96840671D01*
X148295765Y-96817572D01*
X148289804Y-96793773D01*
X148286204Y-96769505D01*
X148285000Y-96745001D01*
X148285000Y-96214999D01*
X148286204Y-96190495D01*
X148289804Y-96166227D01*
X148295765Y-96142428D01*
X148304030Y-96119329D01*
X148314520Y-96097150D01*
X148327132Y-96076107D01*
X148341747Y-96056401D01*
X148358223Y-96038223D01*
X148376401Y-96021747D01*
X148396107Y-96007132D01*
X148417150Y-95994520D01*
X148439329Y-95984030D01*
X148462428Y-95975765D01*
X148486227Y-95969804D01*
X148510495Y-95966204D01*
X148534999Y-95965000D01*
X149065001Y-95965000D01*
X149089505Y-95966204D01*
X149089505Y-95966204D01*
G37*
D11*
X148800000Y-96480000D03*
D10*
G36*
X150369505Y-95966204D02*
X150393773Y-95969804D01*
X150417572Y-95975765D01*
X150440671Y-95984030D01*
X150462850Y-95994520D01*
X150483893Y-96007132D01*
X150503599Y-96021747D01*
X150521777Y-96038223D01*
X150538253Y-96056401D01*
X150552868Y-96076107D01*
X150565480Y-96097150D01*
X150575970Y-96119329D01*
X150584235Y-96142428D01*
X150590196Y-96166227D01*
X150593796Y-96190495D01*
X150595000Y-96214999D01*
X150595000Y-96745001D01*
X150593796Y-96769505D01*
X150590196Y-96793773D01*
X150584235Y-96817572D01*
X150575970Y-96840671D01*
X150565480Y-96862850D01*
X150552868Y-96883893D01*
X150538253Y-96903599D01*
X150521777Y-96921777D01*
X150503599Y-96938253D01*
X150483893Y-96952868D01*
X150462850Y-96965480D01*
X150440671Y-96975970D01*
X150417572Y-96984235D01*
X150393773Y-96990196D01*
X150369505Y-96993796D01*
X150345001Y-96995000D01*
X149814999Y-96995000D01*
X149790495Y-96993796D01*
X149766227Y-96990196D01*
X149742428Y-96984235D01*
X149719329Y-96975970D01*
X149697150Y-96965480D01*
X149676107Y-96952868D01*
X149656401Y-96938253D01*
X149638223Y-96921777D01*
X149621747Y-96903599D01*
X149607132Y-96883893D01*
X149594520Y-96862850D01*
X149584030Y-96840671D01*
X149575765Y-96817572D01*
X149569804Y-96793773D01*
X149566204Y-96769505D01*
X149565000Y-96745001D01*
X149565000Y-96214999D01*
X149566204Y-96190495D01*
X149569804Y-96166227D01*
X149575765Y-96142428D01*
X149584030Y-96119329D01*
X149594520Y-96097150D01*
X149607132Y-96076107D01*
X149621747Y-96056401D01*
X149638223Y-96038223D01*
X149656401Y-96021747D01*
X149676107Y-96007132D01*
X149697150Y-95994520D01*
X149719329Y-95984030D01*
X149742428Y-95975765D01*
X149766227Y-95969804D01*
X149790495Y-95966204D01*
X149814999Y-95965000D01*
X150345001Y-95965000D01*
X150369505Y-95966204D01*
X150369505Y-95966204D01*
G37*
D11*
X150080000Y-96480000D03*
D10*
G36*
X151649505Y-95966204D02*
X151673773Y-95969804D01*
X151697572Y-95975765D01*
X151720671Y-95984030D01*
X151742850Y-95994520D01*
X151763893Y-96007132D01*
X151783599Y-96021747D01*
X151801777Y-96038223D01*
X151818253Y-96056401D01*
X151832868Y-96076107D01*
X151845480Y-96097150D01*
X151855970Y-96119329D01*
X151864235Y-96142428D01*
X151870196Y-96166227D01*
X151873796Y-96190495D01*
X151875000Y-96214999D01*
X151875000Y-96745001D01*
X151873796Y-96769505D01*
X151870196Y-96793773D01*
X151864235Y-96817572D01*
X151855970Y-96840671D01*
X151845480Y-96862850D01*
X151832868Y-96883893D01*
X151818253Y-96903599D01*
X151801777Y-96921777D01*
X151783599Y-96938253D01*
X151763893Y-96952868D01*
X151742850Y-96965480D01*
X151720671Y-96975970D01*
X151697572Y-96984235D01*
X151673773Y-96990196D01*
X151649505Y-96993796D01*
X151625001Y-96995000D01*
X151094999Y-96995000D01*
X151070495Y-96993796D01*
X151046227Y-96990196D01*
X151022428Y-96984235D01*
X150999329Y-96975970D01*
X150977150Y-96965480D01*
X150956107Y-96952868D01*
X150936401Y-96938253D01*
X150918223Y-96921777D01*
X150901747Y-96903599D01*
X150887132Y-96883893D01*
X150874520Y-96862850D01*
X150864030Y-96840671D01*
X150855765Y-96817572D01*
X150849804Y-96793773D01*
X150846204Y-96769505D01*
X150845000Y-96745001D01*
X150845000Y-96214999D01*
X150846204Y-96190495D01*
X150849804Y-96166227D01*
X150855765Y-96142428D01*
X150864030Y-96119329D01*
X150874520Y-96097150D01*
X150887132Y-96076107D01*
X150901747Y-96056401D01*
X150918223Y-96038223D01*
X150936401Y-96021747D01*
X150956107Y-96007132D01*
X150977150Y-95994520D01*
X150999329Y-95984030D01*
X151022428Y-95975765D01*
X151046227Y-95969804D01*
X151070495Y-95966204D01*
X151094999Y-95965000D01*
X151625001Y-95965000D01*
X151649505Y-95966204D01*
X151649505Y-95966204D01*
G37*
D11*
X151360000Y-96480000D03*
D10*
G36*
X152929505Y-95966204D02*
X152953773Y-95969804D01*
X152977572Y-95975765D01*
X153000671Y-95984030D01*
X153022850Y-95994520D01*
X153043893Y-96007132D01*
X153063599Y-96021747D01*
X153081777Y-96038223D01*
X153098253Y-96056401D01*
X153112868Y-96076107D01*
X153125480Y-96097150D01*
X153135970Y-96119329D01*
X153144235Y-96142428D01*
X153150196Y-96166227D01*
X153153796Y-96190495D01*
X153155000Y-96214999D01*
X153155000Y-96745001D01*
X153153796Y-96769505D01*
X153150196Y-96793773D01*
X153144235Y-96817572D01*
X153135970Y-96840671D01*
X153125480Y-96862850D01*
X153112868Y-96883893D01*
X153098253Y-96903599D01*
X153081777Y-96921777D01*
X153063599Y-96938253D01*
X153043893Y-96952868D01*
X153022850Y-96965480D01*
X153000671Y-96975970D01*
X152977572Y-96984235D01*
X152953773Y-96990196D01*
X152929505Y-96993796D01*
X152905001Y-96995000D01*
X152374999Y-96995000D01*
X152350495Y-96993796D01*
X152326227Y-96990196D01*
X152302428Y-96984235D01*
X152279329Y-96975970D01*
X152257150Y-96965480D01*
X152236107Y-96952868D01*
X152216401Y-96938253D01*
X152198223Y-96921777D01*
X152181747Y-96903599D01*
X152167132Y-96883893D01*
X152154520Y-96862850D01*
X152144030Y-96840671D01*
X152135765Y-96817572D01*
X152129804Y-96793773D01*
X152126204Y-96769505D01*
X152125000Y-96745001D01*
X152125000Y-96214999D01*
X152126204Y-96190495D01*
X152129804Y-96166227D01*
X152135765Y-96142428D01*
X152144030Y-96119329D01*
X152154520Y-96097150D01*
X152167132Y-96076107D01*
X152181747Y-96056401D01*
X152198223Y-96038223D01*
X152216401Y-96021747D01*
X152236107Y-96007132D01*
X152257150Y-95994520D01*
X152279329Y-95984030D01*
X152302428Y-95975765D01*
X152326227Y-95969804D01*
X152350495Y-95966204D01*
X152374999Y-95965000D01*
X152905001Y-95965000D01*
X152929505Y-95966204D01*
X152929505Y-95966204D01*
G37*
D11*
X152640000Y-96480000D03*
D10*
G36*
X154209505Y-95966204D02*
X154233773Y-95969804D01*
X154257572Y-95975765D01*
X154280671Y-95984030D01*
X154302850Y-95994520D01*
X154323893Y-96007132D01*
X154343599Y-96021747D01*
X154361777Y-96038223D01*
X154378253Y-96056401D01*
X154392868Y-96076107D01*
X154405480Y-96097150D01*
X154415970Y-96119329D01*
X154424235Y-96142428D01*
X154430196Y-96166227D01*
X154433796Y-96190495D01*
X154435000Y-96214999D01*
X154435000Y-96745001D01*
X154433796Y-96769505D01*
X154430196Y-96793773D01*
X154424235Y-96817572D01*
X154415970Y-96840671D01*
X154405480Y-96862850D01*
X154392868Y-96883893D01*
X154378253Y-96903599D01*
X154361777Y-96921777D01*
X154343599Y-96938253D01*
X154323893Y-96952868D01*
X154302850Y-96965480D01*
X154280671Y-96975970D01*
X154257572Y-96984235D01*
X154233773Y-96990196D01*
X154209505Y-96993796D01*
X154185001Y-96995000D01*
X153654999Y-96995000D01*
X153630495Y-96993796D01*
X153606227Y-96990196D01*
X153582428Y-96984235D01*
X153559329Y-96975970D01*
X153537150Y-96965480D01*
X153516107Y-96952868D01*
X153496401Y-96938253D01*
X153478223Y-96921777D01*
X153461747Y-96903599D01*
X153447132Y-96883893D01*
X153434520Y-96862850D01*
X153424030Y-96840671D01*
X153415765Y-96817572D01*
X153409804Y-96793773D01*
X153406204Y-96769505D01*
X153405000Y-96745001D01*
X153405000Y-96214999D01*
X153406204Y-96190495D01*
X153409804Y-96166227D01*
X153415765Y-96142428D01*
X153424030Y-96119329D01*
X153434520Y-96097150D01*
X153447132Y-96076107D01*
X153461747Y-96056401D01*
X153478223Y-96038223D01*
X153496401Y-96021747D01*
X153516107Y-96007132D01*
X153537150Y-95994520D01*
X153559329Y-95984030D01*
X153582428Y-95975765D01*
X153606227Y-95969804D01*
X153630495Y-95966204D01*
X153654999Y-95965000D01*
X154185001Y-95965000D01*
X154209505Y-95966204D01*
X154209505Y-95966204D01*
G37*
D11*
X153920000Y-96480000D03*
D10*
G36*
X149089505Y-94686204D02*
X149113773Y-94689804D01*
X149137572Y-94695765D01*
X149160671Y-94704030D01*
X149182850Y-94714520D01*
X149203893Y-94727132D01*
X149223599Y-94741747D01*
X149241777Y-94758223D01*
X149258253Y-94776401D01*
X149272868Y-94796107D01*
X149285480Y-94817150D01*
X149295970Y-94839329D01*
X149304235Y-94862428D01*
X149310196Y-94886227D01*
X149313796Y-94910495D01*
X149315000Y-94934999D01*
X149315000Y-95465001D01*
X149313796Y-95489505D01*
X149310196Y-95513773D01*
X149304235Y-95537572D01*
X149295970Y-95560671D01*
X149285480Y-95582850D01*
X149272868Y-95603893D01*
X149258253Y-95623599D01*
X149241777Y-95641777D01*
X149223599Y-95658253D01*
X149203893Y-95672868D01*
X149182850Y-95685480D01*
X149160671Y-95695970D01*
X149137572Y-95704235D01*
X149113773Y-95710196D01*
X149089505Y-95713796D01*
X149065001Y-95715000D01*
X148534999Y-95715000D01*
X148510495Y-95713796D01*
X148486227Y-95710196D01*
X148462428Y-95704235D01*
X148439329Y-95695970D01*
X148417150Y-95685480D01*
X148396107Y-95672868D01*
X148376401Y-95658253D01*
X148358223Y-95641777D01*
X148341747Y-95623599D01*
X148327132Y-95603893D01*
X148314520Y-95582850D01*
X148304030Y-95560671D01*
X148295765Y-95537572D01*
X148289804Y-95513773D01*
X148286204Y-95489505D01*
X148285000Y-95465001D01*
X148285000Y-94934999D01*
X148286204Y-94910495D01*
X148289804Y-94886227D01*
X148295765Y-94862428D01*
X148304030Y-94839329D01*
X148314520Y-94817150D01*
X148327132Y-94796107D01*
X148341747Y-94776401D01*
X148358223Y-94758223D01*
X148376401Y-94741747D01*
X148396107Y-94727132D01*
X148417150Y-94714520D01*
X148439329Y-94704030D01*
X148462428Y-94695765D01*
X148486227Y-94689804D01*
X148510495Y-94686204D01*
X148534999Y-94685000D01*
X149065001Y-94685000D01*
X149089505Y-94686204D01*
X149089505Y-94686204D01*
G37*
D11*
X148800000Y-95200000D03*
D10*
G36*
X150369505Y-94686204D02*
X150393773Y-94689804D01*
X150417572Y-94695765D01*
X150440671Y-94704030D01*
X150462850Y-94714520D01*
X150483893Y-94727132D01*
X150503599Y-94741747D01*
X150521777Y-94758223D01*
X150538253Y-94776401D01*
X150552868Y-94796107D01*
X150565480Y-94817150D01*
X150575970Y-94839329D01*
X150584235Y-94862428D01*
X150590196Y-94886227D01*
X150593796Y-94910495D01*
X150595000Y-94934999D01*
X150595000Y-95465001D01*
X150593796Y-95489505D01*
X150590196Y-95513773D01*
X150584235Y-95537572D01*
X150575970Y-95560671D01*
X150565480Y-95582850D01*
X150552868Y-95603893D01*
X150538253Y-95623599D01*
X150521777Y-95641777D01*
X150503599Y-95658253D01*
X150483893Y-95672868D01*
X150462850Y-95685480D01*
X150440671Y-95695970D01*
X150417572Y-95704235D01*
X150393773Y-95710196D01*
X150369505Y-95713796D01*
X150345001Y-95715000D01*
X149814999Y-95715000D01*
X149790495Y-95713796D01*
X149766227Y-95710196D01*
X149742428Y-95704235D01*
X149719329Y-95695970D01*
X149697150Y-95685480D01*
X149676107Y-95672868D01*
X149656401Y-95658253D01*
X149638223Y-95641777D01*
X149621747Y-95623599D01*
X149607132Y-95603893D01*
X149594520Y-95582850D01*
X149584030Y-95560671D01*
X149575765Y-95537572D01*
X149569804Y-95513773D01*
X149566204Y-95489505D01*
X149565000Y-95465001D01*
X149565000Y-94934999D01*
X149566204Y-94910495D01*
X149569804Y-94886227D01*
X149575765Y-94862428D01*
X149584030Y-94839329D01*
X149594520Y-94817150D01*
X149607132Y-94796107D01*
X149621747Y-94776401D01*
X149638223Y-94758223D01*
X149656401Y-94741747D01*
X149676107Y-94727132D01*
X149697150Y-94714520D01*
X149719329Y-94704030D01*
X149742428Y-94695765D01*
X149766227Y-94689804D01*
X149790495Y-94686204D01*
X149814999Y-94685000D01*
X150345001Y-94685000D01*
X150369505Y-94686204D01*
X150369505Y-94686204D01*
G37*
D11*
X150080000Y-95200000D03*
D10*
G36*
X151649505Y-94686204D02*
X151673773Y-94689804D01*
X151697572Y-94695765D01*
X151720671Y-94704030D01*
X151742850Y-94714520D01*
X151763893Y-94727132D01*
X151783599Y-94741747D01*
X151801777Y-94758223D01*
X151818253Y-94776401D01*
X151832868Y-94796107D01*
X151845480Y-94817150D01*
X151855970Y-94839329D01*
X151864235Y-94862428D01*
X151870196Y-94886227D01*
X151873796Y-94910495D01*
X151875000Y-94934999D01*
X151875000Y-95465001D01*
X151873796Y-95489505D01*
X151870196Y-95513773D01*
X151864235Y-95537572D01*
X151855970Y-95560671D01*
X151845480Y-95582850D01*
X151832868Y-95603893D01*
X151818253Y-95623599D01*
X151801777Y-95641777D01*
X151783599Y-95658253D01*
X151763893Y-95672868D01*
X151742850Y-95685480D01*
X151720671Y-95695970D01*
X151697572Y-95704235D01*
X151673773Y-95710196D01*
X151649505Y-95713796D01*
X151625001Y-95715000D01*
X151094999Y-95715000D01*
X151070495Y-95713796D01*
X151046227Y-95710196D01*
X151022428Y-95704235D01*
X150999329Y-95695970D01*
X150977150Y-95685480D01*
X150956107Y-95672868D01*
X150936401Y-95658253D01*
X150918223Y-95641777D01*
X150901747Y-95623599D01*
X150887132Y-95603893D01*
X150874520Y-95582850D01*
X150864030Y-95560671D01*
X150855765Y-95537572D01*
X150849804Y-95513773D01*
X150846204Y-95489505D01*
X150845000Y-95465001D01*
X150845000Y-94934999D01*
X150846204Y-94910495D01*
X150849804Y-94886227D01*
X150855765Y-94862428D01*
X150864030Y-94839329D01*
X150874520Y-94817150D01*
X150887132Y-94796107D01*
X150901747Y-94776401D01*
X150918223Y-94758223D01*
X150936401Y-94741747D01*
X150956107Y-94727132D01*
X150977150Y-94714520D01*
X150999329Y-94704030D01*
X151022428Y-94695765D01*
X151046227Y-94689804D01*
X151070495Y-94686204D01*
X151094999Y-94685000D01*
X151625001Y-94685000D01*
X151649505Y-94686204D01*
X151649505Y-94686204D01*
G37*
D11*
X151360000Y-95200000D03*
D10*
G36*
X152929505Y-94686204D02*
X152953773Y-94689804D01*
X152977572Y-94695765D01*
X153000671Y-94704030D01*
X153022850Y-94714520D01*
X153043893Y-94727132D01*
X153063599Y-94741747D01*
X153081777Y-94758223D01*
X153098253Y-94776401D01*
X153112868Y-94796107D01*
X153125480Y-94817150D01*
X153135970Y-94839329D01*
X153144235Y-94862428D01*
X153150196Y-94886227D01*
X153153796Y-94910495D01*
X153155000Y-94934999D01*
X153155000Y-95465001D01*
X153153796Y-95489505D01*
X153150196Y-95513773D01*
X153144235Y-95537572D01*
X153135970Y-95560671D01*
X153125480Y-95582850D01*
X153112868Y-95603893D01*
X153098253Y-95623599D01*
X153081777Y-95641777D01*
X153063599Y-95658253D01*
X153043893Y-95672868D01*
X153022850Y-95685480D01*
X153000671Y-95695970D01*
X152977572Y-95704235D01*
X152953773Y-95710196D01*
X152929505Y-95713796D01*
X152905001Y-95715000D01*
X152374999Y-95715000D01*
X152350495Y-95713796D01*
X152326227Y-95710196D01*
X152302428Y-95704235D01*
X152279329Y-95695970D01*
X152257150Y-95685480D01*
X152236107Y-95672868D01*
X152216401Y-95658253D01*
X152198223Y-95641777D01*
X152181747Y-95623599D01*
X152167132Y-95603893D01*
X152154520Y-95582850D01*
X152144030Y-95560671D01*
X152135765Y-95537572D01*
X152129804Y-95513773D01*
X152126204Y-95489505D01*
X152125000Y-95465001D01*
X152125000Y-94934999D01*
X152126204Y-94910495D01*
X152129804Y-94886227D01*
X152135765Y-94862428D01*
X152144030Y-94839329D01*
X152154520Y-94817150D01*
X152167132Y-94796107D01*
X152181747Y-94776401D01*
X152198223Y-94758223D01*
X152216401Y-94741747D01*
X152236107Y-94727132D01*
X152257150Y-94714520D01*
X152279329Y-94704030D01*
X152302428Y-94695765D01*
X152326227Y-94689804D01*
X152350495Y-94686204D01*
X152374999Y-94685000D01*
X152905001Y-94685000D01*
X152929505Y-94686204D01*
X152929505Y-94686204D01*
G37*
D11*
X152640000Y-95200000D03*
D10*
G36*
X154209505Y-94686204D02*
X154233773Y-94689804D01*
X154257572Y-94695765D01*
X154280671Y-94704030D01*
X154302850Y-94714520D01*
X154323893Y-94727132D01*
X154343599Y-94741747D01*
X154361777Y-94758223D01*
X154378253Y-94776401D01*
X154392868Y-94796107D01*
X154405480Y-94817150D01*
X154415970Y-94839329D01*
X154424235Y-94862428D01*
X154430196Y-94886227D01*
X154433796Y-94910495D01*
X154435000Y-94934999D01*
X154435000Y-95465001D01*
X154433796Y-95489505D01*
X154430196Y-95513773D01*
X154424235Y-95537572D01*
X154415970Y-95560671D01*
X154405480Y-95582850D01*
X154392868Y-95603893D01*
X154378253Y-95623599D01*
X154361777Y-95641777D01*
X154343599Y-95658253D01*
X154323893Y-95672868D01*
X154302850Y-95685480D01*
X154280671Y-95695970D01*
X154257572Y-95704235D01*
X154233773Y-95710196D01*
X154209505Y-95713796D01*
X154185001Y-95715000D01*
X153654999Y-95715000D01*
X153630495Y-95713796D01*
X153606227Y-95710196D01*
X153582428Y-95704235D01*
X153559329Y-95695970D01*
X153537150Y-95685480D01*
X153516107Y-95672868D01*
X153496401Y-95658253D01*
X153478223Y-95641777D01*
X153461747Y-95623599D01*
X153447132Y-95603893D01*
X153434520Y-95582850D01*
X153424030Y-95560671D01*
X153415765Y-95537572D01*
X153409804Y-95513773D01*
X153406204Y-95489505D01*
X153405000Y-95465001D01*
X153405000Y-94934999D01*
X153406204Y-94910495D01*
X153409804Y-94886227D01*
X153415765Y-94862428D01*
X153424030Y-94839329D01*
X153434520Y-94817150D01*
X153447132Y-94796107D01*
X153461747Y-94776401D01*
X153478223Y-94758223D01*
X153496401Y-94741747D01*
X153516107Y-94727132D01*
X153537150Y-94714520D01*
X153559329Y-94704030D01*
X153582428Y-94695765D01*
X153606227Y-94689804D01*
X153630495Y-94686204D01*
X153654999Y-94685000D01*
X154185001Y-94685000D01*
X154209505Y-94686204D01*
X154209505Y-94686204D01*
G37*
D11*
X153920000Y-95200000D03*
D10*
G36*
X149089505Y-93406204D02*
X149113773Y-93409804D01*
X149137572Y-93415765D01*
X149160671Y-93424030D01*
X149182850Y-93434520D01*
X149203893Y-93447132D01*
X149223599Y-93461747D01*
X149241777Y-93478223D01*
X149258253Y-93496401D01*
X149272868Y-93516107D01*
X149285480Y-93537150D01*
X149295970Y-93559329D01*
X149304235Y-93582428D01*
X149310196Y-93606227D01*
X149313796Y-93630495D01*
X149315000Y-93654999D01*
X149315000Y-94185001D01*
X149313796Y-94209505D01*
X149310196Y-94233773D01*
X149304235Y-94257572D01*
X149295970Y-94280671D01*
X149285480Y-94302850D01*
X149272868Y-94323893D01*
X149258253Y-94343599D01*
X149241777Y-94361777D01*
X149223599Y-94378253D01*
X149203893Y-94392868D01*
X149182850Y-94405480D01*
X149160671Y-94415970D01*
X149137572Y-94424235D01*
X149113773Y-94430196D01*
X149089505Y-94433796D01*
X149065001Y-94435000D01*
X148534999Y-94435000D01*
X148510495Y-94433796D01*
X148486227Y-94430196D01*
X148462428Y-94424235D01*
X148439329Y-94415970D01*
X148417150Y-94405480D01*
X148396107Y-94392868D01*
X148376401Y-94378253D01*
X148358223Y-94361777D01*
X148341747Y-94343599D01*
X148327132Y-94323893D01*
X148314520Y-94302850D01*
X148304030Y-94280671D01*
X148295765Y-94257572D01*
X148289804Y-94233773D01*
X148286204Y-94209505D01*
X148285000Y-94185001D01*
X148285000Y-93654999D01*
X148286204Y-93630495D01*
X148289804Y-93606227D01*
X148295765Y-93582428D01*
X148304030Y-93559329D01*
X148314520Y-93537150D01*
X148327132Y-93516107D01*
X148341747Y-93496401D01*
X148358223Y-93478223D01*
X148376401Y-93461747D01*
X148396107Y-93447132D01*
X148417150Y-93434520D01*
X148439329Y-93424030D01*
X148462428Y-93415765D01*
X148486227Y-93409804D01*
X148510495Y-93406204D01*
X148534999Y-93405000D01*
X149065001Y-93405000D01*
X149089505Y-93406204D01*
X149089505Y-93406204D01*
G37*
D11*
X148800000Y-93920000D03*
D10*
G36*
X150369505Y-93406204D02*
X150393773Y-93409804D01*
X150417572Y-93415765D01*
X150440671Y-93424030D01*
X150462850Y-93434520D01*
X150483893Y-93447132D01*
X150503599Y-93461747D01*
X150521777Y-93478223D01*
X150538253Y-93496401D01*
X150552868Y-93516107D01*
X150565480Y-93537150D01*
X150575970Y-93559329D01*
X150584235Y-93582428D01*
X150590196Y-93606227D01*
X150593796Y-93630495D01*
X150595000Y-93654999D01*
X150595000Y-94185001D01*
X150593796Y-94209505D01*
X150590196Y-94233773D01*
X150584235Y-94257572D01*
X150575970Y-94280671D01*
X150565480Y-94302850D01*
X150552868Y-94323893D01*
X150538253Y-94343599D01*
X150521777Y-94361777D01*
X150503599Y-94378253D01*
X150483893Y-94392868D01*
X150462850Y-94405480D01*
X150440671Y-94415970D01*
X150417572Y-94424235D01*
X150393773Y-94430196D01*
X150369505Y-94433796D01*
X150345001Y-94435000D01*
X149814999Y-94435000D01*
X149790495Y-94433796D01*
X149766227Y-94430196D01*
X149742428Y-94424235D01*
X149719329Y-94415970D01*
X149697150Y-94405480D01*
X149676107Y-94392868D01*
X149656401Y-94378253D01*
X149638223Y-94361777D01*
X149621747Y-94343599D01*
X149607132Y-94323893D01*
X149594520Y-94302850D01*
X149584030Y-94280671D01*
X149575765Y-94257572D01*
X149569804Y-94233773D01*
X149566204Y-94209505D01*
X149565000Y-94185001D01*
X149565000Y-93654999D01*
X149566204Y-93630495D01*
X149569804Y-93606227D01*
X149575765Y-93582428D01*
X149584030Y-93559329D01*
X149594520Y-93537150D01*
X149607132Y-93516107D01*
X149621747Y-93496401D01*
X149638223Y-93478223D01*
X149656401Y-93461747D01*
X149676107Y-93447132D01*
X149697150Y-93434520D01*
X149719329Y-93424030D01*
X149742428Y-93415765D01*
X149766227Y-93409804D01*
X149790495Y-93406204D01*
X149814999Y-93405000D01*
X150345001Y-93405000D01*
X150369505Y-93406204D01*
X150369505Y-93406204D01*
G37*
D11*
X150080000Y-93920000D03*
D10*
G36*
X151649505Y-93406204D02*
X151673773Y-93409804D01*
X151697572Y-93415765D01*
X151720671Y-93424030D01*
X151742850Y-93434520D01*
X151763893Y-93447132D01*
X151783599Y-93461747D01*
X151801777Y-93478223D01*
X151818253Y-93496401D01*
X151832868Y-93516107D01*
X151845480Y-93537150D01*
X151855970Y-93559329D01*
X151864235Y-93582428D01*
X151870196Y-93606227D01*
X151873796Y-93630495D01*
X151875000Y-93654999D01*
X151875000Y-94185001D01*
X151873796Y-94209505D01*
X151870196Y-94233773D01*
X151864235Y-94257572D01*
X151855970Y-94280671D01*
X151845480Y-94302850D01*
X151832868Y-94323893D01*
X151818253Y-94343599D01*
X151801777Y-94361777D01*
X151783599Y-94378253D01*
X151763893Y-94392868D01*
X151742850Y-94405480D01*
X151720671Y-94415970D01*
X151697572Y-94424235D01*
X151673773Y-94430196D01*
X151649505Y-94433796D01*
X151625001Y-94435000D01*
X151094999Y-94435000D01*
X151070495Y-94433796D01*
X151046227Y-94430196D01*
X151022428Y-94424235D01*
X150999329Y-94415970D01*
X150977150Y-94405480D01*
X150956107Y-94392868D01*
X150936401Y-94378253D01*
X150918223Y-94361777D01*
X150901747Y-94343599D01*
X150887132Y-94323893D01*
X150874520Y-94302850D01*
X150864030Y-94280671D01*
X150855765Y-94257572D01*
X150849804Y-94233773D01*
X150846204Y-94209505D01*
X150845000Y-94185001D01*
X150845000Y-93654999D01*
X150846204Y-93630495D01*
X150849804Y-93606227D01*
X150855765Y-93582428D01*
X150864030Y-93559329D01*
X150874520Y-93537150D01*
X150887132Y-93516107D01*
X150901747Y-93496401D01*
X150918223Y-93478223D01*
X150936401Y-93461747D01*
X150956107Y-93447132D01*
X150977150Y-93434520D01*
X150999329Y-93424030D01*
X151022428Y-93415765D01*
X151046227Y-93409804D01*
X151070495Y-93406204D01*
X151094999Y-93405000D01*
X151625001Y-93405000D01*
X151649505Y-93406204D01*
X151649505Y-93406204D01*
G37*
D11*
X151360000Y-93920000D03*
D10*
G36*
X152929505Y-93406204D02*
X152953773Y-93409804D01*
X152977572Y-93415765D01*
X153000671Y-93424030D01*
X153022850Y-93434520D01*
X153043893Y-93447132D01*
X153063599Y-93461747D01*
X153081777Y-93478223D01*
X153098253Y-93496401D01*
X153112868Y-93516107D01*
X153125480Y-93537150D01*
X153135970Y-93559329D01*
X153144235Y-93582428D01*
X153150196Y-93606227D01*
X153153796Y-93630495D01*
X153155000Y-93654999D01*
X153155000Y-94185001D01*
X153153796Y-94209505D01*
X153150196Y-94233773D01*
X153144235Y-94257572D01*
X153135970Y-94280671D01*
X153125480Y-94302850D01*
X153112868Y-94323893D01*
X153098253Y-94343599D01*
X153081777Y-94361777D01*
X153063599Y-94378253D01*
X153043893Y-94392868D01*
X153022850Y-94405480D01*
X153000671Y-94415970D01*
X152977572Y-94424235D01*
X152953773Y-94430196D01*
X152929505Y-94433796D01*
X152905001Y-94435000D01*
X152374999Y-94435000D01*
X152350495Y-94433796D01*
X152326227Y-94430196D01*
X152302428Y-94424235D01*
X152279329Y-94415970D01*
X152257150Y-94405480D01*
X152236107Y-94392868D01*
X152216401Y-94378253D01*
X152198223Y-94361777D01*
X152181747Y-94343599D01*
X152167132Y-94323893D01*
X152154520Y-94302850D01*
X152144030Y-94280671D01*
X152135765Y-94257572D01*
X152129804Y-94233773D01*
X152126204Y-94209505D01*
X152125000Y-94185001D01*
X152125000Y-93654999D01*
X152126204Y-93630495D01*
X152129804Y-93606227D01*
X152135765Y-93582428D01*
X152144030Y-93559329D01*
X152154520Y-93537150D01*
X152167132Y-93516107D01*
X152181747Y-93496401D01*
X152198223Y-93478223D01*
X152216401Y-93461747D01*
X152236107Y-93447132D01*
X152257150Y-93434520D01*
X152279329Y-93424030D01*
X152302428Y-93415765D01*
X152326227Y-93409804D01*
X152350495Y-93406204D01*
X152374999Y-93405000D01*
X152905001Y-93405000D01*
X152929505Y-93406204D01*
X152929505Y-93406204D01*
G37*
D11*
X152640000Y-93920000D03*
D10*
G36*
X154209505Y-93406204D02*
X154233773Y-93409804D01*
X154257572Y-93415765D01*
X154280671Y-93424030D01*
X154302850Y-93434520D01*
X154323893Y-93447132D01*
X154343599Y-93461747D01*
X154361777Y-93478223D01*
X154378253Y-93496401D01*
X154392868Y-93516107D01*
X154405480Y-93537150D01*
X154415970Y-93559329D01*
X154424235Y-93582428D01*
X154430196Y-93606227D01*
X154433796Y-93630495D01*
X154435000Y-93654999D01*
X154435000Y-94185001D01*
X154433796Y-94209505D01*
X154430196Y-94233773D01*
X154424235Y-94257572D01*
X154415970Y-94280671D01*
X154405480Y-94302850D01*
X154392868Y-94323893D01*
X154378253Y-94343599D01*
X154361777Y-94361777D01*
X154343599Y-94378253D01*
X154323893Y-94392868D01*
X154302850Y-94405480D01*
X154280671Y-94415970D01*
X154257572Y-94424235D01*
X154233773Y-94430196D01*
X154209505Y-94433796D01*
X154185001Y-94435000D01*
X153654999Y-94435000D01*
X153630495Y-94433796D01*
X153606227Y-94430196D01*
X153582428Y-94424235D01*
X153559329Y-94415970D01*
X153537150Y-94405480D01*
X153516107Y-94392868D01*
X153496401Y-94378253D01*
X153478223Y-94361777D01*
X153461747Y-94343599D01*
X153447132Y-94323893D01*
X153434520Y-94302850D01*
X153424030Y-94280671D01*
X153415765Y-94257572D01*
X153409804Y-94233773D01*
X153406204Y-94209505D01*
X153405000Y-94185001D01*
X153405000Y-93654999D01*
X153406204Y-93630495D01*
X153409804Y-93606227D01*
X153415765Y-93582428D01*
X153424030Y-93559329D01*
X153434520Y-93537150D01*
X153447132Y-93516107D01*
X153461747Y-93496401D01*
X153478223Y-93478223D01*
X153496401Y-93461747D01*
X153516107Y-93447132D01*
X153537150Y-93434520D01*
X153559329Y-93424030D01*
X153582428Y-93415765D01*
X153606227Y-93409804D01*
X153630495Y-93406204D01*
X153654999Y-93405000D01*
X154185001Y-93405000D01*
X154209505Y-93406204D01*
X154209505Y-93406204D01*
G37*
D11*
X153920000Y-93920000D03*
D10*
G36*
X149089505Y-92126204D02*
X149113773Y-92129804D01*
X149137572Y-92135765D01*
X149160671Y-92144030D01*
X149182850Y-92154520D01*
X149203893Y-92167132D01*
X149223599Y-92181747D01*
X149241777Y-92198223D01*
X149258253Y-92216401D01*
X149272868Y-92236107D01*
X149285480Y-92257150D01*
X149295970Y-92279329D01*
X149304235Y-92302428D01*
X149310196Y-92326227D01*
X149313796Y-92350495D01*
X149315000Y-92374999D01*
X149315000Y-92905001D01*
X149313796Y-92929505D01*
X149310196Y-92953773D01*
X149304235Y-92977572D01*
X149295970Y-93000671D01*
X149285480Y-93022850D01*
X149272868Y-93043893D01*
X149258253Y-93063599D01*
X149241777Y-93081777D01*
X149223599Y-93098253D01*
X149203893Y-93112868D01*
X149182850Y-93125480D01*
X149160671Y-93135970D01*
X149137572Y-93144235D01*
X149113773Y-93150196D01*
X149089505Y-93153796D01*
X149065001Y-93155000D01*
X148534999Y-93155000D01*
X148510495Y-93153796D01*
X148486227Y-93150196D01*
X148462428Y-93144235D01*
X148439329Y-93135970D01*
X148417150Y-93125480D01*
X148396107Y-93112868D01*
X148376401Y-93098253D01*
X148358223Y-93081777D01*
X148341747Y-93063599D01*
X148327132Y-93043893D01*
X148314520Y-93022850D01*
X148304030Y-93000671D01*
X148295765Y-92977572D01*
X148289804Y-92953773D01*
X148286204Y-92929505D01*
X148285000Y-92905001D01*
X148285000Y-92374999D01*
X148286204Y-92350495D01*
X148289804Y-92326227D01*
X148295765Y-92302428D01*
X148304030Y-92279329D01*
X148314520Y-92257150D01*
X148327132Y-92236107D01*
X148341747Y-92216401D01*
X148358223Y-92198223D01*
X148376401Y-92181747D01*
X148396107Y-92167132D01*
X148417150Y-92154520D01*
X148439329Y-92144030D01*
X148462428Y-92135765D01*
X148486227Y-92129804D01*
X148510495Y-92126204D01*
X148534999Y-92125000D01*
X149065001Y-92125000D01*
X149089505Y-92126204D01*
X149089505Y-92126204D01*
G37*
D11*
X148800000Y-92640000D03*
D10*
G36*
X150369505Y-92126204D02*
X150393773Y-92129804D01*
X150417572Y-92135765D01*
X150440671Y-92144030D01*
X150462850Y-92154520D01*
X150483893Y-92167132D01*
X150503599Y-92181747D01*
X150521777Y-92198223D01*
X150538253Y-92216401D01*
X150552868Y-92236107D01*
X150565480Y-92257150D01*
X150575970Y-92279329D01*
X150584235Y-92302428D01*
X150590196Y-92326227D01*
X150593796Y-92350495D01*
X150595000Y-92374999D01*
X150595000Y-92905001D01*
X150593796Y-92929505D01*
X150590196Y-92953773D01*
X150584235Y-92977572D01*
X150575970Y-93000671D01*
X150565480Y-93022850D01*
X150552868Y-93043893D01*
X150538253Y-93063599D01*
X150521777Y-93081777D01*
X150503599Y-93098253D01*
X150483893Y-93112868D01*
X150462850Y-93125480D01*
X150440671Y-93135970D01*
X150417572Y-93144235D01*
X150393773Y-93150196D01*
X150369505Y-93153796D01*
X150345001Y-93155000D01*
X149814999Y-93155000D01*
X149790495Y-93153796D01*
X149766227Y-93150196D01*
X149742428Y-93144235D01*
X149719329Y-93135970D01*
X149697150Y-93125480D01*
X149676107Y-93112868D01*
X149656401Y-93098253D01*
X149638223Y-93081777D01*
X149621747Y-93063599D01*
X149607132Y-93043893D01*
X149594520Y-93022850D01*
X149584030Y-93000671D01*
X149575765Y-92977572D01*
X149569804Y-92953773D01*
X149566204Y-92929505D01*
X149565000Y-92905001D01*
X149565000Y-92374999D01*
X149566204Y-92350495D01*
X149569804Y-92326227D01*
X149575765Y-92302428D01*
X149584030Y-92279329D01*
X149594520Y-92257150D01*
X149607132Y-92236107D01*
X149621747Y-92216401D01*
X149638223Y-92198223D01*
X149656401Y-92181747D01*
X149676107Y-92167132D01*
X149697150Y-92154520D01*
X149719329Y-92144030D01*
X149742428Y-92135765D01*
X149766227Y-92129804D01*
X149790495Y-92126204D01*
X149814999Y-92125000D01*
X150345001Y-92125000D01*
X150369505Y-92126204D01*
X150369505Y-92126204D01*
G37*
D11*
X150080000Y-92640000D03*
D10*
G36*
X151649505Y-92126204D02*
X151673773Y-92129804D01*
X151697572Y-92135765D01*
X151720671Y-92144030D01*
X151742850Y-92154520D01*
X151763893Y-92167132D01*
X151783599Y-92181747D01*
X151801777Y-92198223D01*
X151818253Y-92216401D01*
X151832868Y-92236107D01*
X151845480Y-92257150D01*
X151855970Y-92279329D01*
X151864235Y-92302428D01*
X151870196Y-92326227D01*
X151873796Y-92350495D01*
X151875000Y-92374999D01*
X151875000Y-92905001D01*
X151873796Y-92929505D01*
X151870196Y-92953773D01*
X151864235Y-92977572D01*
X151855970Y-93000671D01*
X151845480Y-93022850D01*
X151832868Y-93043893D01*
X151818253Y-93063599D01*
X151801777Y-93081777D01*
X151783599Y-93098253D01*
X151763893Y-93112868D01*
X151742850Y-93125480D01*
X151720671Y-93135970D01*
X151697572Y-93144235D01*
X151673773Y-93150196D01*
X151649505Y-93153796D01*
X151625001Y-93155000D01*
X151094999Y-93155000D01*
X151070495Y-93153796D01*
X151046227Y-93150196D01*
X151022428Y-93144235D01*
X150999329Y-93135970D01*
X150977150Y-93125480D01*
X150956107Y-93112868D01*
X150936401Y-93098253D01*
X150918223Y-93081777D01*
X150901747Y-93063599D01*
X150887132Y-93043893D01*
X150874520Y-93022850D01*
X150864030Y-93000671D01*
X150855765Y-92977572D01*
X150849804Y-92953773D01*
X150846204Y-92929505D01*
X150845000Y-92905001D01*
X150845000Y-92374999D01*
X150846204Y-92350495D01*
X150849804Y-92326227D01*
X150855765Y-92302428D01*
X150864030Y-92279329D01*
X150874520Y-92257150D01*
X150887132Y-92236107D01*
X150901747Y-92216401D01*
X150918223Y-92198223D01*
X150936401Y-92181747D01*
X150956107Y-92167132D01*
X150977150Y-92154520D01*
X150999329Y-92144030D01*
X151022428Y-92135765D01*
X151046227Y-92129804D01*
X151070495Y-92126204D01*
X151094999Y-92125000D01*
X151625001Y-92125000D01*
X151649505Y-92126204D01*
X151649505Y-92126204D01*
G37*
D11*
X151360000Y-92640000D03*
D10*
G36*
X152929505Y-92126204D02*
X152953773Y-92129804D01*
X152977572Y-92135765D01*
X153000671Y-92144030D01*
X153022850Y-92154520D01*
X153043893Y-92167132D01*
X153063599Y-92181747D01*
X153081777Y-92198223D01*
X153098253Y-92216401D01*
X153112868Y-92236107D01*
X153125480Y-92257150D01*
X153135970Y-92279329D01*
X153144235Y-92302428D01*
X153150196Y-92326227D01*
X153153796Y-92350495D01*
X153155000Y-92374999D01*
X153155000Y-92905001D01*
X153153796Y-92929505D01*
X153150196Y-92953773D01*
X153144235Y-92977572D01*
X153135970Y-93000671D01*
X153125480Y-93022850D01*
X153112868Y-93043893D01*
X153098253Y-93063599D01*
X153081777Y-93081777D01*
X153063599Y-93098253D01*
X153043893Y-93112868D01*
X153022850Y-93125480D01*
X153000671Y-93135970D01*
X152977572Y-93144235D01*
X152953773Y-93150196D01*
X152929505Y-93153796D01*
X152905001Y-93155000D01*
X152374999Y-93155000D01*
X152350495Y-93153796D01*
X152326227Y-93150196D01*
X152302428Y-93144235D01*
X152279329Y-93135970D01*
X152257150Y-93125480D01*
X152236107Y-93112868D01*
X152216401Y-93098253D01*
X152198223Y-93081777D01*
X152181747Y-93063599D01*
X152167132Y-93043893D01*
X152154520Y-93022850D01*
X152144030Y-93000671D01*
X152135765Y-92977572D01*
X152129804Y-92953773D01*
X152126204Y-92929505D01*
X152125000Y-92905001D01*
X152125000Y-92374999D01*
X152126204Y-92350495D01*
X152129804Y-92326227D01*
X152135765Y-92302428D01*
X152144030Y-92279329D01*
X152154520Y-92257150D01*
X152167132Y-92236107D01*
X152181747Y-92216401D01*
X152198223Y-92198223D01*
X152216401Y-92181747D01*
X152236107Y-92167132D01*
X152257150Y-92154520D01*
X152279329Y-92144030D01*
X152302428Y-92135765D01*
X152326227Y-92129804D01*
X152350495Y-92126204D01*
X152374999Y-92125000D01*
X152905001Y-92125000D01*
X152929505Y-92126204D01*
X152929505Y-92126204D01*
G37*
D11*
X152640000Y-92640000D03*
D10*
G36*
X154209505Y-92126204D02*
X154233773Y-92129804D01*
X154257572Y-92135765D01*
X154280671Y-92144030D01*
X154302850Y-92154520D01*
X154323893Y-92167132D01*
X154343599Y-92181747D01*
X154361777Y-92198223D01*
X154378253Y-92216401D01*
X154392868Y-92236107D01*
X154405480Y-92257150D01*
X154415970Y-92279329D01*
X154424235Y-92302428D01*
X154430196Y-92326227D01*
X154433796Y-92350495D01*
X154435000Y-92374999D01*
X154435000Y-92905001D01*
X154433796Y-92929505D01*
X154430196Y-92953773D01*
X154424235Y-92977572D01*
X154415970Y-93000671D01*
X154405480Y-93022850D01*
X154392868Y-93043893D01*
X154378253Y-93063599D01*
X154361777Y-93081777D01*
X154343599Y-93098253D01*
X154323893Y-93112868D01*
X154302850Y-93125480D01*
X154280671Y-93135970D01*
X154257572Y-93144235D01*
X154233773Y-93150196D01*
X154209505Y-93153796D01*
X154185001Y-93155000D01*
X153654999Y-93155000D01*
X153630495Y-93153796D01*
X153606227Y-93150196D01*
X153582428Y-93144235D01*
X153559329Y-93135970D01*
X153537150Y-93125480D01*
X153516107Y-93112868D01*
X153496401Y-93098253D01*
X153478223Y-93081777D01*
X153461747Y-93063599D01*
X153447132Y-93043893D01*
X153434520Y-93022850D01*
X153424030Y-93000671D01*
X153415765Y-92977572D01*
X153409804Y-92953773D01*
X153406204Y-92929505D01*
X153405000Y-92905001D01*
X153405000Y-92374999D01*
X153406204Y-92350495D01*
X153409804Y-92326227D01*
X153415765Y-92302428D01*
X153424030Y-92279329D01*
X153434520Y-92257150D01*
X153447132Y-92236107D01*
X153461747Y-92216401D01*
X153478223Y-92198223D01*
X153496401Y-92181747D01*
X153516107Y-92167132D01*
X153537150Y-92154520D01*
X153559329Y-92144030D01*
X153582428Y-92135765D01*
X153606227Y-92129804D01*
X153630495Y-92126204D01*
X153654999Y-92125000D01*
X154185001Y-92125000D01*
X154209505Y-92126204D01*
X154209505Y-92126204D01*
G37*
D11*
X153920000Y-92640000D03*
D10*
G36*
X155489505Y-92126204D02*
X155513773Y-92129804D01*
X155537572Y-92135765D01*
X155560671Y-92144030D01*
X155582850Y-92154520D01*
X155603893Y-92167132D01*
X155623599Y-92181747D01*
X155641777Y-92198223D01*
X155658253Y-92216401D01*
X155672868Y-92236107D01*
X155685480Y-92257150D01*
X155695970Y-92279329D01*
X155704235Y-92302428D01*
X155710196Y-92326227D01*
X155713796Y-92350495D01*
X155715000Y-92374999D01*
X155715000Y-92905001D01*
X155713796Y-92929505D01*
X155710196Y-92953773D01*
X155704235Y-92977572D01*
X155695970Y-93000671D01*
X155685480Y-93022850D01*
X155672868Y-93043893D01*
X155658253Y-93063599D01*
X155641777Y-93081777D01*
X155623599Y-93098253D01*
X155603893Y-93112868D01*
X155582850Y-93125480D01*
X155560671Y-93135970D01*
X155537572Y-93144235D01*
X155513773Y-93150196D01*
X155489505Y-93153796D01*
X155465001Y-93155000D01*
X154934999Y-93155000D01*
X154910495Y-93153796D01*
X154886227Y-93150196D01*
X154862428Y-93144235D01*
X154839329Y-93135970D01*
X154817150Y-93125480D01*
X154796107Y-93112868D01*
X154776401Y-93098253D01*
X154758223Y-93081777D01*
X154741747Y-93063599D01*
X154727132Y-93043893D01*
X154714520Y-93022850D01*
X154704030Y-93000671D01*
X154695765Y-92977572D01*
X154689804Y-92953773D01*
X154686204Y-92929505D01*
X154685000Y-92905001D01*
X154685000Y-92374999D01*
X154686204Y-92350495D01*
X154689804Y-92326227D01*
X154695765Y-92302428D01*
X154704030Y-92279329D01*
X154714520Y-92257150D01*
X154727132Y-92236107D01*
X154741747Y-92216401D01*
X154758223Y-92198223D01*
X154776401Y-92181747D01*
X154796107Y-92167132D01*
X154817150Y-92154520D01*
X154839329Y-92144030D01*
X154862428Y-92135765D01*
X154886227Y-92129804D01*
X154910495Y-92126204D01*
X154934999Y-92125000D01*
X155465001Y-92125000D01*
X155489505Y-92126204D01*
X155489505Y-92126204D01*
G37*
D11*
X155200000Y-92640000D03*
D10*
G36*
X149089505Y-90846204D02*
X149113773Y-90849804D01*
X149137572Y-90855765D01*
X149160671Y-90864030D01*
X149182850Y-90874520D01*
X149203893Y-90887132D01*
X149223599Y-90901747D01*
X149241777Y-90918223D01*
X149258253Y-90936401D01*
X149272868Y-90956107D01*
X149285480Y-90977150D01*
X149295970Y-90999329D01*
X149304235Y-91022428D01*
X149310196Y-91046227D01*
X149313796Y-91070495D01*
X149315000Y-91094999D01*
X149315000Y-91625001D01*
X149313796Y-91649505D01*
X149310196Y-91673773D01*
X149304235Y-91697572D01*
X149295970Y-91720671D01*
X149285480Y-91742850D01*
X149272868Y-91763893D01*
X149258253Y-91783599D01*
X149241777Y-91801777D01*
X149223599Y-91818253D01*
X149203893Y-91832868D01*
X149182850Y-91845480D01*
X149160671Y-91855970D01*
X149137572Y-91864235D01*
X149113773Y-91870196D01*
X149089505Y-91873796D01*
X149065001Y-91875000D01*
X148534999Y-91875000D01*
X148510495Y-91873796D01*
X148486227Y-91870196D01*
X148462428Y-91864235D01*
X148439329Y-91855970D01*
X148417150Y-91845480D01*
X148396107Y-91832868D01*
X148376401Y-91818253D01*
X148358223Y-91801777D01*
X148341747Y-91783599D01*
X148327132Y-91763893D01*
X148314520Y-91742850D01*
X148304030Y-91720671D01*
X148295765Y-91697572D01*
X148289804Y-91673773D01*
X148286204Y-91649505D01*
X148285000Y-91625001D01*
X148285000Y-91094999D01*
X148286204Y-91070495D01*
X148289804Y-91046227D01*
X148295765Y-91022428D01*
X148304030Y-90999329D01*
X148314520Y-90977150D01*
X148327132Y-90956107D01*
X148341747Y-90936401D01*
X148358223Y-90918223D01*
X148376401Y-90901747D01*
X148396107Y-90887132D01*
X148417150Y-90874520D01*
X148439329Y-90864030D01*
X148462428Y-90855765D01*
X148486227Y-90849804D01*
X148510495Y-90846204D01*
X148534999Y-90845000D01*
X149065001Y-90845000D01*
X149089505Y-90846204D01*
X149089505Y-90846204D01*
G37*
D11*
X148800000Y-91360000D03*
D10*
G36*
X150369505Y-90846204D02*
X150393773Y-90849804D01*
X150417572Y-90855765D01*
X150440671Y-90864030D01*
X150462850Y-90874520D01*
X150483893Y-90887132D01*
X150503599Y-90901747D01*
X150521777Y-90918223D01*
X150538253Y-90936401D01*
X150552868Y-90956107D01*
X150565480Y-90977150D01*
X150575970Y-90999329D01*
X150584235Y-91022428D01*
X150590196Y-91046227D01*
X150593796Y-91070495D01*
X150595000Y-91094999D01*
X150595000Y-91625001D01*
X150593796Y-91649505D01*
X150590196Y-91673773D01*
X150584235Y-91697572D01*
X150575970Y-91720671D01*
X150565480Y-91742850D01*
X150552868Y-91763893D01*
X150538253Y-91783599D01*
X150521777Y-91801777D01*
X150503599Y-91818253D01*
X150483893Y-91832868D01*
X150462850Y-91845480D01*
X150440671Y-91855970D01*
X150417572Y-91864235D01*
X150393773Y-91870196D01*
X150369505Y-91873796D01*
X150345001Y-91875000D01*
X149814999Y-91875000D01*
X149790495Y-91873796D01*
X149766227Y-91870196D01*
X149742428Y-91864235D01*
X149719329Y-91855970D01*
X149697150Y-91845480D01*
X149676107Y-91832868D01*
X149656401Y-91818253D01*
X149638223Y-91801777D01*
X149621747Y-91783599D01*
X149607132Y-91763893D01*
X149594520Y-91742850D01*
X149584030Y-91720671D01*
X149575765Y-91697572D01*
X149569804Y-91673773D01*
X149566204Y-91649505D01*
X149565000Y-91625001D01*
X149565000Y-91094999D01*
X149566204Y-91070495D01*
X149569804Y-91046227D01*
X149575765Y-91022428D01*
X149584030Y-90999329D01*
X149594520Y-90977150D01*
X149607132Y-90956107D01*
X149621747Y-90936401D01*
X149638223Y-90918223D01*
X149656401Y-90901747D01*
X149676107Y-90887132D01*
X149697150Y-90874520D01*
X149719329Y-90864030D01*
X149742428Y-90855765D01*
X149766227Y-90849804D01*
X149790495Y-90846204D01*
X149814999Y-90845000D01*
X150345001Y-90845000D01*
X150369505Y-90846204D01*
X150369505Y-90846204D01*
G37*
D11*
X150080000Y-91360000D03*
D10*
G36*
X155489505Y-90846204D02*
X155513773Y-90849804D01*
X155537572Y-90855765D01*
X155560671Y-90864030D01*
X155582850Y-90874520D01*
X155603893Y-90887132D01*
X155623599Y-90901747D01*
X155641777Y-90918223D01*
X155658253Y-90936401D01*
X155672868Y-90956107D01*
X155685480Y-90977150D01*
X155695970Y-90999329D01*
X155704235Y-91022428D01*
X155710196Y-91046227D01*
X155713796Y-91070495D01*
X155715000Y-91094999D01*
X155715000Y-91625001D01*
X155713796Y-91649505D01*
X155710196Y-91673773D01*
X155704235Y-91697572D01*
X155695970Y-91720671D01*
X155685480Y-91742850D01*
X155672868Y-91763893D01*
X155658253Y-91783599D01*
X155641777Y-91801777D01*
X155623599Y-91818253D01*
X155603893Y-91832868D01*
X155582850Y-91845480D01*
X155560671Y-91855970D01*
X155537572Y-91864235D01*
X155513773Y-91870196D01*
X155489505Y-91873796D01*
X155465001Y-91875000D01*
X154934999Y-91875000D01*
X154910495Y-91873796D01*
X154886227Y-91870196D01*
X154862428Y-91864235D01*
X154839329Y-91855970D01*
X154817150Y-91845480D01*
X154796107Y-91832868D01*
X154776401Y-91818253D01*
X154758223Y-91801777D01*
X154741747Y-91783599D01*
X154727132Y-91763893D01*
X154714520Y-91742850D01*
X154704030Y-91720671D01*
X154695765Y-91697572D01*
X154689804Y-91673773D01*
X154686204Y-91649505D01*
X154685000Y-91625001D01*
X154685000Y-91094999D01*
X154686204Y-91070495D01*
X154689804Y-91046227D01*
X154695765Y-91022428D01*
X154704030Y-90999329D01*
X154714520Y-90977150D01*
X154727132Y-90956107D01*
X154741747Y-90936401D01*
X154758223Y-90918223D01*
X154776401Y-90901747D01*
X154796107Y-90887132D01*
X154817150Y-90874520D01*
X154839329Y-90864030D01*
X154862428Y-90855765D01*
X154886227Y-90849804D01*
X154910495Y-90846204D01*
X154934999Y-90845000D01*
X155465001Y-90845000D01*
X155489505Y-90846204D01*
X155489505Y-90846204D01*
G37*
D11*
X155200000Y-91360000D03*
D10*
G36*
X148318626Y-98585301D02*
X148324693Y-98586201D01*
X148330643Y-98587691D01*
X148336418Y-98589758D01*
X148341962Y-98592380D01*
X148347223Y-98595533D01*
X148352150Y-98599187D01*
X148356694Y-98603306D01*
X148360813Y-98607850D01*
X148364467Y-98612777D01*
X148367620Y-98618038D01*
X148370242Y-98623582D01*
X148372309Y-98629357D01*
X148373799Y-98635307D01*
X148374699Y-98641374D01*
X148375000Y-98647500D01*
X148375000Y-99372500D01*
X148374699Y-99378626D01*
X148373799Y-99384693D01*
X148372309Y-99390643D01*
X148370242Y-99396418D01*
X148367620Y-99401962D01*
X148364467Y-99407223D01*
X148360813Y-99412150D01*
X148356694Y-99416694D01*
X148352150Y-99420813D01*
X148347223Y-99424467D01*
X148341962Y-99427620D01*
X148336418Y-99430242D01*
X148330643Y-99432309D01*
X148324693Y-99433799D01*
X148318626Y-99434699D01*
X148312500Y-99435000D01*
X148187500Y-99435000D01*
X148181374Y-99434699D01*
X148175307Y-99433799D01*
X148169357Y-99432309D01*
X148163582Y-99430242D01*
X148158038Y-99427620D01*
X148152777Y-99424467D01*
X148147850Y-99420813D01*
X148143306Y-99416694D01*
X148139187Y-99412150D01*
X148135533Y-99407223D01*
X148132380Y-99401962D01*
X148129758Y-99396418D01*
X148127691Y-99390643D01*
X148126201Y-99384693D01*
X148125301Y-99378626D01*
X148125000Y-99372500D01*
X148125000Y-98647500D01*
X148125301Y-98641374D01*
X148126201Y-98635307D01*
X148127691Y-98629357D01*
X148129758Y-98623582D01*
X148132380Y-98618038D01*
X148135533Y-98612777D01*
X148139187Y-98607850D01*
X148143306Y-98603306D01*
X148147850Y-98599187D01*
X148152777Y-98595533D01*
X148158038Y-98592380D01*
X148163582Y-98589758D01*
X148169357Y-98587691D01*
X148175307Y-98586201D01*
X148181374Y-98585301D01*
X148187500Y-98585000D01*
X148312500Y-98585000D01*
X148318626Y-98585301D01*
X148318626Y-98585301D01*
G37*
D12*
X148250000Y-99010000D03*
D10*
G36*
X148818626Y-98585301D02*
X148824693Y-98586201D01*
X148830643Y-98587691D01*
X148836418Y-98589758D01*
X148841962Y-98592380D01*
X148847223Y-98595533D01*
X148852150Y-98599187D01*
X148856694Y-98603306D01*
X148860813Y-98607850D01*
X148864467Y-98612777D01*
X148867620Y-98618038D01*
X148870242Y-98623582D01*
X148872309Y-98629357D01*
X148873799Y-98635307D01*
X148874699Y-98641374D01*
X148875000Y-98647500D01*
X148875000Y-99372500D01*
X148874699Y-99378626D01*
X148873799Y-99384693D01*
X148872309Y-99390643D01*
X148870242Y-99396418D01*
X148867620Y-99401962D01*
X148864467Y-99407223D01*
X148860813Y-99412150D01*
X148856694Y-99416694D01*
X148852150Y-99420813D01*
X148847223Y-99424467D01*
X148841962Y-99427620D01*
X148836418Y-99430242D01*
X148830643Y-99432309D01*
X148824693Y-99433799D01*
X148818626Y-99434699D01*
X148812500Y-99435000D01*
X148687500Y-99435000D01*
X148681374Y-99434699D01*
X148675307Y-99433799D01*
X148669357Y-99432309D01*
X148663582Y-99430242D01*
X148658038Y-99427620D01*
X148652777Y-99424467D01*
X148647850Y-99420813D01*
X148643306Y-99416694D01*
X148639187Y-99412150D01*
X148635533Y-99407223D01*
X148632380Y-99401962D01*
X148629758Y-99396418D01*
X148627691Y-99390643D01*
X148626201Y-99384693D01*
X148625301Y-99378626D01*
X148625000Y-99372500D01*
X148625000Y-98647500D01*
X148625301Y-98641374D01*
X148626201Y-98635307D01*
X148627691Y-98629357D01*
X148629758Y-98623582D01*
X148632380Y-98618038D01*
X148635533Y-98612777D01*
X148639187Y-98607850D01*
X148643306Y-98603306D01*
X148647850Y-98599187D01*
X148652777Y-98595533D01*
X148658038Y-98592380D01*
X148663582Y-98589758D01*
X148669357Y-98587691D01*
X148675307Y-98586201D01*
X148681374Y-98585301D01*
X148687500Y-98585000D01*
X148812500Y-98585000D01*
X148818626Y-98585301D01*
X148818626Y-98585301D01*
G37*
D12*
X148750000Y-99010000D03*
D10*
G36*
X149318626Y-98585301D02*
X149324693Y-98586201D01*
X149330643Y-98587691D01*
X149336418Y-98589758D01*
X149341962Y-98592380D01*
X149347223Y-98595533D01*
X149352150Y-98599187D01*
X149356694Y-98603306D01*
X149360813Y-98607850D01*
X149364467Y-98612777D01*
X149367620Y-98618038D01*
X149370242Y-98623582D01*
X149372309Y-98629357D01*
X149373799Y-98635307D01*
X149374699Y-98641374D01*
X149375000Y-98647500D01*
X149375000Y-99372500D01*
X149374699Y-99378626D01*
X149373799Y-99384693D01*
X149372309Y-99390643D01*
X149370242Y-99396418D01*
X149367620Y-99401962D01*
X149364467Y-99407223D01*
X149360813Y-99412150D01*
X149356694Y-99416694D01*
X149352150Y-99420813D01*
X149347223Y-99424467D01*
X149341962Y-99427620D01*
X149336418Y-99430242D01*
X149330643Y-99432309D01*
X149324693Y-99433799D01*
X149318626Y-99434699D01*
X149312500Y-99435000D01*
X149187500Y-99435000D01*
X149181374Y-99434699D01*
X149175307Y-99433799D01*
X149169357Y-99432309D01*
X149163582Y-99430242D01*
X149158038Y-99427620D01*
X149152777Y-99424467D01*
X149147850Y-99420813D01*
X149143306Y-99416694D01*
X149139187Y-99412150D01*
X149135533Y-99407223D01*
X149132380Y-99401962D01*
X149129758Y-99396418D01*
X149127691Y-99390643D01*
X149126201Y-99384693D01*
X149125301Y-99378626D01*
X149125000Y-99372500D01*
X149125000Y-98647500D01*
X149125301Y-98641374D01*
X149126201Y-98635307D01*
X149127691Y-98629357D01*
X149129758Y-98623582D01*
X149132380Y-98618038D01*
X149135533Y-98612777D01*
X149139187Y-98607850D01*
X149143306Y-98603306D01*
X149147850Y-98599187D01*
X149152777Y-98595533D01*
X149158038Y-98592380D01*
X149163582Y-98589758D01*
X149169357Y-98587691D01*
X149175307Y-98586201D01*
X149181374Y-98585301D01*
X149187500Y-98585000D01*
X149312500Y-98585000D01*
X149318626Y-98585301D01*
X149318626Y-98585301D01*
G37*
D12*
X149250000Y-99010000D03*
D10*
G36*
X149818626Y-98585301D02*
X149824693Y-98586201D01*
X149830643Y-98587691D01*
X149836418Y-98589758D01*
X149841962Y-98592380D01*
X149847223Y-98595533D01*
X149852150Y-98599187D01*
X149856694Y-98603306D01*
X149860813Y-98607850D01*
X149864467Y-98612777D01*
X149867620Y-98618038D01*
X149870242Y-98623582D01*
X149872309Y-98629357D01*
X149873799Y-98635307D01*
X149874699Y-98641374D01*
X149875000Y-98647500D01*
X149875000Y-99372500D01*
X149874699Y-99378626D01*
X149873799Y-99384693D01*
X149872309Y-99390643D01*
X149870242Y-99396418D01*
X149867620Y-99401962D01*
X149864467Y-99407223D01*
X149860813Y-99412150D01*
X149856694Y-99416694D01*
X149852150Y-99420813D01*
X149847223Y-99424467D01*
X149841962Y-99427620D01*
X149836418Y-99430242D01*
X149830643Y-99432309D01*
X149824693Y-99433799D01*
X149818626Y-99434699D01*
X149812500Y-99435000D01*
X149687500Y-99435000D01*
X149681374Y-99434699D01*
X149675307Y-99433799D01*
X149669357Y-99432309D01*
X149663582Y-99430242D01*
X149658038Y-99427620D01*
X149652777Y-99424467D01*
X149647850Y-99420813D01*
X149643306Y-99416694D01*
X149639187Y-99412150D01*
X149635533Y-99407223D01*
X149632380Y-99401962D01*
X149629758Y-99396418D01*
X149627691Y-99390643D01*
X149626201Y-99384693D01*
X149625301Y-99378626D01*
X149625000Y-99372500D01*
X149625000Y-98647500D01*
X149625301Y-98641374D01*
X149626201Y-98635307D01*
X149627691Y-98629357D01*
X149629758Y-98623582D01*
X149632380Y-98618038D01*
X149635533Y-98612777D01*
X149639187Y-98607850D01*
X149643306Y-98603306D01*
X149647850Y-98599187D01*
X149652777Y-98595533D01*
X149658038Y-98592380D01*
X149663582Y-98589758D01*
X149669357Y-98587691D01*
X149675307Y-98586201D01*
X149681374Y-98585301D01*
X149687500Y-98585000D01*
X149812500Y-98585000D01*
X149818626Y-98585301D01*
X149818626Y-98585301D01*
G37*
D12*
X149750000Y-99010000D03*
D10*
G36*
X150318626Y-98585301D02*
X150324693Y-98586201D01*
X150330643Y-98587691D01*
X150336418Y-98589758D01*
X150341962Y-98592380D01*
X150347223Y-98595533D01*
X150352150Y-98599187D01*
X150356694Y-98603306D01*
X150360813Y-98607850D01*
X150364467Y-98612777D01*
X150367620Y-98618038D01*
X150370242Y-98623582D01*
X150372309Y-98629357D01*
X150373799Y-98635307D01*
X150374699Y-98641374D01*
X150375000Y-98647500D01*
X150375000Y-99372500D01*
X150374699Y-99378626D01*
X150373799Y-99384693D01*
X150372309Y-99390643D01*
X150370242Y-99396418D01*
X150367620Y-99401962D01*
X150364467Y-99407223D01*
X150360813Y-99412150D01*
X150356694Y-99416694D01*
X150352150Y-99420813D01*
X150347223Y-99424467D01*
X150341962Y-99427620D01*
X150336418Y-99430242D01*
X150330643Y-99432309D01*
X150324693Y-99433799D01*
X150318626Y-99434699D01*
X150312500Y-99435000D01*
X150187500Y-99435000D01*
X150181374Y-99434699D01*
X150175307Y-99433799D01*
X150169357Y-99432309D01*
X150163582Y-99430242D01*
X150158038Y-99427620D01*
X150152777Y-99424467D01*
X150147850Y-99420813D01*
X150143306Y-99416694D01*
X150139187Y-99412150D01*
X150135533Y-99407223D01*
X150132380Y-99401962D01*
X150129758Y-99396418D01*
X150127691Y-99390643D01*
X150126201Y-99384693D01*
X150125301Y-99378626D01*
X150125000Y-99372500D01*
X150125000Y-98647500D01*
X150125301Y-98641374D01*
X150126201Y-98635307D01*
X150127691Y-98629357D01*
X150129758Y-98623582D01*
X150132380Y-98618038D01*
X150135533Y-98612777D01*
X150139187Y-98607850D01*
X150143306Y-98603306D01*
X150147850Y-98599187D01*
X150152777Y-98595533D01*
X150158038Y-98592380D01*
X150163582Y-98589758D01*
X150169357Y-98587691D01*
X150175307Y-98586201D01*
X150181374Y-98585301D01*
X150187500Y-98585000D01*
X150312500Y-98585000D01*
X150318626Y-98585301D01*
X150318626Y-98585301D01*
G37*
D12*
X150250000Y-99010000D03*
D10*
G36*
X150818626Y-98585301D02*
X150824693Y-98586201D01*
X150830643Y-98587691D01*
X150836418Y-98589758D01*
X150841962Y-98592380D01*
X150847223Y-98595533D01*
X150852150Y-98599187D01*
X150856694Y-98603306D01*
X150860813Y-98607850D01*
X150864467Y-98612777D01*
X150867620Y-98618038D01*
X150870242Y-98623582D01*
X150872309Y-98629357D01*
X150873799Y-98635307D01*
X150874699Y-98641374D01*
X150875000Y-98647500D01*
X150875000Y-99372500D01*
X150874699Y-99378626D01*
X150873799Y-99384693D01*
X150872309Y-99390643D01*
X150870242Y-99396418D01*
X150867620Y-99401962D01*
X150864467Y-99407223D01*
X150860813Y-99412150D01*
X150856694Y-99416694D01*
X150852150Y-99420813D01*
X150847223Y-99424467D01*
X150841962Y-99427620D01*
X150836418Y-99430242D01*
X150830643Y-99432309D01*
X150824693Y-99433799D01*
X150818626Y-99434699D01*
X150812500Y-99435000D01*
X150687500Y-99435000D01*
X150681374Y-99434699D01*
X150675307Y-99433799D01*
X150669357Y-99432309D01*
X150663582Y-99430242D01*
X150658038Y-99427620D01*
X150652777Y-99424467D01*
X150647850Y-99420813D01*
X150643306Y-99416694D01*
X150639187Y-99412150D01*
X150635533Y-99407223D01*
X150632380Y-99401962D01*
X150629758Y-99396418D01*
X150627691Y-99390643D01*
X150626201Y-99384693D01*
X150625301Y-99378626D01*
X150625000Y-99372500D01*
X150625000Y-98647500D01*
X150625301Y-98641374D01*
X150626201Y-98635307D01*
X150627691Y-98629357D01*
X150629758Y-98623582D01*
X150632380Y-98618038D01*
X150635533Y-98612777D01*
X150639187Y-98607850D01*
X150643306Y-98603306D01*
X150647850Y-98599187D01*
X150652777Y-98595533D01*
X150658038Y-98592380D01*
X150663582Y-98589758D01*
X150669357Y-98587691D01*
X150675307Y-98586201D01*
X150681374Y-98585301D01*
X150687500Y-98585000D01*
X150812500Y-98585000D01*
X150818626Y-98585301D01*
X150818626Y-98585301D01*
G37*
D12*
X150750000Y-99010000D03*
D10*
G36*
X151318626Y-98585301D02*
X151324693Y-98586201D01*
X151330643Y-98587691D01*
X151336418Y-98589758D01*
X151341962Y-98592380D01*
X151347223Y-98595533D01*
X151352150Y-98599187D01*
X151356694Y-98603306D01*
X151360813Y-98607850D01*
X151364467Y-98612777D01*
X151367620Y-98618038D01*
X151370242Y-98623582D01*
X151372309Y-98629357D01*
X151373799Y-98635307D01*
X151374699Y-98641374D01*
X151375000Y-98647500D01*
X151375000Y-99372500D01*
X151374699Y-99378626D01*
X151373799Y-99384693D01*
X151372309Y-99390643D01*
X151370242Y-99396418D01*
X151367620Y-99401962D01*
X151364467Y-99407223D01*
X151360813Y-99412150D01*
X151356694Y-99416694D01*
X151352150Y-99420813D01*
X151347223Y-99424467D01*
X151341962Y-99427620D01*
X151336418Y-99430242D01*
X151330643Y-99432309D01*
X151324693Y-99433799D01*
X151318626Y-99434699D01*
X151312500Y-99435000D01*
X151187500Y-99435000D01*
X151181374Y-99434699D01*
X151175307Y-99433799D01*
X151169357Y-99432309D01*
X151163582Y-99430242D01*
X151158038Y-99427620D01*
X151152777Y-99424467D01*
X151147850Y-99420813D01*
X151143306Y-99416694D01*
X151139187Y-99412150D01*
X151135533Y-99407223D01*
X151132380Y-99401962D01*
X151129758Y-99396418D01*
X151127691Y-99390643D01*
X151126201Y-99384693D01*
X151125301Y-99378626D01*
X151125000Y-99372500D01*
X151125000Y-98647500D01*
X151125301Y-98641374D01*
X151126201Y-98635307D01*
X151127691Y-98629357D01*
X151129758Y-98623582D01*
X151132380Y-98618038D01*
X151135533Y-98612777D01*
X151139187Y-98607850D01*
X151143306Y-98603306D01*
X151147850Y-98599187D01*
X151152777Y-98595533D01*
X151158038Y-98592380D01*
X151163582Y-98589758D01*
X151169357Y-98587691D01*
X151175307Y-98586201D01*
X151181374Y-98585301D01*
X151187500Y-98585000D01*
X151312500Y-98585000D01*
X151318626Y-98585301D01*
X151318626Y-98585301D01*
G37*
D12*
X151250000Y-99010000D03*
D10*
G36*
X151818626Y-98585301D02*
X151824693Y-98586201D01*
X151830643Y-98587691D01*
X151836418Y-98589758D01*
X151841962Y-98592380D01*
X151847223Y-98595533D01*
X151852150Y-98599187D01*
X151856694Y-98603306D01*
X151860813Y-98607850D01*
X151864467Y-98612777D01*
X151867620Y-98618038D01*
X151870242Y-98623582D01*
X151872309Y-98629357D01*
X151873799Y-98635307D01*
X151874699Y-98641374D01*
X151875000Y-98647500D01*
X151875000Y-99372500D01*
X151874699Y-99378626D01*
X151873799Y-99384693D01*
X151872309Y-99390643D01*
X151870242Y-99396418D01*
X151867620Y-99401962D01*
X151864467Y-99407223D01*
X151860813Y-99412150D01*
X151856694Y-99416694D01*
X151852150Y-99420813D01*
X151847223Y-99424467D01*
X151841962Y-99427620D01*
X151836418Y-99430242D01*
X151830643Y-99432309D01*
X151824693Y-99433799D01*
X151818626Y-99434699D01*
X151812500Y-99435000D01*
X151687500Y-99435000D01*
X151681374Y-99434699D01*
X151675307Y-99433799D01*
X151669357Y-99432309D01*
X151663582Y-99430242D01*
X151658038Y-99427620D01*
X151652777Y-99424467D01*
X151647850Y-99420813D01*
X151643306Y-99416694D01*
X151639187Y-99412150D01*
X151635533Y-99407223D01*
X151632380Y-99401962D01*
X151629758Y-99396418D01*
X151627691Y-99390643D01*
X151626201Y-99384693D01*
X151625301Y-99378626D01*
X151625000Y-99372500D01*
X151625000Y-98647500D01*
X151625301Y-98641374D01*
X151626201Y-98635307D01*
X151627691Y-98629357D01*
X151629758Y-98623582D01*
X151632380Y-98618038D01*
X151635533Y-98612777D01*
X151639187Y-98607850D01*
X151643306Y-98603306D01*
X151647850Y-98599187D01*
X151652777Y-98595533D01*
X151658038Y-98592380D01*
X151663582Y-98589758D01*
X151669357Y-98587691D01*
X151675307Y-98586201D01*
X151681374Y-98585301D01*
X151687500Y-98585000D01*
X151812500Y-98585000D01*
X151818626Y-98585301D01*
X151818626Y-98585301D01*
G37*
D12*
X151750000Y-99010000D03*
D10*
G36*
X152318626Y-98585301D02*
X152324693Y-98586201D01*
X152330643Y-98587691D01*
X152336418Y-98589758D01*
X152341962Y-98592380D01*
X152347223Y-98595533D01*
X152352150Y-98599187D01*
X152356694Y-98603306D01*
X152360813Y-98607850D01*
X152364467Y-98612777D01*
X152367620Y-98618038D01*
X152370242Y-98623582D01*
X152372309Y-98629357D01*
X152373799Y-98635307D01*
X152374699Y-98641374D01*
X152375000Y-98647500D01*
X152375000Y-99372500D01*
X152374699Y-99378626D01*
X152373799Y-99384693D01*
X152372309Y-99390643D01*
X152370242Y-99396418D01*
X152367620Y-99401962D01*
X152364467Y-99407223D01*
X152360813Y-99412150D01*
X152356694Y-99416694D01*
X152352150Y-99420813D01*
X152347223Y-99424467D01*
X152341962Y-99427620D01*
X152336418Y-99430242D01*
X152330643Y-99432309D01*
X152324693Y-99433799D01*
X152318626Y-99434699D01*
X152312500Y-99435000D01*
X152187500Y-99435000D01*
X152181374Y-99434699D01*
X152175307Y-99433799D01*
X152169357Y-99432309D01*
X152163582Y-99430242D01*
X152158038Y-99427620D01*
X152152777Y-99424467D01*
X152147850Y-99420813D01*
X152143306Y-99416694D01*
X152139187Y-99412150D01*
X152135533Y-99407223D01*
X152132380Y-99401962D01*
X152129758Y-99396418D01*
X152127691Y-99390643D01*
X152126201Y-99384693D01*
X152125301Y-99378626D01*
X152125000Y-99372500D01*
X152125000Y-98647500D01*
X152125301Y-98641374D01*
X152126201Y-98635307D01*
X152127691Y-98629357D01*
X152129758Y-98623582D01*
X152132380Y-98618038D01*
X152135533Y-98612777D01*
X152139187Y-98607850D01*
X152143306Y-98603306D01*
X152147850Y-98599187D01*
X152152777Y-98595533D01*
X152158038Y-98592380D01*
X152163582Y-98589758D01*
X152169357Y-98587691D01*
X152175307Y-98586201D01*
X152181374Y-98585301D01*
X152187500Y-98585000D01*
X152312500Y-98585000D01*
X152318626Y-98585301D01*
X152318626Y-98585301D01*
G37*
D12*
X152250000Y-99010000D03*
D10*
G36*
X152818626Y-98585301D02*
X152824693Y-98586201D01*
X152830643Y-98587691D01*
X152836418Y-98589758D01*
X152841962Y-98592380D01*
X152847223Y-98595533D01*
X152852150Y-98599187D01*
X152856694Y-98603306D01*
X152860813Y-98607850D01*
X152864467Y-98612777D01*
X152867620Y-98618038D01*
X152870242Y-98623582D01*
X152872309Y-98629357D01*
X152873799Y-98635307D01*
X152874699Y-98641374D01*
X152875000Y-98647500D01*
X152875000Y-99372500D01*
X152874699Y-99378626D01*
X152873799Y-99384693D01*
X152872309Y-99390643D01*
X152870242Y-99396418D01*
X152867620Y-99401962D01*
X152864467Y-99407223D01*
X152860813Y-99412150D01*
X152856694Y-99416694D01*
X152852150Y-99420813D01*
X152847223Y-99424467D01*
X152841962Y-99427620D01*
X152836418Y-99430242D01*
X152830643Y-99432309D01*
X152824693Y-99433799D01*
X152818626Y-99434699D01*
X152812500Y-99435000D01*
X152687500Y-99435000D01*
X152681374Y-99434699D01*
X152675307Y-99433799D01*
X152669357Y-99432309D01*
X152663582Y-99430242D01*
X152658038Y-99427620D01*
X152652777Y-99424467D01*
X152647850Y-99420813D01*
X152643306Y-99416694D01*
X152639187Y-99412150D01*
X152635533Y-99407223D01*
X152632380Y-99401962D01*
X152629758Y-99396418D01*
X152627691Y-99390643D01*
X152626201Y-99384693D01*
X152625301Y-99378626D01*
X152625000Y-99372500D01*
X152625000Y-98647500D01*
X152625301Y-98641374D01*
X152626201Y-98635307D01*
X152627691Y-98629357D01*
X152629758Y-98623582D01*
X152632380Y-98618038D01*
X152635533Y-98612777D01*
X152639187Y-98607850D01*
X152643306Y-98603306D01*
X152647850Y-98599187D01*
X152652777Y-98595533D01*
X152658038Y-98592380D01*
X152663582Y-98589758D01*
X152669357Y-98587691D01*
X152675307Y-98586201D01*
X152681374Y-98585301D01*
X152687500Y-98585000D01*
X152812500Y-98585000D01*
X152818626Y-98585301D01*
X152818626Y-98585301D01*
G37*
D12*
X152750000Y-99010000D03*
D10*
G36*
X153318626Y-98585301D02*
X153324693Y-98586201D01*
X153330643Y-98587691D01*
X153336418Y-98589758D01*
X153341962Y-98592380D01*
X153347223Y-98595533D01*
X153352150Y-98599187D01*
X153356694Y-98603306D01*
X153360813Y-98607850D01*
X153364467Y-98612777D01*
X153367620Y-98618038D01*
X153370242Y-98623582D01*
X153372309Y-98629357D01*
X153373799Y-98635307D01*
X153374699Y-98641374D01*
X153375000Y-98647500D01*
X153375000Y-99372500D01*
X153374699Y-99378626D01*
X153373799Y-99384693D01*
X153372309Y-99390643D01*
X153370242Y-99396418D01*
X153367620Y-99401962D01*
X153364467Y-99407223D01*
X153360813Y-99412150D01*
X153356694Y-99416694D01*
X153352150Y-99420813D01*
X153347223Y-99424467D01*
X153341962Y-99427620D01*
X153336418Y-99430242D01*
X153330643Y-99432309D01*
X153324693Y-99433799D01*
X153318626Y-99434699D01*
X153312500Y-99435000D01*
X153187500Y-99435000D01*
X153181374Y-99434699D01*
X153175307Y-99433799D01*
X153169357Y-99432309D01*
X153163582Y-99430242D01*
X153158038Y-99427620D01*
X153152777Y-99424467D01*
X153147850Y-99420813D01*
X153143306Y-99416694D01*
X153139187Y-99412150D01*
X153135533Y-99407223D01*
X153132380Y-99401962D01*
X153129758Y-99396418D01*
X153127691Y-99390643D01*
X153126201Y-99384693D01*
X153125301Y-99378626D01*
X153125000Y-99372500D01*
X153125000Y-98647500D01*
X153125301Y-98641374D01*
X153126201Y-98635307D01*
X153127691Y-98629357D01*
X153129758Y-98623582D01*
X153132380Y-98618038D01*
X153135533Y-98612777D01*
X153139187Y-98607850D01*
X153143306Y-98603306D01*
X153147850Y-98599187D01*
X153152777Y-98595533D01*
X153158038Y-98592380D01*
X153163582Y-98589758D01*
X153169357Y-98587691D01*
X153175307Y-98586201D01*
X153181374Y-98585301D01*
X153187500Y-98585000D01*
X153312500Y-98585000D01*
X153318626Y-98585301D01*
X153318626Y-98585301D01*
G37*
D12*
X153250000Y-99010000D03*
D10*
G36*
X153818626Y-98585301D02*
X153824693Y-98586201D01*
X153830643Y-98587691D01*
X153836418Y-98589758D01*
X153841962Y-98592380D01*
X153847223Y-98595533D01*
X153852150Y-98599187D01*
X153856694Y-98603306D01*
X153860813Y-98607850D01*
X153864467Y-98612777D01*
X153867620Y-98618038D01*
X153870242Y-98623582D01*
X153872309Y-98629357D01*
X153873799Y-98635307D01*
X153874699Y-98641374D01*
X153875000Y-98647500D01*
X153875000Y-99372500D01*
X153874699Y-99378626D01*
X153873799Y-99384693D01*
X153872309Y-99390643D01*
X153870242Y-99396418D01*
X153867620Y-99401962D01*
X153864467Y-99407223D01*
X153860813Y-99412150D01*
X153856694Y-99416694D01*
X153852150Y-99420813D01*
X153847223Y-99424467D01*
X153841962Y-99427620D01*
X153836418Y-99430242D01*
X153830643Y-99432309D01*
X153824693Y-99433799D01*
X153818626Y-99434699D01*
X153812500Y-99435000D01*
X153687500Y-99435000D01*
X153681374Y-99434699D01*
X153675307Y-99433799D01*
X153669357Y-99432309D01*
X153663582Y-99430242D01*
X153658038Y-99427620D01*
X153652777Y-99424467D01*
X153647850Y-99420813D01*
X153643306Y-99416694D01*
X153639187Y-99412150D01*
X153635533Y-99407223D01*
X153632380Y-99401962D01*
X153629758Y-99396418D01*
X153627691Y-99390643D01*
X153626201Y-99384693D01*
X153625301Y-99378626D01*
X153625000Y-99372500D01*
X153625000Y-98647500D01*
X153625301Y-98641374D01*
X153626201Y-98635307D01*
X153627691Y-98629357D01*
X153629758Y-98623582D01*
X153632380Y-98618038D01*
X153635533Y-98612777D01*
X153639187Y-98607850D01*
X153643306Y-98603306D01*
X153647850Y-98599187D01*
X153652777Y-98595533D01*
X153658038Y-98592380D01*
X153663582Y-98589758D01*
X153669357Y-98587691D01*
X153675307Y-98586201D01*
X153681374Y-98585301D01*
X153687500Y-98585000D01*
X153812500Y-98585000D01*
X153818626Y-98585301D01*
X153818626Y-98585301D01*
G37*
D12*
X153750000Y-99010000D03*
D10*
G36*
X154318626Y-98585301D02*
X154324693Y-98586201D01*
X154330643Y-98587691D01*
X154336418Y-98589758D01*
X154341962Y-98592380D01*
X154347223Y-98595533D01*
X154352150Y-98599187D01*
X154356694Y-98603306D01*
X154360813Y-98607850D01*
X154364467Y-98612777D01*
X154367620Y-98618038D01*
X154370242Y-98623582D01*
X154372309Y-98629357D01*
X154373799Y-98635307D01*
X154374699Y-98641374D01*
X154375000Y-98647500D01*
X154375000Y-99372500D01*
X154374699Y-99378626D01*
X154373799Y-99384693D01*
X154372309Y-99390643D01*
X154370242Y-99396418D01*
X154367620Y-99401962D01*
X154364467Y-99407223D01*
X154360813Y-99412150D01*
X154356694Y-99416694D01*
X154352150Y-99420813D01*
X154347223Y-99424467D01*
X154341962Y-99427620D01*
X154336418Y-99430242D01*
X154330643Y-99432309D01*
X154324693Y-99433799D01*
X154318626Y-99434699D01*
X154312500Y-99435000D01*
X154187500Y-99435000D01*
X154181374Y-99434699D01*
X154175307Y-99433799D01*
X154169357Y-99432309D01*
X154163582Y-99430242D01*
X154158038Y-99427620D01*
X154152777Y-99424467D01*
X154147850Y-99420813D01*
X154143306Y-99416694D01*
X154139187Y-99412150D01*
X154135533Y-99407223D01*
X154132380Y-99401962D01*
X154129758Y-99396418D01*
X154127691Y-99390643D01*
X154126201Y-99384693D01*
X154125301Y-99378626D01*
X154125000Y-99372500D01*
X154125000Y-98647500D01*
X154125301Y-98641374D01*
X154126201Y-98635307D01*
X154127691Y-98629357D01*
X154129758Y-98623582D01*
X154132380Y-98618038D01*
X154135533Y-98612777D01*
X154139187Y-98607850D01*
X154143306Y-98603306D01*
X154147850Y-98599187D01*
X154152777Y-98595533D01*
X154158038Y-98592380D01*
X154163582Y-98589758D01*
X154169357Y-98587691D01*
X154175307Y-98586201D01*
X154181374Y-98585301D01*
X154187500Y-98585000D01*
X154312500Y-98585000D01*
X154318626Y-98585301D01*
X154318626Y-98585301D01*
G37*
D12*
X154250000Y-99010000D03*
D10*
G36*
X154818626Y-98585301D02*
X154824693Y-98586201D01*
X154830643Y-98587691D01*
X154836418Y-98589758D01*
X154841962Y-98592380D01*
X154847223Y-98595533D01*
X154852150Y-98599187D01*
X154856694Y-98603306D01*
X154860813Y-98607850D01*
X154864467Y-98612777D01*
X154867620Y-98618038D01*
X154870242Y-98623582D01*
X154872309Y-98629357D01*
X154873799Y-98635307D01*
X154874699Y-98641374D01*
X154875000Y-98647500D01*
X154875000Y-99372500D01*
X154874699Y-99378626D01*
X154873799Y-99384693D01*
X154872309Y-99390643D01*
X154870242Y-99396418D01*
X154867620Y-99401962D01*
X154864467Y-99407223D01*
X154860813Y-99412150D01*
X154856694Y-99416694D01*
X154852150Y-99420813D01*
X154847223Y-99424467D01*
X154841962Y-99427620D01*
X154836418Y-99430242D01*
X154830643Y-99432309D01*
X154824693Y-99433799D01*
X154818626Y-99434699D01*
X154812500Y-99435000D01*
X154687500Y-99435000D01*
X154681374Y-99434699D01*
X154675307Y-99433799D01*
X154669357Y-99432309D01*
X154663582Y-99430242D01*
X154658038Y-99427620D01*
X154652777Y-99424467D01*
X154647850Y-99420813D01*
X154643306Y-99416694D01*
X154639187Y-99412150D01*
X154635533Y-99407223D01*
X154632380Y-99401962D01*
X154629758Y-99396418D01*
X154627691Y-99390643D01*
X154626201Y-99384693D01*
X154625301Y-99378626D01*
X154625000Y-99372500D01*
X154625000Y-98647500D01*
X154625301Y-98641374D01*
X154626201Y-98635307D01*
X154627691Y-98629357D01*
X154629758Y-98623582D01*
X154632380Y-98618038D01*
X154635533Y-98612777D01*
X154639187Y-98607850D01*
X154643306Y-98603306D01*
X154647850Y-98599187D01*
X154652777Y-98595533D01*
X154658038Y-98592380D01*
X154663582Y-98589758D01*
X154669357Y-98587691D01*
X154675307Y-98586201D01*
X154681374Y-98585301D01*
X154687500Y-98585000D01*
X154812500Y-98585000D01*
X154818626Y-98585301D01*
X154818626Y-98585301D01*
G37*
D12*
X154750000Y-99010000D03*
D10*
G36*
X155318626Y-98585301D02*
X155324693Y-98586201D01*
X155330643Y-98587691D01*
X155336418Y-98589758D01*
X155341962Y-98592380D01*
X155347223Y-98595533D01*
X155352150Y-98599187D01*
X155356694Y-98603306D01*
X155360813Y-98607850D01*
X155364467Y-98612777D01*
X155367620Y-98618038D01*
X155370242Y-98623582D01*
X155372309Y-98629357D01*
X155373799Y-98635307D01*
X155374699Y-98641374D01*
X155375000Y-98647500D01*
X155375000Y-99372500D01*
X155374699Y-99378626D01*
X155373799Y-99384693D01*
X155372309Y-99390643D01*
X155370242Y-99396418D01*
X155367620Y-99401962D01*
X155364467Y-99407223D01*
X155360813Y-99412150D01*
X155356694Y-99416694D01*
X155352150Y-99420813D01*
X155347223Y-99424467D01*
X155341962Y-99427620D01*
X155336418Y-99430242D01*
X155330643Y-99432309D01*
X155324693Y-99433799D01*
X155318626Y-99434699D01*
X155312500Y-99435000D01*
X155187500Y-99435000D01*
X155181374Y-99434699D01*
X155175307Y-99433799D01*
X155169357Y-99432309D01*
X155163582Y-99430242D01*
X155158038Y-99427620D01*
X155152777Y-99424467D01*
X155147850Y-99420813D01*
X155143306Y-99416694D01*
X155139187Y-99412150D01*
X155135533Y-99407223D01*
X155132380Y-99401962D01*
X155129758Y-99396418D01*
X155127691Y-99390643D01*
X155126201Y-99384693D01*
X155125301Y-99378626D01*
X155125000Y-99372500D01*
X155125000Y-98647500D01*
X155125301Y-98641374D01*
X155126201Y-98635307D01*
X155127691Y-98629357D01*
X155129758Y-98623582D01*
X155132380Y-98618038D01*
X155135533Y-98612777D01*
X155139187Y-98607850D01*
X155143306Y-98603306D01*
X155147850Y-98599187D01*
X155152777Y-98595533D01*
X155158038Y-98592380D01*
X155163582Y-98589758D01*
X155169357Y-98587691D01*
X155175307Y-98586201D01*
X155181374Y-98585301D01*
X155187500Y-98585000D01*
X155312500Y-98585000D01*
X155318626Y-98585301D01*
X155318626Y-98585301D01*
G37*
D12*
X155250000Y-99010000D03*
D10*
G36*
X155818626Y-98585301D02*
X155824693Y-98586201D01*
X155830643Y-98587691D01*
X155836418Y-98589758D01*
X155841962Y-98592380D01*
X155847223Y-98595533D01*
X155852150Y-98599187D01*
X155856694Y-98603306D01*
X155860813Y-98607850D01*
X155864467Y-98612777D01*
X155867620Y-98618038D01*
X155870242Y-98623582D01*
X155872309Y-98629357D01*
X155873799Y-98635307D01*
X155874699Y-98641374D01*
X155875000Y-98647500D01*
X155875000Y-99372500D01*
X155874699Y-99378626D01*
X155873799Y-99384693D01*
X155872309Y-99390643D01*
X155870242Y-99396418D01*
X155867620Y-99401962D01*
X155864467Y-99407223D01*
X155860813Y-99412150D01*
X155856694Y-99416694D01*
X155852150Y-99420813D01*
X155847223Y-99424467D01*
X155841962Y-99427620D01*
X155836418Y-99430242D01*
X155830643Y-99432309D01*
X155824693Y-99433799D01*
X155818626Y-99434699D01*
X155812500Y-99435000D01*
X155687500Y-99435000D01*
X155681374Y-99434699D01*
X155675307Y-99433799D01*
X155669357Y-99432309D01*
X155663582Y-99430242D01*
X155658038Y-99427620D01*
X155652777Y-99424467D01*
X155647850Y-99420813D01*
X155643306Y-99416694D01*
X155639187Y-99412150D01*
X155635533Y-99407223D01*
X155632380Y-99401962D01*
X155629758Y-99396418D01*
X155627691Y-99390643D01*
X155626201Y-99384693D01*
X155625301Y-99378626D01*
X155625000Y-99372500D01*
X155625000Y-98647500D01*
X155625301Y-98641374D01*
X155626201Y-98635307D01*
X155627691Y-98629357D01*
X155629758Y-98623582D01*
X155632380Y-98618038D01*
X155635533Y-98612777D01*
X155639187Y-98607850D01*
X155643306Y-98603306D01*
X155647850Y-98599187D01*
X155652777Y-98595533D01*
X155658038Y-98592380D01*
X155663582Y-98589758D01*
X155669357Y-98587691D01*
X155675307Y-98586201D01*
X155681374Y-98585301D01*
X155687500Y-98585000D01*
X155812500Y-98585000D01*
X155818626Y-98585301D01*
X155818626Y-98585301D01*
G37*
D12*
X155750000Y-99010000D03*
D10*
G36*
X156818626Y-98185301D02*
X156824693Y-98186201D01*
X156830643Y-98187691D01*
X156836418Y-98189758D01*
X156841962Y-98192380D01*
X156847223Y-98195533D01*
X156852150Y-98199187D01*
X156856694Y-98203306D01*
X156860813Y-98207850D01*
X156864467Y-98212777D01*
X156867620Y-98218038D01*
X156870242Y-98223582D01*
X156872309Y-98229357D01*
X156873799Y-98235307D01*
X156874699Y-98241374D01*
X156875000Y-98247500D01*
X156875000Y-98372500D01*
X156874699Y-98378626D01*
X156873799Y-98384693D01*
X156872309Y-98390643D01*
X156870242Y-98396418D01*
X156867620Y-98401962D01*
X156864467Y-98407223D01*
X156860813Y-98412150D01*
X156856694Y-98416694D01*
X156852150Y-98420813D01*
X156847223Y-98424467D01*
X156841962Y-98427620D01*
X156836418Y-98430242D01*
X156830643Y-98432309D01*
X156824693Y-98433799D01*
X156818626Y-98434699D01*
X156812500Y-98435000D01*
X156087500Y-98435000D01*
X156081374Y-98434699D01*
X156075307Y-98433799D01*
X156069357Y-98432309D01*
X156063582Y-98430242D01*
X156058038Y-98427620D01*
X156052777Y-98424467D01*
X156047850Y-98420813D01*
X156043306Y-98416694D01*
X156039187Y-98412150D01*
X156035533Y-98407223D01*
X156032380Y-98401962D01*
X156029758Y-98396418D01*
X156027691Y-98390643D01*
X156026201Y-98384693D01*
X156025301Y-98378626D01*
X156025000Y-98372500D01*
X156025000Y-98247500D01*
X156025301Y-98241374D01*
X156026201Y-98235307D01*
X156027691Y-98229357D01*
X156029758Y-98223582D01*
X156032380Y-98218038D01*
X156035533Y-98212777D01*
X156039187Y-98207850D01*
X156043306Y-98203306D01*
X156047850Y-98199187D01*
X156052777Y-98195533D01*
X156058038Y-98192380D01*
X156063582Y-98189758D01*
X156069357Y-98187691D01*
X156075307Y-98186201D01*
X156081374Y-98185301D01*
X156087500Y-98185000D01*
X156812500Y-98185000D01*
X156818626Y-98185301D01*
X156818626Y-98185301D01*
G37*
D12*
X156450000Y-98310000D03*
D10*
G36*
X156818626Y-97685301D02*
X156824693Y-97686201D01*
X156830643Y-97687691D01*
X156836418Y-97689758D01*
X156841962Y-97692380D01*
X156847223Y-97695533D01*
X156852150Y-97699187D01*
X156856694Y-97703306D01*
X156860813Y-97707850D01*
X156864467Y-97712777D01*
X156867620Y-97718038D01*
X156870242Y-97723582D01*
X156872309Y-97729357D01*
X156873799Y-97735307D01*
X156874699Y-97741374D01*
X156875000Y-97747500D01*
X156875000Y-97872500D01*
X156874699Y-97878626D01*
X156873799Y-97884693D01*
X156872309Y-97890643D01*
X156870242Y-97896418D01*
X156867620Y-97901962D01*
X156864467Y-97907223D01*
X156860813Y-97912150D01*
X156856694Y-97916694D01*
X156852150Y-97920813D01*
X156847223Y-97924467D01*
X156841962Y-97927620D01*
X156836418Y-97930242D01*
X156830643Y-97932309D01*
X156824693Y-97933799D01*
X156818626Y-97934699D01*
X156812500Y-97935000D01*
X156087500Y-97935000D01*
X156081374Y-97934699D01*
X156075307Y-97933799D01*
X156069357Y-97932309D01*
X156063582Y-97930242D01*
X156058038Y-97927620D01*
X156052777Y-97924467D01*
X156047850Y-97920813D01*
X156043306Y-97916694D01*
X156039187Y-97912150D01*
X156035533Y-97907223D01*
X156032380Y-97901962D01*
X156029758Y-97896418D01*
X156027691Y-97890643D01*
X156026201Y-97884693D01*
X156025301Y-97878626D01*
X156025000Y-97872500D01*
X156025000Y-97747500D01*
X156025301Y-97741374D01*
X156026201Y-97735307D01*
X156027691Y-97729357D01*
X156029758Y-97723582D01*
X156032380Y-97718038D01*
X156035533Y-97712777D01*
X156039187Y-97707850D01*
X156043306Y-97703306D01*
X156047850Y-97699187D01*
X156052777Y-97695533D01*
X156058038Y-97692380D01*
X156063582Y-97689758D01*
X156069357Y-97687691D01*
X156075307Y-97686201D01*
X156081374Y-97685301D01*
X156087500Y-97685000D01*
X156812500Y-97685000D01*
X156818626Y-97685301D01*
X156818626Y-97685301D01*
G37*
D12*
X156450000Y-97810000D03*
D10*
G36*
X156818626Y-97185301D02*
X156824693Y-97186201D01*
X156830643Y-97187691D01*
X156836418Y-97189758D01*
X156841962Y-97192380D01*
X156847223Y-97195533D01*
X156852150Y-97199187D01*
X156856694Y-97203306D01*
X156860813Y-97207850D01*
X156864467Y-97212777D01*
X156867620Y-97218038D01*
X156870242Y-97223582D01*
X156872309Y-97229357D01*
X156873799Y-97235307D01*
X156874699Y-97241374D01*
X156875000Y-97247500D01*
X156875000Y-97372500D01*
X156874699Y-97378626D01*
X156873799Y-97384693D01*
X156872309Y-97390643D01*
X156870242Y-97396418D01*
X156867620Y-97401962D01*
X156864467Y-97407223D01*
X156860813Y-97412150D01*
X156856694Y-97416694D01*
X156852150Y-97420813D01*
X156847223Y-97424467D01*
X156841962Y-97427620D01*
X156836418Y-97430242D01*
X156830643Y-97432309D01*
X156824693Y-97433799D01*
X156818626Y-97434699D01*
X156812500Y-97435000D01*
X156087500Y-97435000D01*
X156081374Y-97434699D01*
X156075307Y-97433799D01*
X156069357Y-97432309D01*
X156063582Y-97430242D01*
X156058038Y-97427620D01*
X156052777Y-97424467D01*
X156047850Y-97420813D01*
X156043306Y-97416694D01*
X156039187Y-97412150D01*
X156035533Y-97407223D01*
X156032380Y-97401962D01*
X156029758Y-97396418D01*
X156027691Y-97390643D01*
X156026201Y-97384693D01*
X156025301Y-97378626D01*
X156025000Y-97372500D01*
X156025000Y-97247500D01*
X156025301Y-97241374D01*
X156026201Y-97235307D01*
X156027691Y-97229357D01*
X156029758Y-97223582D01*
X156032380Y-97218038D01*
X156035533Y-97212777D01*
X156039187Y-97207850D01*
X156043306Y-97203306D01*
X156047850Y-97199187D01*
X156052777Y-97195533D01*
X156058038Y-97192380D01*
X156063582Y-97189758D01*
X156069357Y-97187691D01*
X156075307Y-97186201D01*
X156081374Y-97185301D01*
X156087500Y-97185000D01*
X156812500Y-97185000D01*
X156818626Y-97185301D01*
X156818626Y-97185301D01*
G37*
D12*
X156450000Y-97310000D03*
D10*
G36*
X156818626Y-96685301D02*
X156824693Y-96686201D01*
X156830643Y-96687691D01*
X156836418Y-96689758D01*
X156841962Y-96692380D01*
X156847223Y-96695533D01*
X156852150Y-96699187D01*
X156856694Y-96703306D01*
X156860813Y-96707850D01*
X156864467Y-96712777D01*
X156867620Y-96718038D01*
X156870242Y-96723582D01*
X156872309Y-96729357D01*
X156873799Y-96735307D01*
X156874699Y-96741374D01*
X156875000Y-96747500D01*
X156875000Y-96872500D01*
X156874699Y-96878626D01*
X156873799Y-96884693D01*
X156872309Y-96890643D01*
X156870242Y-96896418D01*
X156867620Y-96901962D01*
X156864467Y-96907223D01*
X156860813Y-96912150D01*
X156856694Y-96916694D01*
X156852150Y-96920813D01*
X156847223Y-96924467D01*
X156841962Y-96927620D01*
X156836418Y-96930242D01*
X156830643Y-96932309D01*
X156824693Y-96933799D01*
X156818626Y-96934699D01*
X156812500Y-96935000D01*
X156087500Y-96935000D01*
X156081374Y-96934699D01*
X156075307Y-96933799D01*
X156069357Y-96932309D01*
X156063582Y-96930242D01*
X156058038Y-96927620D01*
X156052777Y-96924467D01*
X156047850Y-96920813D01*
X156043306Y-96916694D01*
X156039187Y-96912150D01*
X156035533Y-96907223D01*
X156032380Y-96901962D01*
X156029758Y-96896418D01*
X156027691Y-96890643D01*
X156026201Y-96884693D01*
X156025301Y-96878626D01*
X156025000Y-96872500D01*
X156025000Y-96747500D01*
X156025301Y-96741374D01*
X156026201Y-96735307D01*
X156027691Y-96729357D01*
X156029758Y-96723582D01*
X156032380Y-96718038D01*
X156035533Y-96712777D01*
X156039187Y-96707850D01*
X156043306Y-96703306D01*
X156047850Y-96699187D01*
X156052777Y-96695533D01*
X156058038Y-96692380D01*
X156063582Y-96689758D01*
X156069357Y-96687691D01*
X156075307Y-96686201D01*
X156081374Y-96685301D01*
X156087500Y-96685000D01*
X156812500Y-96685000D01*
X156818626Y-96685301D01*
X156818626Y-96685301D01*
G37*
D12*
X156450000Y-96810000D03*
D10*
G36*
X156818626Y-96185301D02*
X156824693Y-96186201D01*
X156830643Y-96187691D01*
X156836418Y-96189758D01*
X156841962Y-96192380D01*
X156847223Y-96195533D01*
X156852150Y-96199187D01*
X156856694Y-96203306D01*
X156860813Y-96207850D01*
X156864467Y-96212777D01*
X156867620Y-96218038D01*
X156870242Y-96223582D01*
X156872309Y-96229357D01*
X156873799Y-96235307D01*
X156874699Y-96241374D01*
X156875000Y-96247500D01*
X156875000Y-96372500D01*
X156874699Y-96378626D01*
X156873799Y-96384693D01*
X156872309Y-96390643D01*
X156870242Y-96396418D01*
X156867620Y-96401962D01*
X156864467Y-96407223D01*
X156860813Y-96412150D01*
X156856694Y-96416694D01*
X156852150Y-96420813D01*
X156847223Y-96424467D01*
X156841962Y-96427620D01*
X156836418Y-96430242D01*
X156830643Y-96432309D01*
X156824693Y-96433799D01*
X156818626Y-96434699D01*
X156812500Y-96435000D01*
X156087500Y-96435000D01*
X156081374Y-96434699D01*
X156075307Y-96433799D01*
X156069357Y-96432309D01*
X156063582Y-96430242D01*
X156058038Y-96427620D01*
X156052777Y-96424467D01*
X156047850Y-96420813D01*
X156043306Y-96416694D01*
X156039187Y-96412150D01*
X156035533Y-96407223D01*
X156032380Y-96401962D01*
X156029758Y-96396418D01*
X156027691Y-96390643D01*
X156026201Y-96384693D01*
X156025301Y-96378626D01*
X156025000Y-96372500D01*
X156025000Y-96247500D01*
X156025301Y-96241374D01*
X156026201Y-96235307D01*
X156027691Y-96229357D01*
X156029758Y-96223582D01*
X156032380Y-96218038D01*
X156035533Y-96212777D01*
X156039187Y-96207850D01*
X156043306Y-96203306D01*
X156047850Y-96199187D01*
X156052777Y-96195533D01*
X156058038Y-96192380D01*
X156063582Y-96189758D01*
X156069357Y-96187691D01*
X156075307Y-96186201D01*
X156081374Y-96185301D01*
X156087500Y-96185000D01*
X156812500Y-96185000D01*
X156818626Y-96185301D01*
X156818626Y-96185301D01*
G37*
D12*
X156450000Y-96310000D03*
D10*
G36*
X156818626Y-95685301D02*
X156824693Y-95686201D01*
X156830643Y-95687691D01*
X156836418Y-95689758D01*
X156841962Y-95692380D01*
X156847223Y-95695533D01*
X156852150Y-95699187D01*
X156856694Y-95703306D01*
X156860813Y-95707850D01*
X156864467Y-95712777D01*
X156867620Y-95718038D01*
X156870242Y-95723582D01*
X156872309Y-95729357D01*
X156873799Y-95735307D01*
X156874699Y-95741374D01*
X156875000Y-95747500D01*
X156875000Y-95872500D01*
X156874699Y-95878626D01*
X156873799Y-95884693D01*
X156872309Y-95890643D01*
X156870242Y-95896418D01*
X156867620Y-95901962D01*
X156864467Y-95907223D01*
X156860813Y-95912150D01*
X156856694Y-95916694D01*
X156852150Y-95920813D01*
X156847223Y-95924467D01*
X156841962Y-95927620D01*
X156836418Y-95930242D01*
X156830643Y-95932309D01*
X156824693Y-95933799D01*
X156818626Y-95934699D01*
X156812500Y-95935000D01*
X156087500Y-95935000D01*
X156081374Y-95934699D01*
X156075307Y-95933799D01*
X156069357Y-95932309D01*
X156063582Y-95930242D01*
X156058038Y-95927620D01*
X156052777Y-95924467D01*
X156047850Y-95920813D01*
X156043306Y-95916694D01*
X156039187Y-95912150D01*
X156035533Y-95907223D01*
X156032380Y-95901962D01*
X156029758Y-95896418D01*
X156027691Y-95890643D01*
X156026201Y-95884693D01*
X156025301Y-95878626D01*
X156025000Y-95872500D01*
X156025000Y-95747500D01*
X156025301Y-95741374D01*
X156026201Y-95735307D01*
X156027691Y-95729357D01*
X156029758Y-95723582D01*
X156032380Y-95718038D01*
X156035533Y-95712777D01*
X156039187Y-95707850D01*
X156043306Y-95703306D01*
X156047850Y-95699187D01*
X156052777Y-95695533D01*
X156058038Y-95692380D01*
X156063582Y-95689758D01*
X156069357Y-95687691D01*
X156075307Y-95686201D01*
X156081374Y-95685301D01*
X156087500Y-95685000D01*
X156812500Y-95685000D01*
X156818626Y-95685301D01*
X156818626Y-95685301D01*
G37*
D12*
X156450000Y-95810000D03*
D10*
G36*
X156818626Y-95185301D02*
X156824693Y-95186201D01*
X156830643Y-95187691D01*
X156836418Y-95189758D01*
X156841962Y-95192380D01*
X156847223Y-95195533D01*
X156852150Y-95199187D01*
X156856694Y-95203306D01*
X156860813Y-95207850D01*
X156864467Y-95212777D01*
X156867620Y-95218038D01*
X156870242Y-95223582D01*
X156872309Y-95229357D01*
X156873799Y-95235307D01*
X156874699Y-95241374D01*
X156875000Y-95247500D01*
X156875000Y-95372500D01*
X156874699Y-95378626D01*
X156873799Y-95384693D01*
X156872309Y-95390643D01*
X156870242Y-95396418D01*
X156867620Y-95401962D01*
X156864467Y-95407223D01*
X156860813Y-95412150D01*
X156856694Y-95416694D01*
X156852150Y-95420813D01*
X156847223Y-95424467D01*
X156841962Y-95427620D01*
X156836418Y-95430242D01*
X156830643Y-95432309D01*
X156824693Y-95433799D01*
X156818626Y-95434699D01*
X156812500Y-95435000D01*
X156087500Y-95435000D01*
X156081374Y-95434699D01*
X156075307Y-95433799D01*
X156069357Y-95432309D01*
X156063582Y-95430242D01*
X156058038Y-95427620D01*
X156052777Y-95424467D01*
X156047850Y-95420813D01*
X156043306Y-95416694D01*
X156039187Y-95412150D01*
X156035533Y-95407223D01*
X156032380Y-95401962D01*
X156029758Y-95396418D01*
X156027691Y-95390643D01*
X156026201Y-95384693D01*
X156025301Y-95378626D01*
X156025000Y-95372500D01*
X156025000Y-95247500D01*
X156025301Y-95241374D01*
X156026201Y-95235307D01*
X156027691Y-95229357D01*
X156029758Y-95223582D01*
X156032380Y-95218038D01*
X156035533Y-95212777D01*
X156039187Y-95207850D01*
X156043306Y-95203306D01*
X156047850Y-95199187D01*
X156052777Y-95195533D01*
X156058038Y-95192380D01*
X156063582Y-95189758D01*
X156069357Y-95187691D01*
X156075307Y-95186201D01*
X156081374Y-95185301D01*
X156087500Y-95185000D01*
X156812500Y-95185000D01*
X156818626Y-95185301D01*
X156818626Y-95185301D01*
G37*
D12*
X156450000Y-95310000D03*
D10*
G36*
X156818626Y-94685301D02*
X156824693Y-94686201D01*
X156830643Y-94687691D01*
X156836418Y-94689758D01*
X156841962Y-94692380D01*
X156847223Y-94695533D01*
X156852150Y-94699187D01*
X156856694Y-94703306D01*
X156860813Y-94707850D01*
X156864467Y-94712777D01*
X156867620Y-94718038D01*
X156870242Y-94723582D01*
X156872309Y-94729357D01*
X156873799Y-94735307D01*
X156874699Y-94741374D01*
X156875000Y-94747500D01*
X156875000Y-94872500D01*
X156874699Y-94878626D01*
X156873799Y-94884693D01*
X156872309Y-94890643D01*
X156870242Y-94896418D01*
X156867620Y-94901962D01*
X156864467Y-94907223D01*
X156860813Y-94912150D01*
X156856694Y-94916694D01*
X156852150Y-94920813D01*
X156847223Y-94924467D01*
X156841962Y-94927620D01*
X156836418Y-94930242D01*
X156830643Y-94932309D01*
X156824693Y-94933799D01*
X156818626Y-94934699D01*
X156812500Y-94935000D01*
X156087500Y-94935000D01*
X156081374Y-94934699D01*
X156075307Y-94933799D01*
X156069357Y-94932309D01*
X156063582Y-94930242D01*
X156058038Y-94927620D01*
X156052777Y-94924467D01*
X156047850Y-94920813D01*
X156043306Y-94916694D01*
X156039187Y-94912150D01*
X156035533Y-94907223D01*
X156032380Y-94901962D01*
X156029758Y-94896418D01*
X156027691Y-94890643D01*
X156026201Y-94884693D01*
X156025301Y-94878626D01*
X156025000Y-94872500D01*
X156025000Y-94747500D01*
X156025301Y-94741374D01*
X156026201Y-94735307D01*
X156027691Y-94729357D01*
X156029758Y-94723582D01*
X156032380Y-94718038D01*
X156035533Y-94712777D01*
X156039187Y-94707850D01*
X156043306Y-94703306D01*
X156047850Y-94699187D01*
X156052777Y-94695533D01*
X156058038Y-94692380D01*
X156063582Y-94689758D01*
X156069357Y-94687691D01*
X156075307Y-94686201D01*
X156081374Y-94685301D01*
X156087500Y-94685000D01*
X156812500Y-94685000D01*
X156818626Y-94685301D01*
X156818626Y-94685301D01*
G37*
D12*
X156450000Y-94810000D03*
D10*
G36*
X156818626Y-94185301D02*
X156824693Y-94186201D01*
X156830643Y-94187691D01*
X156836418Y-94189758D01*
X156841962Y-94192380D01*
X156847223Y-94195533D01*
X156852150Y-94199187D01*
X156856694Y-94203306D01*
X156860813Y-94207850D01*
X156864467Y-94212777D01*
X156867620Y-94218038D01*
X156870242Y-94223582D01*
X156872309Y-94229357D01*
X156873799Y-94235307D01*
X156874699Y-94241374D01*
X156875000Y-94247500D01*
X156875000Y-94372500D01*
X156874699Y-94378626D01*
X156873799Y-94384693D01*
X156872309Y-94390643D01*
X156870242Y-94396418D01*
X156867620Y-94401962D01*
X156864467Y-94407223D01*
X156860813Y-94412150D01*
X156856694Y-94416694D01*
X156852150Y-94420813D01*
X156847223Y-94424467D01*
X156841962Y-94427620D01*
X156836418Y-94430242D01*
X156830643Y-94432309D01*
X156824693Y-94433799D01*
X156818626Y-94434699D01*
X156812500Y-94435000D01*
X156087500Y-94435000D01*
X156081374Y-94434699D01*
X156075307Y-94433799D01*
X156069357Y-94432309D01*
X156063582Y-94430242D01*
X156058038Y-94427620D01*
X156052777Y-94424467D01*
X156047850Y-94420813D01*
X156043306Y-94416694D01*
X156039187Y-94412150D01*
X156035533Y-94407223D01*
X156032380Y-94401962D01*
X156029758Y-94396418D01*
X156027691Y-94390643D01*
X156026201Y-94384693D01*
X156025301Y-94378626D01*
X156025000Y-94372500D01*
X156025000Y-94247500D01*
X156025301Y-94241374D01*
X156026201Y-94235307D01*
X156027691Y-94229357D01*
X156029758Y-94223582D01*
X156032380Y-94218038D01*
X156035533Y-94212777D01*
X156039187Y-94207850D01*
X156043306Y-94203306D01*
X156047850Y-94199187D01*
X156052777Y-94195533D01*
X156058038Y-94192380D01*
X156063582Y-94189758D01*
X156069357Y-94187691D01*
X156075307Y-94186201D01*
X156081374Y-94185301D01*
X156087500Y-94185000D01*
X156812500Y-94185000D01*
X156818626Y-94185301D01*
X156818626Y-94185301D01*
G37*
D12*
X156450000Y-94310000D03*
D10*
G36*
X156818626Y-93685301D02*
X156824693Y-93686201D01*
X156830643Y-93687691D01*
X156836418Y-93689758D01*
X156841962Y-93692380D01*
X156847223Y-93695533D01*
X156852150Y-93699187D01*
X156856694Y-93703306D01*
X156860813Y-93707850D01*
X156864467Y-93712777D01*
X156867620Y-93718038D01*
X156870242Y-93723582D01*
X156872309Y-93729357D01*
X156873799Y-93735307D01*
X156874699Y-93741374D01*
X156875000Y-93747500D01*
X156875000Y-93872500D01*
X156874699Y-93878626D01*
X156873799Y-93884693D01*
X156872309Y-93890643D01*
X156870242Y-93896418D01*
X156867620Y-93901962D01*
X156864467Y-93907223D01*
X156860813Y-93912150D01*
X156856694Y-93916694D01*
X156852150Y-93920813D01*
X156847223Y-93924467D01*
X156841962Y-93927620D01*
X156836418Y-93930242D01*
X156830643Y-93932309D01*
X156824693Y-93933799D01*
X156818626Y-93934699D01*
X156812500Y-93935000D01*
X156087500Y-93935000D01*
X156081374Y-93934699D01*
X156075307Y-93933799D01*
X156069357Y-93932309D01*
X156063582Y-93930242D01*
X156058038Y-93927620D01*
X156052777Y-93924467D01*
X156047850Y-93920813D01*
X156043306Y-93916694D01*
X156039187Y-93912150D01*
X156035533Y-93907223D01*
X156032380Y-93901962D01*
X156029758Y-93896418D01*
X156027691Y-93890643D01*
X156026201Y-93884693D01*
X156025301Y-93878626D01*
X156025000Y-93872500D01*
X156025000Y-93747500D01*
X156025301Y-93741374D01*
X156026201Y-93735307D01*
X156027691Y-93729357D01*
X156029758Y-93723582D01*
X156032380Y-93718038D01*
X156035533Y-93712777D01*
X156039187Y-93707850D01*
X156043306Y-93703306D01*
X156047850Y-93699187D01*
X156052777Y-93695533D01*
X156058038Y-93692380D01*
X156063582Y-93689758D01*
X156069357Y-93687691D01*
X156075307Y-93686201D01*
X156081374Y-93685301D01*
X156087500Y-93685000D01*
X156812500Y-93685000D01*
X156818626Y-93685301D01*
X156818626Y-93685301D01*
G37*
D12*
X156450000Y-93810000D03*
D10*
G36*
X156818626Y-93185301D02*
X156824693Y-93186201D01*
X156830643Y-93187691D01*
X156836418Y-93189758D01*
X156841962Y-93192380D01*
X156847223Y-93195533D01*
X156852150Y-93199187D01*
X156856694Y-93203306D01*
X156860813Y-93207850D01*
X156864467Y-93212777D01*
X156867620Y-93218038D01*
X156870242Y-93223582D01*
X156872309Y-93229357D01*
X156873799Y-93235307D01*
X156874699Y-93241374D01*
X156875000Y-93247500D01*
X156875000Y-93372500D01*
X156874699Y-93378626D01*
X156873799Y-93384693D01*
X156872309Y-93390643D01*
X156870242Y-93396418D01*
X156867620Y-93401962D01*
X156864467Y-93407223D01*
X156860813Y-93412150D01*
X156856694Y-93416694D01*
X156852150Y-93420813D01*
X156847223Y-93424467D01*
X156841962Y-93427620D01*
X156836418Y-93430242D01*
X156830643Y-93432309D01*
X156824693Y-93433799D01*
X156818626Y-93434699D01*
X156812500Y-93435000D01*
X156087500Y-93435000D01*
X156081374Y-93434699D01*
X156075307Y-93433799D01*
X156069357Y-93432309D01*
X156063582Y-93430242D01*
X156058038Y-93427620D01*
X156052777Y-93424467D01*
X156047850Y-93420813D01*
X156043306Y-93416694D01*
X156039187Y-93412150D01*
X156035533Y-93407223D01*
X156032380Y-93401962D01*
X156029758Y-93396418D01*
X156027691Y-93390643D01*
X156026201Y-93384693D01*
X156025301Y-93378626D01*
X156025000Y-93372500D01*
X156025000Y-93247500D01*
X156025301Y-93241374D01*
X156026201Y-93235307D01*
X156027691Y-93229357D01*
X156029758Y-93223582D01*
X156032380Y-93218038D01*
X156035533Y-93212777D01*
X156039187Y-93207850D01*
X156043306Y-93203306D01*
X156047850Y-93199187D01*
X156052777Y-93195533D01*
X156058038Y-93192380D01*
X156063582Y-93189758D01*
X156069357Y-93187691D01*
X156075307Y-93186201D01*
X156081374Y-93185301D01*
X156087500Y-93185000D01*
X156812500Y-93185000D01*
X156818626Y-93185301D01*
X156818626Y-93185301D01*
G37*
D12*
X156450000Y-93310000D03*
D10*
G36*
X156818626Y-92685301D02*
X156824693Y-92686201D01*
X156830643Y-92687691D01*
X156836418Y-92689758D01*
X156841962Y-92692380D01*
X156847223Y-92695533D01*
X156852150Y-92699187D01*
X156856694Y-92703306D01*
X156860813Y-92707850D01*
X156864467Y-92712777D01*
X156867620Y-92718038D01*
X156870242Y-92723582D01*
X156872309Y-92729357D01*
X156873799Y-92735307D01*
X156874699Y-92741374D01*
X156875000Y-92747500D01*
X156875000Y-92872500D01*
X156874699Y-92878626D01*
X156873799Y-92884693D01*
X156872309Y-92890643D01*
X156870242Y-92896418D01*
X156867620Y-92901962D01*
X156864467Y-92907223D01*
X156860813Y-92912150D01*
X156856694Y-92916694D01*
X156852150Y-92920813D01*
X156847223Y-92924467D01*
X156841962Y-92927620D01*
X156836418Y-92930242D01*
X156830643Y-92932309D01*
X156824693Y-92933799D01*
X156818626Y-92934699D01*
X156812500Y-92935000D01*
X156087500Y-92935000D01*
X156081374Y-92934699D01*
X156075307Y-92933799D01*
X156069357Y-92932309D01*
X156063582Y-92930242D01*
X156058038Y-92927620D01*
X156052777Y-92924467D01*
X156047850Y-92920813D01*
X156043306Y-92916694D01*
X156039187Y-92912150D01*
X156035533Y-92907223D01*
X156032380Y-92901962D01*
X156029758Y-92896418D01*
X156027691Y-92890643D01*
X156026201Y-92884693D01*
X156025301Y-92878626D01*
X156025000Y-92872500D01*
X156025000Y-92747500D01*
X156025301Y-92741374D01*
X156026201Y-92735307D01*
X156027691Y-92729357D01*
X156029758Y-92723582D01*
X156032380Y-92718038D01*
X156035533Y-92712777D01*
X156039187Y-92707850D01*
X156043306Y-92703306D01*
X156047850Y-92699187D01*
X156052777Y-92695533D01*
X156058038Y-92692380D01*
X156063582Y-92689758D01*
X156069357Y-92687691D01*
X156075307Y-92686201D01*
X156081374Y-92685301D01*
X156087500Y-92685000D01*
X156812500Y-92685000D01*
X156818626Y-92685301D01*
X156818626Y-92685301D01*
G37*
D12*
X156450000Y-92810000D03*
D10*
G36*
X156818626Y-92185301D02*
X156824693Y-92186201D01*
X156830643Y-92187691D01*
X156836418Y-92189758D01*
X156841962Y-92192380D01*
X156847223Y-92195533D01*
X156852150Y-92199187D01*
X156856694Y-92203306D01*
X156860813Y-92207850D01*
X156864467Y-92212777D01*
X156867620Y-92218038D01*
X156870242Y-92223582D01*
X156872309Y-92229357D01*
X156873799Y-92235307D01*
X156874699Y-92241374D01*
X156875000Y-92247500D01*
X156875000Y-92372500D01*
X156874699Y-92378626D01*
X156873799Y-92384693D01*
X156872309Y-92390643D01*
X156870242Y-92396418D01*
X156867620Y-92401962D01*
X156864467Y-92407223D01*
X156860813Y-92412150D01*
X156856694Y-92416694D01*
X156852150Y-92420813D01*
X156847223Y-92424467D01*
X156841962Y-92427620D01*
X156836418Y-92430242D01*
X156830643Y-92432309D01*
X156824693Y-92433799D01*
X156818626Y-92434699D01*
X156812500Y-92435000D01*
X156087500Y-92435000D01*
X156081374Y-92434699D01*
X156075307Y-92433799D01*
X156069357Y-92432309D01*
X156063582Y-92430242D01*
X156058038Y-92427620D01*
X156052777Y-92424467D01*
X156047850Y-92420813D01*
X156043306Y-92416694D01*
X156039187Y-92412150D01*
X156035533Y-92407223D01*
X156032380Y-92401962D01*
X156029758Y-92396418D01*
X156027691Y-92390643D01*
X156026201Y-92384693D01*
X156025301Y-92378626D01*
X156025000Y-92372500D01*
X156025000Y-92247500D01*
X156025301Y-92241374D01*
X156026201Y-92235307D01*
X156027691Y-92229357D01*
X156029758Y-92223582D01*
X156032380Y-92218038D01*
X156035533Y-92212777D01*
X156039187Y-92207850D01*
X156043306Y-92203306D01*
X156047850Y-92199187D01*
X156052777Y-92195533D01*
X156058038Y-92192380D01*
X156063582Y-92189758D01*
X156069357Y-92187691D01*
X156075307Y-92186201D01*
X156081374Y-92185301D01*
X156087500Y-92185000D01*
X156812500Y-92185000D01*
X156818626Y-92185301D01*
X156818626Y-92185301D01*
G37*
D12*
X156450000Y-92310000D03*
D10*
G36*
X156818626Y-91685301D02*
X156824693Y-91686201D01*
X156830643Y-91687691D01*
X156836418Y-91689758D01*
X156841962Y-91692380D01*
X156847223Y-91695533D01*
X156852150Y-91699187D01*
X156856694Y-91703306D01*
X156860813Y-91707850D01*
X156864467Y-91712777D01*
X156867620Y-91718038D01*
X156870242Y-91723582D01*
X156872309Y-91729357D01*
X156873799Y-91735307D01*
X156874699Y-91741374D01*
X156875000Y-91747500D01*
X156875000Y-91872500D01*
X156874699Y-91878626D01*
X156873799Y-91884693D01*
X156872309Y-91890643D01*
X156870242Y-91896418D01*
X156867620Y-91901962D01*
X156864467Y-91907223D01*
X156860813Y-91912150D01*
X156856694Y-91916694D01*
X156852150Y-91920813D01*
X156847223Y-91924467D01*
X156841962Y-91927620D01*
X156836418Y-91930242D01*
X156830643Y-91932309D01*
X156824693Y-91933799D01*
X156818626Y-91934699D01*
X156812500Y-91935000D01*
X156087500Y-91935000D01*
X156081374Y-91934699D01*
X156075307Y-91933799D01*
X156069357Y-91932309D01*
X156063582Y-91930242D01*
X156058038Y-91927620D01*
X156052777Y-91924467D01*
X156047850Y-91920813D01*
X156043306Y-91916694D01*
X156039187Y-91912150D01*
X156035533Y-91907223D01*
X156032380Y-91901962D01*
X156029758Y-91896418D01*
X156027691Y-91890643D01*
X156026201Y-91884693D01*
X156025301Y-91878626D01*
X156025000Y-91872500D01*
X156025000Y-91747500D01*
X156025301Y-91741374D01*
X156026201Y-91735307D01*
X156027691Y-91729357D01*
X156029758Y-91723582D01*
X156032380Y-91718038D01*
X156035533Y-91712777D01*
X156039187Y-91707850D01*
X156043306Y-91703306D01*
X156047850Y-91699187D01*
X156052777Y-91695533D01*
X156058038Y-91692380D01*
X156063582Y-91689758D01*
X156069357Y-91687691D01*
X156075307Y-91686201D01*
X156081374Y-91685301D01*
X156087500Y-91685000D01*
X156812500Y-91685000D01*
X156818626Y-91685301D01*
X156818626Y-91685301D01*
G37*
D12*
X156450000Y-91810000D03*
D10*
G36*
X156818626Y-91185301D02*
X156824693Y-91186201D01*
X156830643Y-91187691D01*
X156836418Y-91189758D01*
X156841962Y-91192380D01*
X156847223Y-91195533D01*
X156852150Y-91199187D01*
X156856694Y-91203306D01*
X156860813Y-91207850D01*
X156864467Y-91212777D01*
X156867620Y-91218038D01*
X156870242Y-91223582D01*
X156872309Y-91229357D01*
X156873799Y-91235307D01*
X156874699Y-91241374D01*
X156875000Y-91247500D01*
X156875000Y-91372500D01*
X156874699Y-91378626D01*
X156873799Y-91384693D01*
X156872309Y-91390643D01*
X156870242Y-91396418D01*
X156867620Y-91401962D01*
X156864467Y-91407223D01*
X156860813Y-91412150D01*
X156856694Y-91416694D01*
X156852150Y-91420813D01*
X156847223Y-91424467D01*
X156841962Y-91427620D01*
X156836418Y-91430242D01*
X156830643Y-91432309D01*
X156824693Y-91433799D01*
X156818626Y-91434699D01*
X156812500Y-91435000D01*
X156087500Y-91435000D01*
X156081374Y-91434699D01*
X156075307Y-91433799D01*
X156069357Y-91432309D01*
X156063582Y-91430242D01*
X156058038Y-91427620D01*
X156052777Y-91424467D01*
X156047850Y-91420813D01*
X156043306Y-91416694D01*
X156039187Y-91412150D01*
X156035533Y-91407223D01*
X156032380Y-91401962D01*
X156029758Y-91396418D01*
X156027691Y-91390643D01*
X156026201Y-91384693D01*
X156025301Y-91378626D01*
X156025000Y-91372500D01*
X156025000Y-91247500D01*
X156025301Y-91241374D01*
X156026201Y-91235307D01*
X156027691Y-91229357D01*
X156029758Y-91223582D01*
X156032380Y-91218038D01*
X156035533Y-91212777D01*
X156039187Y-91207850D01*
X156043306Y-91203306D01*
X156047850Y-91199187D01*
X156052777Y-91195533D01*
X156058038Y-91192380D01*
X156063582Y-91189758D01*
X156069357Y-91187691D01*
X156075307Y-91186201D01*
X156081374Y-91185301D01*
X156087500Y-91185000D01*
X156812500Y-91185000D01*
X156818626Y-91185301D01*
X156818626Y-91185301D01*
G37*
D12*
X156450000Y-91310000D03*
D10*
G36*
X156818626Y-90685301D02*
X156824693Y-90686201D01*
X156830643Y-90687691D01*
X156836418Y-90689758D01*
X156841962Y-90692380D01*
X156847223Y-90695533D01*
X156852150Y-90699187D01*
X156856694Y-90703306D01*
X156860813Y-90707850D01*
X156864467Y-90712777D01*
X156867620Y-90718038D01*
X156870242Y-90723582D01*
X156872309Y-90729357D01*
X156873799Y-90735307D01*
X156874699Y-90741374D01*
X156875000Y-90747500D01*
X156875000Y-90872500D01*
X156874699Y-90878626D01*
X156873799Y-90884693D01*
X156872309Y-90890643D01*
X156870242Y-90896418D01*
X156867620Y-90901962D01*
X156864467Y-90907223D01*
X156860813Y-90912150D01*
X156856694Y-90916694D01*
X156852150Y-90920813D01*
X156847223Y-90924467D01*
X156841962Y-90927620D01*
X156836418Y-90930242D01*
X156830643Y-90932309D01*
X156824693Y-90933799D01*
X156818626Y-90934699D01*
X156812500Y-90935000D01*
X156087500Y-90935000D01*
X156081374Y-90934699D01*
X156075307Y-90933799D01*
X156069357Y-90932309D01*
X156063582Y-90930242D01*
X156058038Y-90927620D01*
X156052777Y-90924467D01*
X156047850Y-90920813D01*
X156043306Y-90916694D01*
X156039187Y-90912150D01*
X156035533Y-90907223D01*
X156032380Y-90901962D01*
X156029758Y-90896418D01*
X156027691Y-90890643D01*
X156026201Y-90884693D01*
X156025301Y-90878626D01*
X156025000Y-90872500D01*
X156025000Y-90747500D01*
X156025301Y-90741374D01*
X156026201Y-90735307D01*
X156027691Y-90729357D01*
X156029758Y-90723582D01*
X156032380Y-90718038D01*
X156035533Y-90712777D01*
X156039187Y-90707850D01*
X156043306Y-90703306D01*
X156047850Y-90699187D01*
X156052777Y-90695533D01*
X156058038Y-90692380D01*
X156063582Y-90689758D01*
X156069357Y-90687691D01*
X156075307Y-90686201D01*
X156081374Y-90685301D01*
X156087500Y-90685000D01*
X156812500Y-90685000D01*
X156818626Y-90685301D01*
X156818626Y-90685301D01*
G37*
D12*
X156450000Y-90810000D03*
D10*
G36*
X155818626Y-89685301D02*
X155824693Y-89686201D01*
X155830643Y-89687691D01*
X155836418Y-89689758D01*
X155841962Y-89692380D01*
X155847223Y-89695533D01*
X155852150Y-89699187D01*
X155856694Y-89703306D01*
X155860813Y-89707850D01*
X155864467Y-89712777D01*
X155867620Y-89718038D01*
X155870242Y-89723582D01*
X155872309Y-89729357D01*
X155873799Y-89735307D01*
X155874699Y-89741374D01*
X155875000Y-89747500D01*
X155875000Y-90472500D01*
X155874699Y-90478626D01*
X155873799Y-90484693D01*
X155872309Y-90490643D01*
X155870242Y-90496418D01*
X155867620Y-90501962D01*
X155864467Y-90507223D01*
X155860813Y-90512150D01*
X155856694Y-90516694D01*
X155852150Y-90520813D01*
X155847223Y-90524467D01*
X155841962Y-90527620D01*
X155836418Y-90530242D01*
X155830643Y-90532309D01*
X155824693Y-90533799D01*
X155818626Y-90534699D01*
X155812500Y-90535000D01*
X155687500Y-90535000D01*
X155681374Y-90534699D01*
X155675307Y-90533799D01*
X155669357Y-90532309D01*
X155663582Y-90530242D01*
X155658038Y-90527620D01*
X155652777Y-90524467D01*
X155647850Y-90520813D01*
X155643306Y-90516694D01*
X155639187Y-90512150D01*
X155635533Y-90507223D01*
X155632380Y-90501962D01*
X155629758Y-90496418D01*
X155627691Y-90490643D01*
X155626201Y-90484693D01*
X155625301Y-90478626D01*
X155625000Y-90472500D01*
X155625000Y-89747500D01*
X155625301Y-89741374D01*
X155626201Y-89735307D01*
X155627691Y-89729357D01*
X155629758Y-89723582D01*
X155632380Y-89718038D01*
X155635533Y-89712777D01*
X155639187Y-89707850D01*
X155643306Y-89703306D01*
X155647850Y-89699187D01*
X155652777Y-89695533D01*
X155658038Y-89692380D01*
X155663582Y-89689758D01*
X155669357Y-89687691D01*
X155675307Y-89686201D01*
X155681374Y-89685301D01*
X155687500Y-89685000D01*
X155812500Y-89685000D01*
X155818626Y-89685301D01*
X155818626Y-89685301D01*
G37*
D12*
X155750000Y-90110000D03*
D10*
G36*
X155318626Y-89685301D02*
X155324693Y-89686201D01*
X155330643Y-89687691D01*
X155336418Y-89689758D01*
X155341962Y-89692380D01*
X155347223Y-89695533D01*
X155352150Y-89699187D01*
X155356694Y-89703306D01*
X155360813Y-89707850D01*
X155364467Y-89712777D01*
X155367620Y-89718038D01*
X155370242Y-89723582D01*
X155372309Y-89729357D01*
X155373799Y-89735307D01*
X155374699Y-89741374D01*
X155375000Y-89747500D01*
X155375000Y-90472500D01*
X155374699Y-90478626D01*
X155373799Y-90484693D01*
X155372309Y-90490643D01*
X155370242Y-90496418D01*
X155367620Y-90501962D01*
X155364467Y-90507223D01*
X155360813Y-90512150D01*
X155356694Y-90516694D01*
X155352150Y-90520813D01*
X155347223Y-90524467D01*
X155341962Y-90527620D01*
X155336418Y-90530242D01*
X155330643Y-90532309D01*
X155324693Y-90533799D01*
X155318626Y-90534699D01*
X155312500Y-90535000D01*
X155187500Y-90535000D01*
X155181374Y-90534699D01*
X155175307Y-90533799D01*
X155169357Y-90532309D01*
X155163582Y-90530242D01*
X155158038Y-90527620D01*
X155152777Y-90524467D01*
X155147850Y-90520813D01*
X155143306Y-90516694D01*
X155139187Y-90512150D01*
X155135533Y-90507223D01*
X155132380Y-90501962D01*
X155129758Y-90496418D01*
X155127691Y-90490643D01*
X155126201Y-90484693D01*
X155125301Y-90478626D01*
X155125000Y-90472500D01*
X155125000Y-89747500D01*
X155125301Y-89741374D01*
X155126201Y-89735307D01*
X155127691Y-89729357D01*
X155129758Y-89723582D01*
X155132380Y-89718038D01*
X155135533Y-89712777D01*
X155139187Y-89707850D01*
X155143306Y-89703306D01*
X155147850Y-89699187D01*
X155152777Y-89695533D01*
X155158038Y-89692380D01*
X155163582Y-89689758D01*
X155169357Y-89687691D01*
X155175307Y-89686201D01*
X155181374Y-89685301D01*
X155187500Y-89685000D01*
X155312500Y-89685000D01*
X155318626Y-89685301D01*
X155318626Y-89685301D01*
G37*
D12*
X155250000Y-90110000D03*
D10*
G36*
X154818626Y-89685301D02*
X154824693Y-89686201D01*
X154830643Y-89687691D01*
X154836418Y-89689758D01*
X154841962Y-89692380D01*
X154847223Y-89695533D01*
X154852150Y-89699187D01*
X154856694Y-89703306D01*
X154860813Y-89707850D01*
X154864467Y-89712777D01*
X154867620Y-89718038D01*
X154870242Y-89723582D01*
X154872309Y-89729357D01*
X154873799Y-89735307D01*
X154874699Y-89741374D01*
X154875000Y-89747500D01*
X154875000Y-90472500D01*
X154874699Y-90478626D01*
X154873799Y-90484693D01*
X154872309Y-90490643D01*
X154870242Y-90496418D01*
X154867620Y-90501962D01*
X154864467Y-90507223D01*
X154860813Y-90512150D01*
X154856694Y-90516694D01*
X154852150Y-90520813D01*
X154847223Y-90524467D01*
X154841962Y-90527620D01*
X154836418Y-90530242D01*
X154830643Y-90532309D01*
X154824693Y-90533799D01*
X154818626Y-90534699D01*
X154812500Y-90535000D01*
X154687500Y-90535000D01*
X154681374Y-90534699D01*
X154675307Y-90533799D01*
X154669357Y-90532309D01*
X154663582Y-90530242D01*
X154658038Y-90527620D01*
X154652777Y-90524467D01*
X154647850Y-90520813D01*
X154643306Y-90516694D01*
X154639187Y-90512150D01*
X154635533Y-90507223D01*
X154632380Y-90501962D01*
X154629758Y-90496418D01*
X154627691Y-90490643D01*
X154626201Y-90484693D01*
X154625301Y-90478626D01*
X154625000Y-90472500D01*
X154625000Y-89747500D01*
X154625301Y-89741374D01*
X154626201Y-89735307D01*
X154627691Y-89729357D01*
X154629758Y-89723582D01*
X154632380Y-89718038D01*
X154635533Y-89712777D01*
X154639187Y-89707850D01*
X154643306Y-89703306D01*
X154647850Y-89699187D01*
X154652777Y-89695533D01*
X154658038Y-89692380D01*
X154663582Y-89689758D01*
X154669357Y-89687691D01*
X154675307Y-89686201D01*
X154681374Y-89685301D01*
X154687500Y-89685000D01*
X154812500Y-89685000D01*
X154818626Y-89685301D01*
X154818626Y-89685301D01*
G37*
D12*
X154750000Y-90110000D03*
D10*
G36*
X154318626Y-89685301D02*
X154324693Y-89686201D01*
X154330643Y-89687691D01*
X154336418Y-89689758D01*
X154341962Y-89692380D01*
X154347223Y-89695533D01*
X154352150Y-89699187D01*
X154356694Y-89703306D01*
X154360813Y-89707850D01*
X154364467Y-89712777D01*
X154367620Y-89718038D01*
X154370242Y-89723582D01*
X154372309Y-89729357D01*
X154373799Y-89735307D01*
X154374699Y-89741374D01*
X154375000Y-89747500D01*
X154375000Y-90472500D01*
X154374699Y-90478626D01*
X154373799Y-90484693D01*
X154372309Y-90490643D01*
X154370242Y-90496418D01*
X154367620Y-90501962D01*
X154364467Y-90507223D01*
X154360813Y-90512150D01*
X154356694Y-90516694D01*
X154352150Y-90520813D01*
X154347223Y-90524467D01*
X154341962Y-90527620D01*
X154336418Y-90530242D01*
X154330643Y-90532309D01*
X154324693Y-90533799D01*
X154318626Y-90534699D01*
X154312500Y-90535000D01*
X154187500Y-90535000D01*
X154181374Y-90534699D01*
X154175307Y-90533799D01*
X154169357Y-90532309D01*
X154163582Y-90530242D01*
X154158038Y-90527620D01*
X154152777Y-90524467D01*
X154147850Y-90520813D01*
X154143306Y-90516694D01*
X154139187Y-90512150D01*
X154135533Y-90507223D01*
X154132380Y-90501962D01*
X154129758Y-90496418D01*
X154127691Y-90490643D01*
X154126201Y-90484693D01*
X154125301Y-90478626D01*
X154125000Y-90472500D01*
X154125000Y-89747500D01*
X154125301Y-89741374D01*
X154126201Y-89735307D01*
X154127691Y-89729357D01*
X154129758Y-89723582D01*
X154132380Y-89718038D01*
X154135533Y-89712777D01*
X154139187Y-89707850D01*
X154143306Y-89703306D01*
X154147850Y-89699187D01*
X154152777Y-89695533D01*
X154158038Y-89692380D01*
X154163582Y-89689758D01*
X154169357Y-89687691D01*
X154175307Y-89686201D01*
X154181374Y-89685301D01*
X154187500Y-89685000D01*
X154312500Y-89685000D01*
X154318626Y-89685301D01*
X154318626Y-89685301D01*
G37*
D12*
X154250000Y-90110000D03*
D10*
G36*
X153818626Y-89685301D02*
X153824693Y-89686201D01*
X153830643Y-89687691D01*
X153836418Y-89689758D01*
X153841962Y-89692380D01*
X153847223Y-89695533D01*
X153852150Y-89699187D01*
X153856694Y-89703306D01*
X153860813Y-89707850D01*
X153864467Y-89712777D01*
X153867620Y-89718038D01*
X153870242Y-89723582D01*
X153872309Y-89729357D01*
X153873799Y-89735307D01*
X153874699Y-89741374D01*
X153875000Y-89747500D01*
X153875000Y-90472500D01*
X153874699Y-90478626D01*
X153873799Y-90484693D01*
X153872309Y-90490643D01*
X153870242Y-90496418D01*
X153867620Y-90501962D01*
X153864467Y-90507223D01*
X153860813Y-90512150D01*
X153856694Y-90516694D01*
X153852150Y-90520813D01*
X153847223Y-90524467D01*
X153841962Y-90527620D01*
X153836418Y-90530242D01*
X153830643Y-90532309D01*
X153824693Y-90533799D01*
X153818626Y-90534699D01*
X153812500Y-90535000D01*
X153687500Y-90535000D01*
X153681374Y-90534699D01*
X153675307Y-90533799D01*
X153669357Y-90532309D01*
X153663582Y-90530242D01*
X153658038Y-90527620D01*
X153652777Y-90524467D01*
X153647850Y-90520813D01*
X153643306Y-90516694D01*
X153639187Y-90512150D01*
X153635533Y-90507223D01*
X153632380Y-90501962D01*
X153629758Y-90496418D01*
X153627691Y-90490643D01*
X153626201Y-90484693D01*
X153625301Y-90478626D01*
X153625000Y-90472500D01*
X153625000Y-89747500D01*
X153625301Y-89741374D01*
X153626201Y-89735307D01*
X153627691Y-89729357D01*
X153629758Y-89723582D01*
X153632380Y-89718038D01*
X153635533Y-89712777D01*
X153639187Y-89707850D01*
X153643306Y-89703306D01*
X153647850Y-89699187D01*
X153652777Y-89695533D01*
X153658038Y-89692380D01*
X153663582Y-89689758D01*
X153669357Y-89687691D01*
X153675307Y-89686201D01*
X153681374Y-89685301D01*
X153687500Y-89685000D01*
X153812500Y-89685000D01*
X153818626Y-89685301D01*
X153818626Y-89685301D01*
G37*
D12*
X153750000Y-90110000D03*
D10*
G36*
X153318626Y-89685301D02*
X153324693Y-89686201D01*
X153330643Y-89687691D01*
X153336418Y-89689758D01*
X153341962Y-89692380D01*
X153347223Y-89695533D01*
X153352150Y-89699187D01*
X153356694Y-89703306D01*
X153360813Y-89707850D01*
X153364467Y-89712777D01*
X153367620Y-89718038D01*
X153370242Y-89723582D01*
X153372309Y-89729357D01*
X153373799Y-89735307D01*
X153374699Y-89741374D01*
X153375000Y-89747500D01*
X153375000Y-90472500D01*
X153374699Y-90478626D01*
X153373799Y-90484693D01*
X153372309Y-90490643D01*
X153370242Y-90496418D01*
X153367620Y-90501962D01*
X153364467Y-90507223D01*
X153360813Y-90512150D01*
X153356694Y-90516694D01*
X153352150Y-90520813D01*
X153347223Y-90524467D01*
X153341962Y-90527620D01*
X153336418Y-90530242D01*
X153330643Y-90532309D01*
X153324693Y-90533799D01*
X153318626Y-90534699D01*
X153312500Y-90535000D01*
X153187500Y-90535000D01*
X153181374Y-90534699D01*
X153175307Y-90533799D01*
X153169357Y-90532309D01*
X153163582Y-90530242D01*
X153158038Y-90527620D01*
X153152777Y-90524467D01*
X153147850Y-90520813D01*
X153143306Y-90516694D01*
X153139187Y-90512150D01*
X153135533Y-90507223D01*
X153132380Y-90501962D01*
X153129758Y-90496418D01*
X153127691Y-90490643D01*
X153126201Y-90484693D01*
X153125301Y-90478626D01*
X153125000Y-90472500D01*
X153125000Y-89747500D01*
X153125301Y-89741374D01*
X153126201Y-89735307D01*
X153127691Y-89729357D01*
X153129758Y-89723582D01*
X153132380Y-89718038D01*
X153135533Y-89712777D01*
X153139187Y-89707850D01*
X153143306Y-89703306D01*
X153147850Y-89699187D01*
X153152777Y-89695533D01*
X153158038Y-89692380D01*
X153163582Y-89689758D01*
X153169357Y-89687691D01*
X153175307Y-89686201D01*
X153181374Y-89685301D01*
X153187500Y-89685000D01*
X153312500Y-89685000D01*
X153318626Y-89685301D01*
X153318626Y-89685301D01*
G37*
D12*
X153250000Y-90110000D03*
D10*
G36*
X152818626Y-89685301D02*
X152824693Y-89686201D01*
X152830643Y-89687691D01*
X152836418Y-89689758D01*
X152841962Y-89692380D01*
X152847223Y-89695533D01*
X152852150Y-89699187D01*
X152856694Y-89703306D01*
X152860813Y-89707850D01*
X152864467Y-89712777D01*
X152867620Y-89718038D01*
X152870242Y-89723582D01*
X152872309Y-89729357D01*
X152873799Y-89735307D01*
X152874699Y-89741374D01*
X152875000Y-89747500D01*
X152875000Y-90472500D01*
X152874699Y-90478626D01*
X152873799Y-90484693D01*
X152872309Y-90490643D01*
X152870242Y-90496418D01*
X152867620Y-90501962D01*
X152864467Y-90507223D01*
X152860813Y-90512150D01*
X152856694Y-90516694D01*
X152852150Y-90520813D01*
X152847223Y-90524467D01*
X152841962Y-90527620D01*
X152836418Y-90530242D01*
X152830643Y-90532309D01*
X152824693Y-90533799D01*
X152818626Y-90534699D01*
X152812500Y-90535000D01*
X152687500Y-90535000D01*
X152681374Y-90534699D01*
X152675307Y-90533799D01*
X152669357Y-90532309D01*
X152663582Y-90530242D01*
X152658038Y-90527620D01*
X152652777Y-90524467D01*
X152647850Y-90520813D01*
X152643306Y-90516694D01*
X152639187Y-90512150D01*
X152635533Y-90507223D01*
X152632380Y-90501962D01*
X152629758Y-90496418D01*
X152627691Y-90490643D01*
X152626201Y-90484693D01*
X152625301Y-90478626D01*
X152625000Y-90472500D01*
X152625000Y-89747500D01*
X152625301Y-89741374D01*
X152626201Y-89735307D01*
X152627691Y-89729357D01*
X152629758Y-89723582D01*
X152632380Y-89718038D01*
X152635533Y-89712777D01*
X152639187Y-89707850D01*
X152643306Y-89703306D01*
X152647850Y-89699187D01*
X152652777Y-89695533D01*
X152658038Y-89692380D01*
X152663582Y-89689758D01*
X152669357Y-89687691D01*
X152675307Y-89686201D01*
X152681374Y-89685301D01*
X152687500Y-89685000D01*
X152812500Y-89685000D01*
X152818626Y-89685301D01*
X152818626Y-89685301D01*
G37*
D12*
X152750000Y-90110000D03*
D10*
G36*
X152318626Y-89685301D02*
X152324693Y-89686201D01*
X152330643Y-89687691D01*
X152336418Y-89689758D01*
X152341962Y-89692380D01*
X152347223Y-89695533D01*
X152352150Y-89699187D01*
X152356694Y-89703306D01*
X152360813Y-89707850D01*
X152364467Y-89712777D01*
X152367620Y-89718038D01*
X152370242Y-89723582D01*
X152372309Y-89729357D01*
X152373799Y-89735307D01*
X152374699Y-89741374D01*
X152375000Y-89747500D01*
X152375000Y-90472500D01*
X152374699Y-90478626D01*
X152373799Y-90484693D01*
X152372309Y-90490643D01*
X152370242Y-90496418D01*
X152367620Y-90501962D01*
X152364467Y-90507223D01*
X152360813Y-90512150D01*
X152356694Y-90516694D01*
X152352150Y-90520813D01*
X152347223Y-90524467D01*
X152341962Y-90527620D01*
X152336418Y-90530242D01*
X152330643Y-90532309D01*
X152324693Y-90533799D01*
X152318626Y-90534699D01*
X152312500Y-90535000D01*
X152187500Y-90535000D01*
X152181374Y-90534699D01*
X152175307Y-90533799D01*
X152169357Y-90532309D01*
X152163582Y-90530242D01*
X152158038Y-90527620D01*
X152152777Y-90524467D01*
X152147850Y-90520813D01*
X152143306Y-90516694D01*
X152139187Y-90512150D01*
X152135533Y-90507223D01*
X152132380Y-90501962D01*
X152129758Y-90496418D01*
X152127691Y-90490643D01*
X152126201Y-90484693D01*
X152125301Y-90478626D01*
X152125000Y-90472500D01*
X152125000Y-89747500D01*
X152125301Y-89741374D01*
X152126201Y-89735307D01*
X152127691Y-89729357D01*
X152129758Y-89723582D01*
X152132380Y-89718038D01*
X152135533Y-89712777D01*
X152139187Y-89707850D01*
X152143306Y-89703306D01*
X152147850Y-89699187D01*
X152152777Y-89695533D01*
X152158038Y-89692380D01*
X152163582Y-89689758D01*
X152169357Y-89687691D01*
X152175307Y-89686201D01*
X152181374Y-89685301D01*
X152187500Y-89685000D01*
X152312500Y-89685000D01*
X152318626Y-89685301D01*
X152318626Y-89685301D01*
G37*
D12*
X152250000Y-90110000D03*
D10*
G36*
X151818626Y-89685301D02*
X151824693Y-89686201D01*
X151830643Y-89687691D01*
X151836418Y-89689758D01*
X151841962Y-89692380D01*
X151847223Y-89695533D01*
X151852150Y-89699187D01*
X151856694Y-89703306D01*
X151860813Y-89707850D01*
X151864467Y-89712777D01*
X151867620Y-89718038D01*
X151870242Y-89723582D01*
X151872309Y-89729357D01*
X151873799Y-89735307D01*
X151874699Y-89741374D01*
X151875000Y-89747500D01*
X151875000Y-90472500D01*
X151874699Y-90478626D01*
X151873799Y-90484693D01*
X151872309Y-90490643D01*
X151870242Y-90496418D01*
X151867620Y-90501962D01*
X151864467Y-90507223D01*
X151860813Y-90512150D01*
X151856694Y-90516694D01*
X151852150Y-90520813D01*
X151847223Y-90524467D01*
X151841962Y-90527620D01*
X151836418Y-90530242D01*
X151830643Y-90532309D01*
X151824693Y-90533799D01*
X151818626Y-90534699D01*
X151812500Y-90535000D01*
X151687500Y-90535000D01*
X151681374Y-90534699D01*
X151675307Y-90533799D01*
X151669357Y-90532309D01*
X151663582Y-90530242D01*
X151658038Y-90527620D01*
X151652777Y-90524467D01*
X151647850Y-90520813D01*
X151643306Y-90516694D01*
X151639187Y-90512150D01*
X151635533Y-90507223D01*
X151632380Y-90501962D01*
X151629758Y-90496418D01*
X151627691Y-90490643D01*
X151626201Y-90484693D01*
X151625301Y-90478626D01*
X151625000Y-90472500D01*
X151625000Y-89747500D01*
X151625301Y-89741374D01*
X151626201Y-89735307D01*
X151627691Y-89729357D01*
X151629758Y-89723582D01*
X151632380Y-89718038D01*
X151635533Y-89712777D01*
X151639187Y-89707850D01*
X151643306Y-89703306D01*
X151647850Y-89699187D01*
X151652777Y-89695533D01*
X151658038Y-89692380D01*
X151663582Y-89689758D01*
X151669357Y-89687691D01*
X151675307Y-89686201D01*
X151681374Y-89685301D01*
X151687500Y-89685000D01*
X151812500Y-89685000D01*
X151818626Y-89685301D01*
X151818626Y-89685301D01*
G37*
D12*
X151750000Y-90110000D03*
D10*
G36*
X151318626Y-89685301D02*
X151324693Y-89686201D01*
X151330643Y-89687691D01*
X151336418Y-89689758D01*
X151341962Y-89692380D01*
X151347223Y-89695533D01*
X151352150Y-89699187D01*
X151356694Y-89703306D01*
X151360813Y-89707850D01*
X151364467Y-89712777D01*
X151367620Y-89718038D01*
X151370242Y-89723582D01*
X151372309Y-89729357D01*
X151373799Y-89735307D01*
X151374699Y-89741374D01*
X151375000Y-89747500D01*
X151375000Y-90472500D01*
X151374699Y-90478626D01*
X151373799Y-90484693D01*
X151372309Y-90490643D01*
X151370242Y-90496418D01*
X151367620Y-90501962D01*
X151364467Y-90507223D01*
X151360813Y-90512150D01*
X151356694Y-90516694D01*
X151352150Y-90520813D01*
X151347223Y-90524467D01*
X151341962Y-90527620D01*
X151336418Y-90530242D01*
X151330643Y-90532309D01*
X151324693Y-90533799D01*
X151318626Y-90534699D01*
X151312500Y-90535000D01*
X151187500Y-90535000D01*
X151181374Y-90534699D01*
X151175307Y-90533799D01*
X151169357Y-90532309D01*
X151163582Y-90530242D01*
X151158038Y-90527620D01*
X151152777Y-90524467D01*
X151147850Y-90520813D01*
X151143306Y-90516694D01*
X151139187Y-90512150D01*
X151135533Y-90507223D01*
X151132380Y-90501962D01*
X151129758Y-90496418D01*
X151127691Y-90490643D01*
X151126201Y-90484693D01*
X151125301Y-90478626D01*
X151125000Y-90472500D01*
X151125000Y-89747500D01*
X151125301Y-89741374D01*
X151126201Y-89735307D01*
X151127691Y-89729357D01*
X151129758Y-89723582D01*
X151132380Y-89718038D01*
X151135533Y-89712777D01*
X151139187Y-89707850D01*
X151143306Y-89703306D01*
X151147850Y-89699187D01*
X151152777Y-89695533D01*
X151158038Y-89692380D01*
X151163582Y-89689758D01*
X151169357Y-89687691D01*
X151175307Y-89686201D01*
X151181374Y-89685301D01*
X151187500Y-89685000D01*
X151312500Y-89685000D01*
X151318626Y-89685301D01*
X151318626Y-89685301D01*
G37*
D12*
X151250000Y-90110000D03*
D10*
G36*
X150818626Y-89685301D02*
X150824693Y-89686201D01*
X150830643Y-89687691D01*
X150836418Y-89689758D01*
X150841962Y-89692380D01*
X150847223Y-89695533D01*
X150852150Y-89699187D01*
X150856694Y-89703306D01*
X150860813Y-89707850D01*
X150864467Y-89712777D01*
X150867620Y-89718038D01*
X150870242Y-89723582D01*
X150872309Y-89729357D01*
X150873799Y-89735307D01*
X150874699Y-89741374D01*
X150875000Y-89747500D01*
X150875000Y-90472500D01*
X150874699Y-90478626D01*
X150873799Y-90484693D01*
X150872309Y-90490643D01*
X150870242Y-90496418D01*
X150867620Y-90501962D01*
X150864467Y-90507223D01*
X150860813Y-90512150D01*
X150856694Y-90516694D01*
X150852150Y-90520813D01*
X150847223Y-90524467D01*
X150841962Y-90527620D01*
X150836418Y-90530242D01*
X150830643Y-90532309D01*
X150824693Y-90533799D01*
X150818626Y-90534699D01*
X150812500Y-90535000D01*
X150687500Y-90535000D01*
X150681374Y-90534699D01*
X150675307Y-90533799D01*
X150669357Y-90532309D01*
X150663582Y-90530242D01*
X150658038Y-90527620D01*
X150652777Y-90524467D01*
X150647850Y-90520813D01*
X150643306Y-90516694D01*
X150639187Y-90512150D01*
X150635533Y-90507223D01*
X150632380Y-90501962D01*
X150629758Y-90496418D01*
X150627691Y-90490643D01*
X150626201Y-90484693D01*
X150625301Y-90478626D01*
X150625000Y-90472500D01*
X150625000Y-89747500D01*
X150625301Y-89741374D01*
X150626201Y-89735307D01*
X150627691Y-89729357D01*
X150629758Y-89723582D01*
X150632380Y-89718038D01*
X150635533Y-89712777D01*
X150639187Y-89707850D01*
X150643306Y-89703306D01*
X150647850Y-89699187D01*
X150652777Y-89695533D01*
X150658038Y-89692380D01*
X150663582Y-89689758D01*
X150669357Y-89687691D01*
X150675307Y-89686201D01*
X150681374Y-89685301D01*
X150687500Y-89685000D01*
X150812500Y-89685000D01*
X150818626Y-89685301D01*
X150818626Y-89685301D01*
G37*
D12*
X150750000Y-90110000D03*
D10*
G36*
X150318626Y-89685301D02*
X150324693Y-89686201D01*
X150330643Y-89687691D01*
X150336418Y-89689758D01*
X150341962Y-89692380D01*
X150347223Y-89695533D01*
X150352150Y-89699187D01*
X150356694Y-89703306D01*
X150360813Y-89707850D01*
X150364467Y-89712777D01*
X150367620Y-89718038D01*
X150370242Y-89723582D01*
X150372309Y-89729357D01*
X150373799Y-89735307D01*
X150374699Y-89741374D01*
X150375000Y-89747500D01*
X150375000Y-90472500D01*
X150374699Y-90478626D01*
X150373799Y-90484693D01*
X150372309Y-90490643D01*
X150370242Y-90496418D01*
X150367620Y-90501962D01*
X150364467Y-90507223D01*
X150360813Y-90512150D01*
X150356694Y-90516694D01*
X150352150Y-90520813D01*
X150347223Y-90524467D01*
X150341962Y-90527620D01*
X150336418Y-90530242D01*
X150330643Y-90532309D01*
X150324693Y-90533799D01*
X150318626Y-90534699D01*
X150312500Y-90535000D01*
X150187500Y-90535000D01*
X150181374Y-90534699D01*
X150175307Y-90533799D01*
X150169357Y-90532309D01*
X150163582Y-90530242D01*
X150158038Y-90527620D01*
X150152777Y-90524467D01*
X150147850Y-90520813D01*
X150143306Y-90516694D01*
X150139187Y-90512150D01*
X150135533Y-90507223D01*
X150132380Y-90501962D01*
X150129758Y-90496418D01*
X150127691Y-90490643D01*
X150126201Y-90484693D01*
X150125301Y-90478626D01*
X150125000Y-90472500D01*
X150125000Y-89747500D01*
X150125301Y-89741374D01*
X150126201Y-89735307D01*
X150127691Y-89729357D01*
X150129758Y-89723582D01*
X150132380Y-89718038D01*
X150135533Y-89712777D01*
X150139187Y-89707850D01*
X150143306Y-89703306D01*
X150147850Y-89699187D01*
X150152777Y-89695533D01*
X150158038Y-89692380D01*
X150163582Y-89689758D01*
X150169357Y-89687691D01*
X150175307Y-89686201D01*
X150181374Y-89685301D01*
X150187500Y-89685000D01*
X150312500Y-89685000D01*
X150318626Y-89685301D01*
X150318626Y-89685301D01*
G37*
D12*
X150250000Y-90110000D03*
D10*
G36*
X149818626Y-89685301D02*
X149824693Y-89686201D01*
X149830643Y-89687691D01*
X149836418Y-89689758D01*
X149841962Y-89692380D01*
X149847223Y-89695533D01*
X149852150Y-89699187D01*
X149856694Y-89703306D01*
X149860813Y-89707850D01*
X149864467Y-89712777D01*
X149867620Y-89718038D01*
X149870242Y-89723582D01*
X149872309Y-89729357D01*
X149873799Y-89735307D01*
X149874699Y-89741374D01*
X149875000Y-89747500D01*
X149875000Y-90472500D01*
X149874699Y-90478626D01*
X149873799Y-90484693D01*
X149872309Y-90490643D01*
X149870242Y-90496418D01*
X149867620Y-90501962D01*
X149864467Y-90507223D01*
X149860813Y-90512150D01*
X149856694Y-90516694D01*
X149852150Y-90520813D01*
X149847223Y-90524467D01*
X149841962Y-90527620D01*
X149836418Y-90530242D01*
X149830643Y-90532309D01*
X149824693Y-90533799D01*
X149818626Y-90534699D01*
X149812500Y-90535000D01*
X149687500Y-90535000D01*
X149681374Y-90534699D01*
X149675307Y-90533799D01*
X149669357Y-90532309D01*
X149663582Y-90530242D01*
X149658038Y-90527620D01*
X149652777Y-90524467D01*
X149647850Y-90520813D01*
X149643306Y-90516694D01*
X149639187Y-90512150D01*
X149635533Y-90507223D01*
X149632380Y-90501962D01*
X149629758Y-90496418D01*
X149627691Y-90490643D01*
X149626201Y-90484693D01*
X149625301Y-90478626D01*
X149625000Y-90472500D01*
X149625000Y-89747500D01*
X149625301Y-89741374D01*
X149626201Y-89735307D01*
X149627691Y-89729357D01*
X149629758Y-89723582D01*
X149632380Y-89718038D01*
X149635533Y-89712777D01*
X149639187Y-89707850D01*
X149643306Y-89703306D01*
X149647850Y-89699187D01*
X149652777Y-89695533D01*
X149658038Y-89692380D01*
X149663582Y-89689758D01*
X149669357Y-89687691D01*
X149675307Y-89686201D01*
X149681374Y-89685301D01*
X149687500Y-89685000D01*
X149812500Y-89685000D01*
X149818626Y-89685301D01*
X149818626Y-89685301D01*
G37*
D12*
X149750000Y-90110000D03*
D10*
G36*
X149318626Y-89685301D02*
X149324693Y-89686201D01*
X149330643Y-89687691D01*
X149336418Y-89689758D01*
X149341962Y-89692380D01*
X149347223Y-89695533D01*
X149352150Y-89699187D01*
X149356694Y-89703306D01*
X149360813Y-89707850D01*
X149364467Y-89712777D01*
X149367620Y-89718038D01*
X149370242Y-89723582D01*
X149372309Y-89729357D01*
X149373799Y-89735307D01*
X149374699Y-89741374D01*
X149375000Y-89747500D01*
X149375000Y-90472500D01*
X149374699Y-90478626D01*
X149373799Y-90484693D01*
X149372309Y-90490643D01*
X149370242Y-90496418D01*
X149367620Y-90501962D01*
X149364467Y-90507223D01*
X149360813Y-90512150D01*
X149356694Y-90516694D01*
X149352150Y-90520813D01*
X149347223Y-90524467D01*
X149341962Y-90527620D01*
X149336418Y-90530242D01*
X149330643Y-90532309D01*
X149324693Y-90533799D01*
X149318626Y-90534699D01*
X149312500Y-90535000D01*
X149187500Y-90535000D01*
X149181374Y-90534699D01*
X149175307Y-90533799D01*
X149169357Y-90532309D01*
X149163582Y-90530242D01*
X149158038Y-90527620D01*
X149152777Y-90524467D01*
X149147850Y-90520813D01*
X149143306Y-90516694D01*
X149139187Y-90512150D01*
X149135533Y-90507223D01*
X149132380Y-90501962D01*
X149129758Y-90496418D01*
X149127691Y-90490643D01*
X149126201Y-90484693D01*
X149125301Y-90478626D01*
X149125000Y-90472500D01*
X149125000Y-89747500D01*
X149125301Y-89741374D01*
X149126201Y-89735307D01*
X149127691Y-89729357D01*
X149129758Y-89723582D01*
X149132380Y-89718038D01*
X149135533Y-89712777D01*
X149139187Y-89707850D01*
X149143306Y-89703306D01*
X149147850Y-89699187D01*
X149152777Y-89695533D01*
X149158038Y-89692380D01*
X149163582Y-89689758D01*
X149169357Y-89687691D01*
X149175307Y-89686201D01*
X149181374Y-89685301D01*
X149187500Y-89685000D01*
X149312500Y-89685000D01*
X149318626Y-89685301D01*
X149318626Y-89685301D01*
G37*
D12*
X149250000Y-90110000D03*
D10*
G36*
X148818626Y-89685301D02*
X148824693Y-89686201D01*
X148830643Y-89687691D01*
X148836418Y-89689758D01*
X148841962Y-89692380D01*
X148847223Y-89695533D01*
X148852150Y-89699187D01*
X148856694Y-89703306D01*
X148860813Y-89707850D01*
X148864467Y-89712777D01*
X148867620Y-89718038D01*
X148870242Y-89723582D01*
X148872309Y-89729357D01*
X148873799Y-89735307D01*
X148874699Y-89741374D01*
X148875000Y-89747500D01*
X148875000Y-90472500D01*
X148874699Y-90478626D01*
X148873799Y-90484693D01*
X148872309Y-90490643D01*
X148870242Y-90496418D01*
X148867620Y-90501962D01*
X148864467Y-90507223D01*
X148860813Y-90512150D01*
X148856694Y-90516694D01*
X148852150Y-90520813D01*
X148847223Y-90524467D01*
X148841962Y-90527620D01*
X148836418Y-90530242D01*
X148830643Y-90532309D01*
X148824693Y-90533799D01*
X148818626Y-90534699D01*
X148812500Y-90535000D01*
X148687500Y-90535000D01*
X148681374Y-90534699D01*
X148675307Y-90533799D01*
X148669357Y-90532309D01*
X148663582Y-90530242D01*
X148658038Y-90527620D01*
X148652777Y-90524467D01*
X148647850Y-90520813D01*
X148643306Y-90516694D01*
X148639187Y-90512150D01*
X148635533Y-90507223D01*
X148632380Y-90501962D01*
X148629758Y-90496418D01*
X148627691Y-90490643D01*
X148626201Y-90484693D01*
X148625301Y-90478626D01*
X148625000Y-90472500D01*
X148625000Y-89747500D01*
X148625301Y-89741374D01*
X148626201Y-89735307D01*
X148627691Y-89729357D01*
X148629758Y-89723582D01*
X148632380Y-89718038D01*
X148635533Y-89712777D01*
X148639187Y-89707850D01*
X148643306Y-89703306D01*
X148647850Y-89699187D01*
X148652777Y-89695533D01*
X148658038Y-89692380D01*
X148663582Y-89689758D01*
X148669357Y-89687691D01*
X148675307Y-89686201D01*
X148681374Y-89685301D01*
X148687500Y-89685000D01*
X148812500Y-89685000D01*
X148818626Y-89685301D01*
X148818626Y-89685301D01*
G37*
D12*
X148750000Y-90110000D03*
D10*
G36*
X148318626Y-89685301D02*
X148324693Y-89686201D01*
X148330643Y-89687691D01*
X148336418Y-89689758D01*
X148341962Y-89692380D01*
X148347223Y-89695533D01*
X148352150Y-89699187D01*
X148356694Y-89703306D01*
X148360813Y-89707850D01*
X148364467Y-89712777D01*
X148367620Y-89718038D01*
X148370242Y-89723582D01*
X148372309Y-89729357D01*
X148373799Y-89735307D01*
X148374699Y-89741374D01*
X148375000Y-89747500D01*
X148375000Y-90472500D01*
X148374699Y-90478626D01*
X148373799Y-90484693D01*
X148372309Y-90490643D01*
X148370242Y-90496418D01*
X148367620Y-90501962D01*
X148364467Y-90507223D01*
X148360813Y-90512150D01*
X148356694Y-90516694D01*
X148352150Y-90520813D01*
X148347223Y-90524467D01*
X148341962Y-90527620D01*
X148336418Y-90530242D01*
X148330643Y-90532309D01*
X148324693Y-90533799D01*
X148318626Y-90534699D01*
X148312500Y-90535000D01*
X148187500Y-90535000D01*
X148181374Y-90534699D01*
X148175307Y-90533799D01*
X148169357Y-90532309D01*
X148163582Y-90530242D01*
X148158038Y-90527620D01*
X148152777Y-90524467D01*
X148147850Y-90520813D01*
X148143306Y-90516694D01*
X148139187Y-90512150D01*
X148135533Y-90507223D01*
X148132380Y-90501962D01*
X148129758Y-90496418D01*
X148127691Y-90490643D01*
X148126201Y-90484693D01*
X148125301Y-90478626D01*
X148125000Y-90472500D01*
X148125000Y-89747500D01*
X148125301Y-89741374D01*
X148126201Y-89735307D01*
X148127691Y-89729357D01*
X148129758Y-89723582D01*
X148132380Y-89718038D01*
X148135533Y-89712777D01*
X148139187Y-89707850D01*
X148143306Y-89703306D01*
X148147850Y-89699187D01*
X148152777Y-89695533D01*
X148158038Y-89692380D01*
X148163582Y-89689758D01*
X148169357Y-89687691D01*
X148175307Y-89686201D01*
X148181374Y-89685301D01*
X148187500Y-89685000D01*
X148312500Y-89685000D01*
X148318626Y-89685301D01*
X148318626Y-89685301D01*
G37*
D12*
X148250000Y-90110000D03*
D10*
G36*
X147918626Y-90685301D02*
X147924693Y-90686201D01*
X147930643Y-90687691D01*
X147936418Y-90689758D01*
X147941962Y-90692380D01*
X147947223Y-90695533D01*
X147952150Y-90699187D01*
X147956694Y-90703306D01*
X147960813Y-90707850D01*
X147964467Y-90712777D01*
X147967620Y-90718038D01*
X147970242Y-90723582D01*
X147972309Y-90729357D01*
X147973799Y-90735307D01*
X147974699Y-90741374D01*
X147975000Y-90747500D01*
X147975000Y-90872500D01*
X147974699Y-90878626D01*
X147973799Y-90884693D01*
X147972309Y-90890643D01*
X147970242Y-90896418D01*
X147967620Y-90901962D01*
X147964467Y-90907223D01*
X147960813Y-90912150D01*
X147956694Y-90916694D01*
X147952150Y-90920813D01*
X147947223Y-90924467D01*
X147941962Y-90927620D01*
X147936418Y-90930242D01*
X147930643Y-90932309D01*
X147924693Y-90933799D01*
X147918626Y-90934699D01*
X147912500Y-90935000D01*
X147187500Y-90935000D01*
X147181374Y-90934699D01*
X147175307Y-90933799D01*
X147169357Y-90932309D01*
X147163582Y-90930242D01*
X147158038Y-90927620D01*
X147152777Y-90924467D01*
X147147850Y-90920813D01*
X147143306Y-90916694D01*
X147139187Y-90912150D01*
X147135533Y-90907223D01*
X147132380Y-90901962D01*
X147129758Y-90896418D01*
X147127691Y-90890643D01*
X147126201Y-90884693D01*
X147125301Y-90878626D01*
X147125000Y-90872500D01*
X147125000Y-90747500D01*
X147125301Y-90741374D01*
X147126201Y-90735307D01*
X147127691Y-90729357D01*
X147129758Y-90723582D01*
X147132380Y-90718038D01*
X147135533Y-90712777D01*
X147139187Y-90707850D01*
X147143306Y-90703306D01*
X147147850Y-90699187D01*
X147152777Y-90695533D01*
X147158038Y-90692380D01*
X147163582Y-90689758D01*
X147169357Y-90687691D01*
X147175307Y-90686201D01*
X147181374Y-90685301D01*
X147187500Y-90685000D01*
X147912500Y-90685000D01*
X147918626Y-90685301D01*
X147918626Y-90685301D01*
G37*
D12*
X147550000Y-90810000D03*
D10*
G36*
X147918626Y-91185301D02*
X147924693Y-91186201D01*
X147930643Y-91187691D01*
X147936418Y-91189758D01*
X147941962Y-91192380D01*
X147947223Y-91195533D01*
X147952150Y-91199187D01*
X147956694Y-91203306D01*
X147960813Y-91207850D01*
X147964467Y-91212777D01*
X147967620Y-91218038D01*
X147970242Y-91223582D01*
X147972309Y-91229357D01*
X147973799Y-91235307D01*
X147974699Y-91241374D01*
X147975000Y-91247500D01*
X147975000Y-91372500D01*
X147974699Y-91378626D01*
X147973799Y-91384693D01*
X147972309Y-91390643D01*
X147970242Y-91396418D01*
X147967620Y-91401962D01*
X147964467Y-91407223D01*
X147960813Y-91412150D01*
X147956694Y-91416694D01*
X147952150Y-91420813D01*
X147947223Y-91424467D01*
X147941962Y-91427620D01*
X147936418Y-91430242D01*
X147930643Y-91432309D01*
X147924693Y-91433799D01*
X147918626Y-91434699D01*
X147912500Y-91435000D01*
X147187500Y-91435000D01*
X147181374Y-91434699D01*
X147175307Y-91433799D01*
X147169357Y-91432309D01*
X147163582Y-91430242D01*
X147158038Y-91427620D01*
X147152777Y-91424467D01*
X147147850Y-91420813D01*
X147143306Y-91416694D01*
X147139187Y-91412150D01*
X147135533Y-91407223D01*
X147132380Y-91401962D01*
X147129758Y-91396418D01*
X147127691Y-91390643D01*
X147126201Y-91384693D01*
X147125301Y-91378626D01*
X147125000Y-91372500D01*
X147125000Y-91247500D01*
X147125301Y-91241374D01*
X147126201Y-91235307D01*
X147127691Y-91229357D01*
X147129758Y-91223582D01*
X147132380Y-91218038D01*
X147135533Y-91212777D01*
X147139187Y-91207850D01*
X147143306Y-91203306D01*
X147147850Y-91199187D01*
X147152777Y-91195533D01*
X147158038Y-91192380D01*
X147163582Y-91189758D01*
X147169357Y-91187691D01*
X147175307Y-91186201D01*
X147181374Y-91185301D01*
X147187500Y-91185000D01*
X147912500Y-91185000D01*
X147918626Y-91185301D01*
X147918626Y-91185301D01*
G37*
D12*
X147550000Y-91310000D03*
D10*
G36*
X147918626Y-91685301D02*
X147924693Y-91686201D01*
X147930643Y-91687691D01*
X147936418Y-91689758D01*
X147941962Y-91692380D01*
X147947223Y-91695533D01*
X147952150Y-91699187D01*
X147956694Y-91703306D01*
X147960813Y-91707850D01*
X147964467Y-91712777D01*
X147967620Y-91718038D01*
X147970242Y-91723582D01*
X147972309Y-91729357D01*
X147973799Y-91735307D01*
X147974699Y-91741374D01*
X147975000Y-91747500D01*
X147975000Y-91872500D01*
X147974699Y-91878626D01*
X147973799Y-91884693D01*
X147972309Y-91890643D01*
X147970242Y-91896418D01*
X147967620Y-91901962D01*
X147964467Y-91907223D01*
X147960813Y-91912150D01*
X147956694Y-91916694D01*
X147952150Y-91920813D01*
X147947223Y-91924467D01*
X147941962Y-91927620D01*
X147936418Y-91930242D01*
X147930643Y-91932309D01*
X147924693Y-91933799D01*
X147918626Y-91934699D01*
X147912500Y-91935000D01*
X147187500Y-91935000D01*
X147181374Y-91934699D01*
X147175307Y-91933799D01*
X147169357Y-91932309D01*
X147163582Y-91930242D01*
X147158038Y-91927620D01*
X147152777Y-91924467D01*
X147147850Y-91920813D01*
X147143306Y-91916694D01*
X147139187Y-91912150D01*
X147135533Y-91907223D01*
X147132380Y-91901962D01*
X147129758Y-91896418D01*
X147127691Y-91890643D01*
X147126201Y-91884693D01*
X147125301Y-91878626D01*
X147125000Y-91872500D01*
X147125000Y-91747500D01*
X147125301Y-91741374D01*
X147126201Y-91735307D01*
X147127691Y-91729357D01*
X147129758Y-91723582D01*
X147132380Y-91718038D01*
X147135533Y-91712777D01*
X147139187Y-91707850D01*
X147143306Y-91703306D01*
X147147850Y-91699187D01*
X147152777Y-91695533D01*
X147158038Y-91692380D01*
X147163582Y-91689758D01*
X147169357Y-91687691D01*
X147175307Y-91686201D01*
X147181374Y-91685301D01*
X147187500Y-91685000D01*
X147912500Y-91685000D01*
X147918626Y-91685301D01*
X147918626Y-91685301D01*
G37*
D12*
X147550000Y-91810000D03*
D10*
G36*
X147918626Y-92185301D02*
X147924693Y-92186201D01*
X147930643Y-92187691D01*
X147936418Y-92189758D01*
X147941962Y-92192380D01*
X147947223Y-92195533D01*
X147952150Y-92199187D01*
X147956694Y-92203306D01*
X147960813Y-92207850D01*
X147964467Y-92212777D01*
X147967620Y-92218038D01*
X147970242Y-92223582D01*
X147972309Y-92229357D01*
X147973799Y-92235307D01*
X147974699Y-92241374D01*
X147975000Y-92247500D01*
X147975000Y-92372500D01*
X147974699Y-92378626D01*
X147973799Y-92384693D01*
X147972309Y-92390643D01*
X147970242Y-92396418D01*
X147967620Y-92401962D01*
X147964467Y-92407223D01*
X147960813Y-92412150D01*
X147956694Y-92416694D01*
X147952150Y-92420813D01*
X147947223Y-92424467D01*
X147941962Y-92427620D01*
X147936418Y-92430242D01*
X147930643Y-92432309D01*
X147924693Y-92433799D01*
X147918626Y-92434699D01*
X147912500Y-92435000D01*
X147187500Y-92435000D01*
X147181374Y-92434699D01*
X147175307Y-92433799D01*
X147169357Y-92432309D01*
X147163582Y-92430242D01*
X147158038Y-92427620D01*
X147152777Y-92424467D01*
X147147850Y-92420813D01*
X147143306Y-92416694D01*
X147139187Y-92412150D01*
X147135533Y-92407223D01*
X147132380Y-92401962D01*
X147129758Y-92396418D01*
X147127691Y-92390643D01*
X147126201Y-92384693D01*
X147125301Y-92378626D01*
X147125000Y-92372500D01*
X147125000Y-92247500D01*
X147125301Y-92241374D01*
X147126201Y-92235307D01*
X147127691Y-92229357D01*
X147129758Y-92223582D01*
X147132380Y-92218038D01*
X147135533Y-92212777D01*
X147139187Y-92207850D01*
X147143306Y-92203306D01*
X147147850Y-92199187D01*
X147152777Y-92195533D01*
X147158038Y-92192380D01*
X147163582Y-92189758D01*
X147169357Y-92187691D01*
X147175307Y-92186201D01*
X147181374Y-92185301D01*
X147187500Y-92185000D01*
X147912500Y-92185000D01*
X147918626Y-92185301D01*
X147918626Y-92185301D01*
G37*
D12*
X147550000Y-92310000D03*
D10*
G36*
X147918626Y-92685301D02*
X147924693Y-92686201D01*
X147930643Y-92687691D01*
X147936418Y-92689758D01*
X147941962Y-92692380D01*
X147947223Y-92695533D01*
X147952150Y-92699187D01*
X147956694Y-92703306D01*
X147960813Y-92707850D01*
X147964467Y-92712777D01*
X147967620Y-92718038D01*
X147970242Y-92723582D01*
X147972309Y-92729357D01*
X147973799Y-92735307D01*
X147974699Y-92741374D01*
X147975000Y-92747500D01*
X147975000Y-92872500D01*
X147974699Y-92878626D01*
X147973799Y-92884693D01*
X147972309Y-92890643D01*
X147970242Y-92896418D01*
X147967620Y-92901962D01*
X147964467Y-92907223D01*
X147960813Y-92912150D01*
X147956694Y-92916694D01*
X147952150Y-92920813D01*
X147947223Y-92924467D01*
X147941962Y-92927620D01*
X147936418Y-92930242D01*
X147930643Y-92932309D01*
X147924693Y-92933799D01*
X147918626Y-92934699D01*
X147912500Y-92935000D01*
X147187500Y-92935000D01*
X147181374Y-92934699D01*
X147175307Y-92933799D01*
X147169357Y-92932309D01*
X147163582Y-92930242D01*
X147158038Y-92927620D01*
X147152777Y-92924467D01*
X147147850Y-92920813D01*
X147143306Y-92916694D01*
X147139187Y-92912150D01*
X147135533Y-92907223D01*
X147132380Y-92901962D01*
X147129758Y-92896418D01*
X147127691Y-92890643D01*
X147126201Y-92884693D01*
X147125301Y-92878626D01*
X147125000Y-92872500D01*
X147125000Y-92747500D01*
X147125301Y-92741374D01*
X147126201Y-92735307D01*
X147127691Y-92729357D01*
X147129758Y-92723582D01*
X147132380Y-92718038D01*
X147135533Y-92712777D01*
X147139187Y-92707850D01*
X147143306Y-92703306D01*
X147147850Y-92699187D01*
X147152777Y-92695533D01*
X147158038Y-92692380D01*
X147163582Y-92689758D01*
X147169357Y-92687691D01*
X147175307Y-92686201D01*
X147181374Y-92685301D01*
X147187500Y-92685000D01*
X147912500Y-92685000D01*
X147918626Y-92685301D01*
X147918626Y-92685301D01*
G37*
D12*
X147550000Y-92810000D03*
D10*
G36*
X147918626Y-93185301D02*
X147924693Y-93186201D01*
X147930643Y-93187691D01*
X147936418Y-93189758D01*
X147941962Y-93192380D01*
X147947223Y-93195533D01*
X147952150Y-93199187D01*
X147956694Y-93203306D01*
X147960813Y-93207850D01*
X147964467Y-93212777D01*
X147967620Y-93218038D01*
X147970242Y-93223582D01*
X147972309Y-93229357D01*
X147973799Y-93235307D01*
X147974699Y-93241374D01*
X147975000Y-93247500D01*
X147975000Y-93372500D01*
X147974699Y-93378626D01*
X147973799Y-93384693D01*
X147972309Y-93390643D01*
X147970242Y-93396418D01*
X147967620Y-93401962D01*
X147964467Y-93407223D01*
X147960813Y-93412150D01*
X147956694Y-93416694D01*
X147952150Y-93420813D01*
X147947223Y-93424467D01*
X147941962Y-93427620D01*
X147936418Y-93430242D01*
X147930643Y-93432309D01*
X147924693Y-93433799D01*
X147918626Y-93434699D01*
X147912500Y-93435000D01*
X147187500Y-93435000D01*
X147181374Y-93434699D01*
X147175307Y-93433799D01*
X147169357Y-93432309D01*
X147163582Y-93430242D01*
X147158038Y-93427620D01*
X147152777Y-93424467D01*
X147147850Y-93420813D01*
X147143306Y-93416694D01*
X147139187Y-93412150D01*
X147135533Y-93407223D01*
X147132380Y-93401962D01*
X147129758Y-93396418D01*
X147127691Y-93390643D01*
X147126201Y-93384693D01*
X147125301Y-93378626D01*
X147125000Y-93372500D01*
X147125000Y-93247500D01*
X147125301Y-93241374D01*
X147126201Y-93235307D01*
X147127691Y-93229357D01*
X147129758Y-93223582D01*
X147132380Y-93218038D01*
X147135533Y-93212777D01*
X147139187Y-93207850D01*
X147143306Y-93203306D01*
X147147850Y-93199187D01*
X147152777Y-93195533D01*
X147158038Y-93192380D01*
X147163582Y-93189758D01*
X147169357Y-93187691D01*
X147175307Y-93186201D01*
X147181374Y-93185301D01*
X147187500Y-93185000D01*
X147912500Y-93185000D01*
X147918626Y-93185301D01*
X147918626Y-93185301D01*
G37*
D12*
X147550000Y-93310000D03*
D10*
G36*
X147918626Y-93685301D02*
X147924693Y-93686201D01*
X147930643Y-93687691D01*
X147936418Y-93689758D01*
X147941962Y-93692380D01*
X147947223Y-93695533D01*
X147952150Y-93699187D01*
X147956694Y-93703306D01*
X147960813Y-93707850D01*
X147964467Y-93712777D01*
X147967620Y-93718038D01*
X147970242Y-93723582D01*
X147972309Y-93729357D01*
X147973799Y-93735307D01*
X147974699Y-93741374D01*
X147975000Y-93747500D01*
X147975000Y-93872500D01*
X147974699Y-93878626D01*
X147973799Y-93884693D01*
X147972309Y-93890643D01*
X147970242Y-93896418D01*
X147967620Y-93901962D01*
X147964467Y-93907223D01*
X147960813Y-93912150D01*
X147956694Y-93916694D01*
X147952150Y-93920813D01*
X147947223Y-93924467D01*
X147941962Y-93927620D01*
X147936418Y-93930242D01*
X147930643Y-93932309D01*
X147924693Y-93933799D01*
X147918626Y-93934699D01*
X147912500Y-93935000D01*
X147187500Y-93935000D01*
X147181374Y-93934699D01*
X147175307Y-93933799D01*
X147169357Y-93932309D01*
X147163582Y-93930242D01*
X147158038Y-93927620D01*
X147152777Y-93924467D01*
X147147850Y-93920813D01*
X147143306Y-93916694D01*
X147139187Y-93912150D01*
X147135533Y-93907223D01*
X147132380Y-93901962D01*
X147129758Y-93896418D01*
X147127691Y-93890643D01*
X147126201Y-93884693D01*
X147125301Y-93878626D01*
X147125000Y-93872500D01*
X147125000Y-93747500D01*
X147125301Y-93741374D01*
X147126201Y-93735307D01*
X147127691Y-93729357D01*
X147129758Y-93723582D01*
X147132380Y-93718038D01*
X147135533Y-93712777D01*
X147139187Y-93707850D01*
X147143306Y-93703306D01*
X147147850Y-93699187D01*
X147152777Y-93695533D01*
X147158038Y-93692380D01*
X147163582Y-93689758D01*
X147169357Y-93687691D01*
X147175307Y-93686201D01*
X147181374Y-93685301D01*
X147187500Y-93685000D01*
X147912500Y-93685000D01*
X147918626Y-93685301D01*
X147918626Y-93685301D01*
G37*
D12*
X147550000Y-93810000D03*
D10*
G36*
X147918626Y-94185301D02*
X147924693Y-94186201D01*
X147930643Y-94187691D01*
X147936418Y-94189758D01*
X147941962Y-94192380D01*
X147947223Y-94195533D01*
X147952150Y-94199187D01*
X147956694Y-94203306D01*
X147960813Y-94207850D01*
X147964467Y-94212777D01*
X147967620Y-94218038D01*
X147970242Y-94223582D01*
X147972309Y-94229357D01*
X147973799Y-94235307D01*
X147974699Y-94241374D01*
X147975000Y-94247500D01*
X147975000Y-94372500D01*
X147974699Y-94378626D01*
X147973799Y-94384693D01*
X147972309Y-94390643D01*
X147970242Y-94396418D01*
X147967620Y-94401962D01*
X147964467Y-94407223D01*
X147960813Y-94412150D01*
X147956694Y-94416694D01*
X147952150Y-94420813D01*
X147947223Y-94424467D01*
X147941962Y-94427620D01*
X147936418Y-94430242D01*
X147930643Y-94432309D01*
X147924693Y-94433799D01*
X147918626Y-94434699D01*
X147912500Y-94435000D01*
X147187500Y-94435000D01*
X147181374Y-94434699D01*
X147175307Y-94433799D01*
X147169357Y-94432309D01*
X147163582Y-94430242D01*
X147158038Y-94427620D01*
X147152777Y-94424467D01*
X147147850Y-94420813D01*
X147143306Y-94416694D01*
X147139187Y-94412150D01*
X147135533Y-94407223D01*
X147132380Y-94401962D01*
X147129758Y-94396418D01*
X147127691Y-94390643D01*
X147126201Y-94384693D01*
X147125301Y-94378626D01*
X147125000Y-94372500D01*
X147125000Y-94247500D01*
X147125301Y-94241374D01*
X147126201Y-94235307D01*
X147127691Y-94229357D01*
X147129758Y-94223582D01*
X147132380Y-94218038D01*
X147135533Y-94212777D01*
X147139187Y-94207850D01*
X147143306Y-94203306D01*
X147147850Y-94199187D01*
X147152777Y-94195533D01*
X147158038Y-94192380D01*
X147163582Y-94189758D01*
X147169357Y-94187691D01*
X147175307Y-94186201D01*
X147181374Y-94185301D01*
X147187500Y-94185000D01*
X147912500Y-94185000D01*
X147918626Y-94185301D01*
X147918626Y-94185301D01*
G37*
D12*
X147550000Y-94310000D03*
D10*
G36*
X147918626Y-94685301D02*
X147924693Y-94686201D01*
X147930643Y-94687691D01*
X147936418Y-94689758D01*
X147941962Y-94692380D01*
X147947223Y-94695533D01*
X147952150Y-94699187D01*
X147956694Y-94703306D01*
X147960813Y-94707850D01*
X147964467Y-94712777D01*
X147967620Y-94718038D01*
X147970242Y-94723582D01*
X147972309Y-94729357D01*
X147973799Y-94735307D01*
X147974699Y-94741374D01*
X147975000Y-94747500D01*
X147975000Y-94872500D01*
X147974699Y-94878626D01*
X147973799Y-94884693D01*
X147972309Y-94890643D01*
X147970242Y-94896418D01*
X147967620Y-94901962D01*
X147964467Y-94907223D01*
X147960813Y-94912150D01*
X147956694Y-94916694D01*
X147952150Y-94920813D01*
X147947223Y-94924467D01*
X147941962Y-94927620D01*
X147936418Y-94930242D01*
X147930643Y-94932309D01*
X147924693Y-94933799D01*
X147918626Y-94934699D01*
X147912500Y-94935000D01*
X147187500Y-94935000D01*
X147181374Y-94934699D01*
X147175307Y-94933799D01*
X147169357Y-94932309D01*
X147163582Y-94930242D01*
X147158038Y-94927620D01*
X147152777Y-94924467D01*
X147147850Y-94920813D01*
X147143306Y-94916694D01*
X147139187Y-94912150D01*
X147135533Y-94907223D01*
X147132380Y-94901962D01*
X147129758Y-94896418D01*
X147127691Y-94890643D01*
X147126201Y-94884693D01*
X147125301Y-94878626D01*
X147125000Y-94872500D01*
X147125000Y-94747500D01*
X147125301Y-94741374D01*
X147126201Y-94735307D01*
X147127691Y-94729357D01*
X147129758Y-94723582D01*
X147132380Y-94718038D01*
X147135533Y-94712777D01*
X147139187Y-94707850D01*
X147143306Y-94703306D01*
X147147850Y-94699187D01*
X147152777Y-94695533D01*
X147158038Y-94692380D01*
X147163582Y-94689758D01*
X147169357Y-94687691D01*
X147175307Y-94686201D01*
X147181374Y-94685301D01*
X147187500Y-94685000D01*
X147912500Y-94685000D01*
X147918626Y-94685301D01*
X147918626Y-94685301D01*
G37*
D12*
X147550000Y-94810000D03*
D10*
G36*
X147918626Y-95185301D02*
X147924693Y-95186201D01*
X147930643Y-95187691D01*
X147936418Y-95189758D01*
X147941962Y-95192380D01*
X147947223Y-95195533D01*
X147952150Y-95199187D01*
X147956694Y-95203306D01*
X147960813Y-95207850D01*
X147964467Y-95212777D01*
X147967620Y-95218038D01*
X147970242Y-95223582D01*
X147972309Y-95229357D01*
X147973799Y-95235307D01*
X147974699Y-95241374D01*
X147975000Y-95247500D01*
X147975000Y-95372500D01*
X147974699Y-95378626D01*
X147973799Y-95384693D01*
X147972309Y-95390643D01*
X147970242Y-95396418D01*
X147967620Y-95401962D01*
X147964467Y-95407223D01*
X147960813Y-95412150D01*
X147956694Y-95416694D01*
X147952150Y-95420813D01*
X147947223Y-95424467D01*
X147941962Y-95427620D01*
X147936418Y-95430242D01*
X147930643Y-95432309D01*
X147924693Y-95433799D01*
X147918626Y-95434699D01*
X147912500Y-95435000D01*
X147187500Y-95435000D01*
X147181374Y-95434699D01*
X147175307Y-95433799D01*
X147169357Y-95432309D01*
X147163582Y-95430242D01*
X147158038Y-95427620D01*
X147152777Y-95424467D01*
X147147850Y-95420813D01*
X147143306Y-95416694D01*
X147139187Y-95412150D01*
X147135533Y-95407223D01*
X147132380Y-95401962D01*
X147129758Y-95396418D01*
X147127691Y-95390643D01*
X147126201Y-95384693D01*
X147125301Y-95378626D01*
X147125000Y-95372500D01*
X147125000Y-95247500D01*
X147125301Y-95241374D01*
X147126201Y-95235307D01*
X147127691Y-95229357D01*
X147129758Y-95223582D01*
X147132380Y-95218038D01*
X147135533Y-95212777D01*
X147139187Y-95207850D01*
X147143306Y-95203306D01*
X147147850Y-95199187D01*
X147152777Y-95195533D01*
X147158038Y-95192380D01*
X147163582Y-95189758D01*
X147169357Y-95187691D01*
X147175307Y-95186201D01*
X147181374Y-95185301D01*
X147187500Y-95185000D01*
X147912500Y-95185000D01*
X147918626Y-95185301D01*
X147918626Y-95185301D01*
G37*
D12*
X147550000Y-95310000D03*
D10*
G36*
X147918626Y-95685301D02*
X147924693Y-95686201D01*
X147930643Y-95687691D01*
X147936418Y-95689758D01*
X147941962Y-95692380D01*
X147947223Y-95695533D01*
X147952150Y-95699187D01*
X147956694Y-95703306D01*
X147960813Y-95707850D01*
X147964467Y-95712777D01*
X147967620Y-95718038D01*
X147970242Y-95723582D01*
X147972309Y-95729357D01*
X147973799Y-95735307D01*
X147974699Y-95741374D01*
X147975000Y-95747500D01*
X147975000Y-95872500D01*
X147974699Y-95878626D01*
X147973799Y-95884693D01*
X147972309Y-95890643D01*
X147970242Y-95896418D01*
X147967620Y-95901962D01*
X147964467Y-95907223D01*
X147960813Y-95912150D01*
X147956694Y-95916694D01*
X147952150Y-95920813D01*
X147947223Y-95924467D01*
X147941962Y-95927620D01*
X147936418Y-95930242D01*
X147930643Y-95932309D01*
X147924693Y-95933799D01*
X147918626Y-95934699D01*
X147912500Y-95935000D01*
X147187500Y-95935000D01*
X147181374Y-95934699D01*
X147175307Y-95933799D01*
X147169357Y-95932309D01*
X147163582Y-95930242D01*
X147158038Y-95927620D01*
X147152777Y-95924467D01*
X147147850Y-95920813D01*
X147143306Y-95916694D01*
X147139187Y-95912150D01*
X147135533Y-95907223D01*
X147132380Y-95901962D01*
X147129758Y-95896418D01*
X147127691Y-95890643D01*
X147126201Y-95884693D01*
X147125301Y-95878626D01*
X147125000Y-95872500D01*
X147125000Y-95747500D01*
X147125301Y-95741374D01*
X147126201Y-95735307D01*
X147127691Y-95729357D01*
X147129758Y-95723582D01*
X147132380Y-95718038D01*
X147135533Y-95712777D01*
X147139187Y-95707850D01*
X147143306Y-95703306D01*
X147147850Y-95699187D01*
X147152777Y-95695533D01*
X147158038Y-95692380D01*
X147163582Y-95689758D01*
X147169357Y-95687691D01*
X147175307Y-95686201D01*
X147181374Y-95685301D01*
X147187500Y-95685000D01*
X147912500Y-95685000D01*
X147918626Y-95685301D01*
X147918626Y-95685301D01*
G37*
D12*
X147550000Y-95810000D03*
D10*
G36*
X147918626Y-96185301D02*
X147924693Y-96186201D01*
X147930643Y-96187691D01*
X147936418Y-96189758D01*
X147941962Y-96192380D01*
X147947223Y-96195533D01*
X147952150Y-96199187D01*
X147956694Y-96203306D01*
X147960813Y-96207850D01*
X147964467Y-96212777D01*
X147967620Y-96218038D01*
X147970242Y-96223582D01*
X147972309Y-96229357D01*
X147973799Y-96235307D01*
X147974699Y-96241374D01*
X147975000Y-96247500D01*
X147975000Y-96372500D01*
X147974699Y-96378626D01*
X147973799Y-96384693D01*
X147972309Y-96390643D01*
X147970242Y-96396418D01*
X147967620Y-96401962D01*
X147964467Y-96407223D01*
X147960813Y-96412150D01*
X147956694Y-96416694D01*
X147952150Y-96420813D01*
X147947223Y-96424467D01*
X147941962Y-96427620D01*
X147936418Y-96430242D01*
X147930643Y-96432309D01*
X147924693Y-96433799D01*
X147918626Y-96434699D01*
X147912500Y-96435000D01*
X147187500Y-96435000D01*
X147181374Y-96434699D01*
X147175307Y-96433799D01*
X147169357Y-96432309D01*
X147163582Y-96430242D01*
X147158038Y-96427620D01*
X147152777Y-96424467D01*
X147147850Y-96420813D01*
X147143306Y-96416694D01*
X147139187Y-96412150D01*
X147135533Y-96407223D01*
X147132380Y-96401962D01*
X147129758Y-96396418D01*
X147127691Y-96390643D01*
X147126201Y-96384693D01*
X147125301Y-96378626D01*
X147125000Y-96372500D01*
X147125000Y-96247500D01*
X147125301Y-96241374D01*
X147126201Y-96235307D01*
X147127691Y-96229357D01*
X147129758Y-96223582D01*
X147132380Y-96218038D01*
X147135533Y-96212777D01*
X147139187Y-96207850D01*
X147143306Y-96203306D01*
X147147850Y-96199187D01*
X147152777Y-96195533D01*
X147158038Y-96192380D01*
X147163582Y-96189758D01*
X147169357Y-96187691D01*
X147175307Y-96186201D01*
X147181374Y-96185301D01*
X147187500Y-96185000D01*
X147912500Y-96185000D01*
X147918626Y-96185301D01*
X147918626Y-96185301D01*
G37*
D12*
X147550000Y-96310000D03*
D10*
G36*
X147918626Y-96685301D02*
X147924693Y-96686201D01*
X147930643Y-96687691D01*
X147936418Y-96689758D01*
X147941962Y-96692380D01*
X147947223Y-96695533D01*
X147952150Y-96699187D01*
X147956694Y-96703306D01*
X147960813Y-96707850D01*
X147964467Y-96712777D01*
X147967620Y-96718038D01*
X147970242Y-96723582D01*
X147972309Y-96729357D01*
X147973799Y-96735307D01*
X147974699Y-96741374D01*
X147975000Y-96747500D01*
X147975000Y-96872500D01*
X147974699Y-96878626D01*
X147973799Y-96884693D01*
X147972309Y-96890643D01*
X147970242Y-96896418D01*
X147967620Y-96901962D01*
X147964467Y-96907223D01*
X147960813Y-96912150D01*
X147956694Y-96916694D01*
X147952150Y-96920813D01*
X147947223Y-96924467D01*
X147941962Y-96927620D01*
X147936418Y-96930242D01*
X147930643Y-96932309D01*
X147924693Y-96933799D01*
X147918626Y-96934699D01*
X147912500Y-96935000D01*
X147187500Y-96935000D01*
X147181374Y-96934699D01*
X147175307Y-96933799D01*
X147169357Y-96932309D01*
X147163582Y-96930242D01*
X147158038Y-96927620D01*
X147152777Y-96924467D01*
X147147850Y-96920813D01*
X147143306Y-96916694D01*
X147139187Y-96912150D01*
X147135533Y-96907223D01*
X147132380Y-96901962D01*
X147129758Y-96896418D01*
X147127691Y-96890643D01*
X147126201Y-96884693D01*
X147125301Y-96878626D01*
X147125000Y-96872500D01*
X147125000Y-96747500D01*
X147125301Y-96741374D01*
X147126201Y-96735307D01*
X147127691Y-96729357D01*
X147129758Y-96723582D01*
X147132380Y-96718038D01*
X147135533Y-96712777D01*
X147139187Y-96707850D01*
X147143306Y-96703306D01*
X147147850Y-96699187D01*
X147152777Y-96695533D01*
X147158038Y-96692380D01*
X147163582Y-96689758D01*
X147169357Y-96687691D01*
X147175307Y-96686201D01*
X147181374Y-96685301D01*
X147187500Y-96685000D01*
X147912500Y-96685000D01*
X147918626Y-96685301D01*
X147918626Y-96685301D01*
G37*
D12*
X147550000Y-96810000D03*
D10*
G36*
X147918626Y-97185301D02*
X147924693Y-97186201D01*
X147930643Y-97187691D01*
X147936418Y-97189758D01*
X147941962Y-97192380D01*
X147947223Y-97195533D01*
X147952150Y-97199187D01*
X147956694Y-97203306D01*
X147960813Y-97207850D01*
X147964467Y-97212777D01*
X147967620Y-97218038D01*
X147970242Y-97223582D01*
X147972309Y-97229357D01*
X147973799Y-97235307D01*
X147974699Y-97241374D01*
X147975000Y-97247500D01*
X147975000Y-97372500D01*
X147974699Y-97378626D01*
X147973799Y-97384693D01*
X147972309Y-97390643D01*
X147970242Y-97396418D01*
X147967620Y-97401962D01*
X147964467Y-97407223D01*
X147960813Y-97412150D01*
X147956694Y-97416694D01*
X147952150Y-97420813D01*
X147947223Y-97424467D01*
X147941962Y-97427620D01*
X147936418Y-97430242D01*
X147930643Y-97432309D01*
X147924693Y-97433799D01*
X147918626Y-97434699D01*
X147912500Y-97435000D01*
X147187500Y-97435000D01*
X147181374Y-97434699D01*
X147175307Y-97433799D01*
X147169357Y-97432309D01*
X147163582Y-97430242D01*
X147158038Y-97427620D01*
X147152777Y-97424467D01*
X147147850Y-97420813D01*
X147143306Y-97416694D01*
X147139187Y-97412150D01*
X147135533Y-97407223D01*
X147132380Y-97401962D01*
X147129758Y-97396418D01*
X147127691Y-97390643D01*
X147126201Y-97384693D01*
X147125301Y-97378626D01*
X147125000Y-97372500D01*
X147125000Y-97247500D01*
X147125301Y-97241374D01*
X147126201Y-97235307D01*
X147127691Y-97229357D01*
X147129758Y-97223582D01*
X147132380Y-97218038D01*
X147135533Y-97212777D01*
X147139187Y-97207850D01*
X147143306Y-97203306D01*
X147147850Y-97199187D01*
X147152777Y-97195533D01*
X147158038Y-97192380D01*
X147163582Y-97189758D01*
X147169357Y-97187691D01*
X147175307Y-97186201D01*
X147181374Y-97185301D01*
X147187500Y-97185000D01*
X147912500Y-97185000D01*
X147918626Y-97185301D01*
X147918626Y-97185301D01*
G37*
D12*
X147550000Y-97310000D03*
D10*
G36*
X147918626Y-97685301D02*
X147924693Y-97686201D01*
X147930643Y-97687691D01*
X147936418Y-97689758D01*
X147941962Y-97692380D01*
X147947223Y-97695533D01*
X147952150Y-97699187D01*
X147956694Y-97703306D01*
X147960813Y-97707850D01*
X147964467Y-97712777D01*
X147967620Y-97718038D01*
X147970242Y-97723582D01*
X147972309Y-97729357D01*
X147973799Y-97735307D01*
X147974699Y-97741374D01*
X147975000Y-97747500D01*
X147975000Y-97872500D01*
X147974699Y-97878626D01*
X147973799Y-97884693D01*
X147972309Y-97890643D01*
X147970242Y-97896418D01*
X147967620Y-97901962D01*
X147964467Y-97907223D01*
X147960813Y-97912150D01*
X147956694Y-97916694D01*
X147952150Y-97920813D01*
X147947223Y-97924467D01*
X147941962Y-97927620D01*
X147936418Y-97930242D01*
X147930643Y-97932309D01*
X147924693Y-97933799D01*
X147918626Y-97934699D01*
X147912500Y-97935000D01*
X147187500Y-97935000D01*
X147181374Y-97934699D01*
X147175307Y-97933799D01*
X147169357Y-97932309D01*
X147163582Y-97930242D01*
X147158038Y-97927620D01*
X147152777Y-97924467D01*
X147147850Y-97920813D01*
X147143306Y-97916694D01*
X147139187Y-97912150D01*
X147135533Y-97907223D01*
X147132380Y-97901962D01*
X147129758Y-97896418D01*
X147127691Y-97890643D01*
X147126201Y-97884693D01*
X147125301Y-97878626D01*
X147125000Y-97872500D01*
X147125000Y-97747500D01*
X147125301Y-97741374D01*
X147126201Y-97735307D01*
X147127691Y-97729357D01*
X147129758Y-97723582D01*
X147132380Y-97718038D01*
X147135533Y-97712777D01*
X147139187Y-97707850D01*
X147143306Y-97703306D01*
X147147850Y-97699187D01*
X147152777Y-97695533D01*
X147158038Y-97692380D01*
X147163582Y-97689758D01*
X147169357Y-97687691D01*
X147175307Y-97686201D01*
X147181374Y-97685301D01*
X147187500Y-97685000D01*
X147912500Y-97685000D01*
X147918626Y-97685301D01*
X147918626Y-97685301D01*
G37*
D12*
X147550000Y-97810000D03*
D10*
G36*
X147918626Y-98185301D02*
X147924693Y-98186201D01*
X147930643Y-98187691D01*
X147936418Y-98189758D01*
X147941962Y-98192380D01*
X147947223Y-98195533D01*
X147952150Y-98199187D01*
X147956694Y-98203306D01*
X147960813Y-98207850D01*
X147964467Y-98212777D01*
X147967620Y-98218038D01*
X147970242Y-98223582D01*
X147972309Y-98229357D01*
X147973799Y-98235307D01*
X147974699Y-98241374D01*
X147975000Y-98247500D01*
X147975000Y-98372500D01*
X147974699Y-98378626D01*
X147973799Y-98384693D01*
X147972309Y-98390643D01*
X147970242Y-98396418D01*
X147967620Y-98401962D01*
X147964467Y-98407223D01*
X147960813Y-98412150D01*
X147956694Y-98416694D01*
X147952150Y-98420813D01*
X147947223Y-98424467D01*
X147941962Y-98427620D01*
X147936418Y-98430242D01*
X147930643Y-98432309D01*
X147924693Y-98433799D01*
X147918626Y-98434699D01*
X147912500Y-98435000D01*
X147187500Y-98435000D01*
X147181374Y-98434699D01*
X147175307Y-98433799D01*
X147169357Y-98432309D01*
X147163582Y-98430242D01*
X147158038Y-98427620D01*
X147152777Y-98424467D01*
X147147850Y-98420813D01*
X147143306Y-98416694D01*
X147139187Y-98412150D01*
X147135533Y-98407223D01*
X147132380Y-98401962D01*
X147129758Y-98396418D01*
X147127691Y-98390643D01*
X147126201Y-98384693D01*
X147125301Y-98378626D01*
X147125000Y-98372500D01*
X147125000Y-98247500D01*
X147125301Y-98241374D01*
X147126201Y-98235307D01*
X147127691Y-98229357D01*
X147129758Y-98223582D01*
X147132380Y-98218038D01*
X147135533Y-98212777D01*
X147139187Y-98207850D01*
X147143306Y-98203306D01*
X147147850Y-98199187D01*
X147152777Y-98195533D01*
X147158038Y-98192380D01*
X147163582Y-98189758D01*
X147169357Y-98187691D01*
X147175307Y-98186201D01*
X147181374Y-98185301D01*
X147187500Y-98185000D01*
X147912500Y-98185000D01*
X147918626Y-98185301D01*
X147918626Y-98185301D01*
G37*
D12*
X147550000Y-98310000D03*
G04 #@! TD*
D13*
G04 #@! TO.C,U2*
X160055000Y-98485000D03*
X160055000Y-99235000D03*
X160705000Y-98485000D03*
X160705000Y-99235000D03*
D14*
X158930000Y-99610000D03*
X158930000Y-99110000D03*
X158930000Y-98610000D03*
X158930000Y-98110000D03*
X161830000Y-98110000D03*
X161830000Y-98610000D03*
X161830000Y-99110000D03*
X161830000Y-99610000D03*
G04 #@! TD*
D10*
G04 #@! TO.C,C2*
G36*
X147810488Y-101924977D02*
X147833543Y-101928396D01*
X147856152Y-101934060D01*
X147878096Y-101941912D01*
X147899166Y-101951877D01*
X147919157Y-101963859D01*
X147937877Y-101977743D01*
X147955147Y-101993395D01*
X148361733Y-102399981D01*
X148377385Y-102417251D01*
X148391269Y-102435971D01*
X148403251Y-102455962D01*
X148413216Y-102477032D01*
X148421068Y-102498976D01*
X148426732Y-102521585D01*
X148430151Y-102544640D01*
X148431295Y-102567919D01*
X148430151Y-102591198D01*
X148426732Y-102614253D01*
X148421068Y-102636862D01*
X148413216Y-102658806D01*
X148403251Y-102679876D01*
X148391269Y-102699867D01*
X148377385Y-102718587D01*
X148361733Y-102735857D01*
X148025857Y-103071733D01*
X148008587Y-103087385D01*
X147989867Y-103101269D01*
X147969876Y-103113251D01*
X147948806Y-103123216D01*
X147926862Y-103131068D01*
X147904253Y-103136732D01*
X147881198Y-103140151D01*
X147857919Y-103141295D01*
X147834640Y-103140151D01*
X147811585Y-103136732D01*
X147788976Y-103131068D01*
X147767032Y-103123216D01*
X147745962Y-103113251D01*
X147725971Y-103101269D01*
X147707251Y-103087385D01*
X147689981Y-103071733D01*
X147283395Y-102665147D01*
X147267743Y-102647877D01*
X147253859Y-102629157D01*
X147241877Y-102609166D01*
X147231912Y-102588096D01*
X147224060Y-102566152D01*
X147218396Y-102543543D01*
X147214977Y-102520488D01*
X147213833Y-102497209D01*
X147214977Y-102473930D01*
X147218396Y-102450875D01*
X147224060Y-102428266D01*
X147231912Y-102406322D01*
X147241877Y-102385252D01*
X147253859Y-102365261D01*
X147267743Y-102346541D01*
X147283395Y-102329271D01*
X147619271Y-101993395D01*
X147636541Y-101977743D01*
X147655261Y-101963859D01*
X147675252Y-101951877D01*
X147696322Y-101941912D01*
X147718266Y-101934060D01*
X147740875Y-101928396D01*
X147763930Y-101924977D01*
X147787209Y-101923833D01*
X147810488Y-101924977D01*
X147810488Y-101924977D01*
G37*
D15*
X147822564Y-102532564D03*
D10*
G36*
X149047924Y-103162413D02*
X149070979Y-103165832D01*
X149093588Y-103171496D01*
X149115532Y-103179348D01*
X149136602Y-103189313D01*
X149156593Y-103201295D01*
X149175313Y-103215179D01*
X149192583Y-103230831D01*
X149599169Y-103637417D01*
X149614821Y-103654687D01*
X149628705Y-103673407D01*
X149640687Y-103693398D01*
X149650652Y-103714468D01*
X149658504Y-103736412D01*
X149664168Y-103759021D01*
X149667587Y-103782076D01*
X149668731Y-103805355D01*
X149667587Y-103828634D01*
X149664168Y-103851689D01*
X149658504Y-103874298D01*
X149650652Y-103896242D01*
X149640687Y-103917312D01*
X149628705Y-103937303D01*
X149614821Y-103956023D01*
X149599169Y-103973293D01*
X149263293Y-104309169D01*
X149246023Y-104324821D01*
X149227303Y-104338705D01*
X149207312Y-104350687D01*
X149186242Y-104360652D01*
X149164298Y-104368504D01*
X149141689Y-104374168D01*
X149118634Y-104377587D01*
X149095355Y-104378731D01*
X149072076Y-104377587D01*
X149049021Y-104374168D01*
X149026412Y-104368504D01*
X149004468Y-104360652D01*
X148983398Y-104350687D01*
X148963407Y-104338705D01*
X148944687Y-104324821D01*
X148927417Y-104309169D01*
X148520831Y-103902583D01*
X148505179Y-103885313D01*
X148491295Y-103866593D01*
X148479313Y-103846602D01*
X148469348Y-103825532D01*
X148461496Y-103803588D01*
X148455832Y-103780979D01*
X148452413Y-103757924D01*
X148451269Y-103734645D01*
X148452413Y-103711366D01*
X148455832Y-103688311D01*
X148461496Y-103665702D01*
X148469348Y-103643758D01*
X148479313Y-103622688D01*
X148491295Y-103602697D01*
X148505179Y-103583977D01*
X148520831Y-103566707D01*
X148856707Y-103230831D01*
X148873977Y-103215179D01*
X148892697Y-103201295D01*
X148912688Y-103189313D01*
X148933758Y-103179348D01*
X148955702Y-103171496D01*
X148978311Y-103165832D01*
X149001366Y-103162413D01*
X149024645Y-103161269D01*
X149047924Y-103162413D01*
X149047924Y-103162413D01*
G37*
D15*
X149060000Y-103770000D03*
G04 #@! TD*
D10*
G04 #@! TO.C,C1*
G36*
X150136642Y-101801131D02*
X150159697Y-101804550D01*
X150182306Y-101810214D01*
X150204250Y-101818066D01*
X150225320Y-101828031D01*
X150245311Y-101840013D01*
X150264031Y-101853897D01*
X150281301Y-101869549D01*
X150687887Y-102276135D01*
X150703539Y-102293405D01*
X150717423Y-102312125D01*
X150729405Y-102332116D01*
X150739370Y-102353186D01*
X150747222Y-102375130D01*
X150752886Y-102397739D01*
X150756305Y-102420794D01*
X150757449Y-102444073D01*
X150756305Y-102467352D01*
X150752886Y-102490407D01*
X150747222Y-102513016D01*
X150739370Y-102534960D01*
X150729405Y-102556030D01*
X150717423Y-102576021D01*
X150703539Y-102594741D01*
X150687887Y-102612011D01*
X150352011Y-102947887D01*
X150334741Y-102963539D01*
X150316021Y-102977423D01*
X150296030Y-102989405D01*
X150274960Y-102999370D01*
X150253016Y-103007222D01*
X150230407Y-103012886D01*
X150207352Y-103016305D01*
X150184073Y-103017449D01*
X150160794Y-103016305D01*
X150137739Y-103012886D01*
X150115130Y-103007222D01*
X150093186Y-102999370D01*
X150072116Y-102989405D01*
X150052125Y-102977423D01*
X150033405Y-102963539D01*
X150016135Y-102947887D01*
X149609549Y-102541301D01*
X149593897Y-102524031D01*
X149580013Y-102505311D01*
X149568031Y-102485320D01*
X149558066Y-102464250D01*
X149550214Y-102442306D01*
X149544550Y-102419697D01*
X149541131Y-102396642D01*
X149539987Y-102373363D01*
X149541131Y-102350084D01*
X149544550Y-102327029D01*
X149550214Y-102304420D01*
X149558066Y-102282476D01*
X149568031Y-102261406D01*
X149580013Y-102241415D01*
X149593897Y-102222695D01*
X149609549Y-102205425D01*
X149945425Y-101869549D01*
X149962695Y-101853897D01*
X149981415Y-101840013D01*
X150001406Y-101828031D01*
X150022476Y-101818066D01*
X150044420Y-101810214D01*
X150067029Y-101804550D01*
X150090084Y-101801131D01*
X150113363Y-101799987D01*
X150136642Y-101801131D01*
X150136642Y-101801131D01*
G37*
D15*
X150148718Y-102408718D03*
D10*
G36*
X148899206Y-100563695D02*
X148922261Y-100567114D01*
X148944870Y-100572778D01*
X148966814Y-100580630D01*
X148987884Y-100590595D01*
X149007875Y-100602577D01*
X149026595Y-100616461D01*
X149043865Y-100632113D01*
X149450451Y-101038699D01*
X149466103Y-101055969D01*
X149479987Y-101074689D01*
X149491969Y-101094680D01*
X149501934Y-101115750D01*
X149509786Y-101137694D01*
X149515450Y-101160303D01*
X149518869Y-101183358D01*
X149520013Y-101206637D01*
X149518869Y-101229916D01*
X149515450Y-101252971D01*
X149509786Y-101275580D01*
X149501934Y-101297524D01*
X149491969Y-101318594D01*
X149479987Y-101338585D01*
X149466103Y-101357305D01*
X149450451Y-101374575D01*
X149114575Y-101710451D01*
X149097305Y-101726103D01*
X149078585Y-101739987D01*
X149058594Y-101751969D01*
X149037524Y-101761934D01*
X149015580Y-101769786D01*
X148992971Y-101775450D01*
X148969916Y-101778869D01*
X148946637Y-101780013D01*
X148923358Y-101778869D01*
X148900303Y-101775450D01*
X148877694Y-101769786D01*
X148855750Y-101761934D01*
X148834680Y-101751969D01*
X148814689Y-101739987D01*
X148795969Y-101726103D01*
X148778699Y-101710451D01*
X148372113Y-101303865D01*
X148356461Y-101286595D01*
X148342577Y-101267875D01*
X148330595Y-101247884D01*
X148320630Y-101226814D01*
X148312778Y-101204870D01*
X148307114Y-101182261D01*
X148303695Y-101159206D01*
X148302551Y-101135927D01*
X148303695Y-101112648D01*
X148307114Y-101089593D01*
X148312778Y-101066984D01*
X148320630Y-101045040D01*
X148330595Y-101023970D01*
X148342577Y-101003979D01*
X148356461Y-100985259D01*
X148372113Y-100967989D01*
X148707989Y-100632113D01*
X148725259Y-100616461D01*
X148743979Y-100602577D01*
X148763970Y-100590595D01*
X148785040Y-100580630D01*
X148806984Y-100572778D01*
X148829593Y-100567114D01*
X148852648Y-100563695D01*
X148875927Y-100562551D01*
X148899206Y-100563695D01*
X148899206Y-100563695D01*
G37*
D15*
X148911282Y-101171282D03*
G04 #@! TD*
D10*
G04 #@! TO.C,D1*
G36*
X166740779Y-92111144D02*
X166763834Y-92114563D01*
X166786443Y-92120227D01*
X166808387Y-92128079D01*
X166829457Y-92138044D01*
X166849448Y-92150026D01*
X166868168Y-92163910D01*
X166885438Y-92179562D01*
X166901090Y-92196832D01*
X166914974Y-92215552D01*
X166926956Y-92235543D01*
X166936921Y-92256613D01*
X166944773Y-92278557D01*
X166950437Y-92301166D01*
X166953856Y-92324221D01*
X166955000Y-92347500D01*
X166955000Y-92922500D01*
X166953856Y-92945779D01*
X166950437Y-92968834D01*
X166944773Y-92991443D01*
X166936921Y-93013387D01*
X166926956Y-93034457D01*
X166914974Y-93054448D01*
X166901090Y-93073168D01*
X166885438Y-93090438D01*
X166868168Y-93106090D01*
X166849448Y-93119974D01*
X166829457Y-93131956D01*
X166808387Y-93141921D01*
X166786443Y-93149773D01*
X166763834Y-93155437D01*
X166740779Y-93158856D01*
X166717500Y-93160000D01*
X166242500Y-93160000D01*
X166219221Y-93158856D01*
X166196166Y-93155437D01*
X166173557Y-93149773D01*
X166151613Y-93141921D01*
X166130543Y-93131956D01*
X166110552Y-93119974D01*
X166091832Y-93106090D01*
X166074562Y-93090438D01*
X166058910Y-93073168D01*
X166045026Y-93054448D01*
X166033044Y-93034457D01*
X166023079Y-93013387D01*
X166015227Y-92991443D01*
X166009563Y-92968834D01*
X166006144Y-92945779D01*
X166005000Y-92922500D01*
X166005000Y-92347500D01*
X166006144Y-92324221D01*
X166009563Y-92301166D01*
X166015227Y-92278557D01*
X166023079Y-92256613D01*
X166033044Y-92235543D01*
X166045026Y-92215552D01*
X166058910Y-92196832D01*
X166074562Y-92179562D01*
X166091832Y-92163910D01*
X166110552Y-92150026D01*
X166130543Y-92138044D01*
X166151613Y-92128079D01*
X166173557Y-92120227D01*
X166196166Y-92114563D01*
X166219221Y-92111144D01*
X166242500Y-92110000D01*
X166717500Y-92110000D01*
X166740779Y-92111144D01*
X166740779Y-92111144D01*
G37*
D15*
X166480000Y-92635000D03*
D10*
G36*
X166740779Y-90361144D02*
X166763834Y-90364563D01*
X166786443Y-90370227D01*
X166808387Y-90378079D01*
X166829457Y-90388044D01*
X166849448Y-90400026D01*
X166868168Y-90413910D01*
X166885438Y-90429562D01*
X166901090Y-90446832D01*
X166914974Y-90465552D01*
X166926956Y-90485543D01*
X166936921Y-90506613D01*
X166944773Y-90528557D01*
X166950437Y-90551166D01*
X166953856Y-90574221D01*
X166955000Y-90597500D01*
X166955000Y-91172500D01*
X166953856Y-91195779D01*
X166950437Y-91218834D01*
X166944773Y-91241443D01*
X166936921Y-91263387D01*
X166926956Y-91284457D01*
X166914974Y-91304448D01*
X166901090Y-91323168D01*
X166885438Y-91340438D01*
X166868168Y-91356090D01*
X166849448Y-91369974D01*
X166829457Y-91381956D01*
X166808387Y-91391921D01*
X166786443Y-91399773D01*
X166763834Y-91405437D01*
X166740779Y-91408856D01*
X166717500Y-91410000D01*
X166242500Y-91410000D01*
X166219221Y-91408856D01*
X166196166Y-91405437D01*
X166173557Y-91399773D01*
X166151613Y-91391921D01*
X166130543Y-91381956D01*
X166110552Y-91369974D01*
X166091832Y-91356090D01*
X166074562Y-91340438D01*
X166058910Y-91323168D01*
X166045026Y-91304448D01*
X166033044Y-91284457D01*
X166023079Y-91263387D01*
X166015227Y-91241443D01*
X166009563Y-91218834D01*
X166006144Y-91195779D01*
X166005000Y-91172500D01*
X166005000Y-90597500D01*
X166006144Y-90574221D01*
X166009563Y-90551166D01*
X166015227Y-90528557D01*
X166023079Y-90506613D01*
X166033044Y-90485543D01*
X166045026Y-90465552D01*
X166058910Y-90446832D01*
X166074562Y-90429562D01*
X166091832Y-90413910D01*
X166110552Y-90400026D01*
X166130543Y-90388044D01*
X166151613Y-90378079D01*
X166173557Y-90370227D01*
X166196166Y-90364563D01*
X166219221Y-90361144D01*
X166242500Y-90360000D01*
X166717500Y-90360000D01*
X166740779Y-90361144D01*
X166740779Y-90361144D01*
G37*
D15*
X166480000Y-90885000D03*
G04 #@! TD*
D16*
G04 #@! TO.C,U3*
X146166500Y-87084500D03*
X146868500Y-87084500D03*
X147570500Y-87084500D03*
X148272500Y-87084500D03*
X148974500Y-87084500D03*
X149676500Y-87084500D03*
X150378500Y-87084500D03*
X151080500Y-87084500D03*
X151782500Y-87084500D03*
X152484500Y-87084500D03*
X153186500Y-87084500D03*
X153888500Y-87084500D03*
X154590500Y-87084500D03*
X155292500Y-87084500D03*
X155994500Y-87084500D03*
X156696500Y-87084500D03*
X157398500Y-87084500D03*
X158100500Y-87084500D03*
X158802500Y-87084500D03*
X159504500Y-87084500D03*
X160206500Y-87084500D03*
X160908500Y-87084500D03*
X161610500Y-87084500D03*
X162312500Y-87084500D03*
X163014500Y-87084500D03*
X163716500Y-87084500D03*
X164418500Y-87084500D03*
G04 #@! TD*
M02*
