M48
;DRILL file {KiCad (5.0.1-3-g963ef8bb5)} date Thursday, January 03, 2019 at 07:11:49 PM
;FORMAT={-:-/ absolute / inch / decimal}
FMAT,2
INCH,TZ
T1C0.0157
T2C0.0197
T3C0.0315
T4C0.0354
T5C0.0433
T6C0.0866
%
G90
G05
M72
T1
X5.7453Y-3.6205
X5.7724Y-3.9894
X5.813Y-3.9472
X5.8339Y-3.8937
X5.9611Y-3.5992
X5.9744Y-3.9441
X6.0089Y-3.5929
X6.0122Y-3.9368
X6.0138Y-3.8417
X6.0594Y-3.448
X6.0728Y-3.5937
X6.111Y-3.7453
X6.111Y-3.798
X6.113Y-3.8393
X6.1154Y-3.4055
X6.1272Y-3.7188
X6.1425Y-3.4543
X6.1953Y-3.8508
X6.2093Y-3.9449
X6.2094Y-3.8018
X6.4455Y-3.4912
X6.5295Y-3.4287
X6.5551Y-3.5799
T2
X6.3441Y-4.0323
X6.3441Y-4.0992
T3
X6.3724Y-3.5819
X6.4512Y-3.5819
T4
X5.6807Y-3.6921
X6.2724Y-3.6921
T5
X6.1169Y-3.326
X6.2559Y-3.3228
X6.4043Y-3.7217
X6.3945Y-3.3276
X5.8366Y-3.3291
X5.9787Y-3.3272
T6
X5.6453Y-3.513
X6.548Y-3.9043
X5.65Y-3.8535
T0
M30
