G04 #@! TF.GenerationSoftware,KiCad,Pcbnew,(5.0.1-3-g963ef8bb5)*
G04 #@! TF.CreationDate,2019-01-03T19:12:47-05:00*
G04 #@! TF.ProjectId,neoshiba,6E656F73686962612E6B696361645F70,rev?*
G04 #@! TF.SameCoordinates,Original*
G04 #@! TF.FileFunction,Legend,Top*
G04 #@! TF.FilePolarity,Positive*
%FSLAX46Y46*%
G04 Gerber Fmt 4.6, Leading zero omitted, Abs format (unit mm)*
G04 Created by KiCad (PCBNEW (5.0.1-3-g963ef8bb5)) date Thursday, January 03, 2019 at 07:12:47 PM*
%MOMM*%
%LPD*%
G01*
G04 APERTURE LIST*
%ADD10C,0.120000*%
%ADD11C,0.150000*%
G04 APERTURE END LIST*
D10*
G04 #@! TO.C,U1*
X147390000Y-90425000D02*
X147390000Y-89950000D01*
X147390000Y-89950000D02*
X147865000Y-89950000D01*
X156610000Y-98695000D02*
X156610000Y-99170000D01*
X156610000Y-99170000D02*
X156135000Y-99170000D01*
X156610000Y-90425000D02*
X156610000Y-89950000D01*
X156610000Y-89950000D02*
X156135000Y-89950000D01*
X147390000Y-98695000D02*
X147390000Y-99170000D01*
D11*
G04 #@! TO.C,U2*
X162280000Y-99985000D02*
X159305000Y-99985000D01*
X161455000Y-97735000D02*
X159305000Y-97735000D01*
D10*
G04 #@! TO.C,Y1*
X159840000Y-102320000D02*
X154440000Y-102320000D01*
X154440000Y-102320000D02*
X154440000Y-104220000D01*
X154440000Y-104220000D02*
X159840000Y-104220000D01*
X159840000Y-104220000D02*
X159840000Y-102320000D01*
X159840000Y-103020000D02*
X160440000Y-102420000D01*
X160440000Y-102420000D02*
X160440000Y-102420000D01*
X159840000Y-103520000D02*
X160440000Y-104120000D01*
X160440000Y-104120000D02*
X160440000Y-104120000D01*
G04 #@! TO.C,H6*
X161370000Y-95830000D02*
X163970000Y-95830000D01*
X163970000Y-93230000D02*
X163970000Y-95830000D01*
X161370000Y-93230000D02*
X163970000Y-93230000D01*
X161370000Y-95830000D02*
X161370000Y-93230000D01*
G04 #@! TO.C,H5*
X154070000Y-85780000D02*
X154070000Y-83180000D01*
X154070000Y-83180000D02*
X156670000Y-83180000D01*
X156670000Y-83180000D02*
X156670000Y-85780000D01*
X154070000Y-85780000D02*
X156670000Y-85780000D01*
G04 #@! TO.C,H4*
X146950000Y-85860000D02*
X149550000Y-85860000D01*
X149550000Y-83260000D02*
X149550000Y-85860000D01*
X146950000Y-83260000D02*
X149550000Y-83260000D01*
X146950000Y-85860000D02*
X146950000Y-83260000D01*
G04 #@! TO.C,H3*
X157600000Y-85700000D02*
X157600000Y-83100000D01*
X157600000Y-83100000D02*
X160200000Y-83100000D01*
X160200000Y-83100000D02*
X160200000Y-85700000D01*
X157600000Y-85700000D02*
X160200000Y-85700000D01*
G04 #@! TO.C,H2*
X161120000Y-85820000D02*
X163720000Y-85820000D01*
X163720000Y-83220000D02*
X163720000Y-85820000D01*
X161120000Y-83220000D02*
X163720000Y-83220000D01*
X161120000Y-85820000D02*
X161120000Y-83220000D01*
G04 #@! TO.C,H1*
X150560000Y-85810000D02*
X150560000Y-83210000D01*
X150560000Y-83210000D02*
X153160000Y-83210000D01*
X153160000Y-83210000D02*
X153160000Y-85810000D01*
X150560000Y-85810000D02*
X153160000Y-85810000D01*
G04 #@! TO.C,C2*
X148923011Y-102911762D02*
X148680802Y-102669553D01*
X148201762Y-103633011D02*
X147959553Y-103390802D01*
G04 #@! TO.C,C1*
X149290480Y-102271729D02*
X149048271Y-102029520D01*
X150011729Y-101550480D02*
X149769520Y-101308271D01*
G04 #@! TO.C,H8*
X158020000Y-94880000D02*
X160620000Y-94880000D01*
X158020000Y-92680000D02*
X158020000Y-94880000D01*
X160620000Y-92680000D02*
X158020000Y-92680000D01*
X160620000Y-93180000D02*
X160620000Y-92680000D01*
X160620000Y-94880000D02*
X160620000Y-93180000D01*
G04 #@! TO.C,H7*
X142990000Y-92680000D02*
X142990000Y-94380000D01*
X142990000Y-94380000D02*
X142990000Y-94880000D01*
X142990000Y-94880000D02*
X145590000Y-94880000D01*
X145590000Y-94880000D02*
X145590000Y-92680000D01*
X145590000Y-92680000D02*
X142990000Y-92680000D01*
G04 #@! TO.C,SW4*
X160800000Y-89920000D02*
X160800000Y-92040000D01*
X162860000Y-89920000D02*
X160800000Y-89920000D01*
X162860000Y-92040000D02*
X160800000Y-92040000D01*
X162860000Y-89920000D02*
X162860000Y-92040000D01*
X163860000Y-89920000D02*
X164920000Y-89920000D01*
X164920000Y-89920000D02*
X164920000Y-90980000D01*
G04 #@! TO.C,D1*
X165745000Y-90960000D02*
X165745000Y-93420000D01*
X165745000Y-93420000D02*
X167215000Y-93420000D01*
X167215000Y-93420000D02*
X167215000Y-90960000D01*
G04 #@! TO.C,SW1*
D11*
X164986666Y-96374761D02*
X165129523Y-96422380D01*
X165367619Y-96422380D01*
X165462857Y-96374761D01*
X165510476Y-96327142D01*
X165558095Y-96231904D01*
X165558095Y-96136666D01*
X165510476Y-96041428D01*
X165462857Y-95993809D01*
X165367619Y-95946190D01*
X165177142Y-95898571D01*
X165081904Y-95850952D01*
X165034285Y-95803333D01*
X164986666Y-95708095D01*
X164986666Y-95612857D01*
X165034285Y-95517619D01*
X165081904Y-95470000D01*
X165177142Y-95422380D01*
X165415238Y-95422380D01*
X165558095Y-95470000D01*
X165891428Y-95422380D02*
X166129523Y-96422380D01*
X166320000Y-95708095D01*
X166510476Y-96422380D01*
X166748571Y-95422380D01*
X167653333Y-96422380D02*
X167081904Y-96422380D01*
X167367619Y-96422380D02*
X167367619Y-95422380D01*
X167272380Y-95565238D01*
X167177142Y-95660476D01*
X167081904Y-95708095D01*
G04 #@! TO.C,SW3*
X142176666Y-95084761D02*
X142319523Y-95132380D01*
X142557619Y-95132380D01*
X142652857Y-95084761D01*
X142700476Y-95037142D01*
X142748095Y-94941904D01*
X142748095Y-94846666D01*
X142700476Y-94751428D01*
X142652857Y-94703809D01*
X142557619Y-94656190D01*
X142367142Y-94608571D01*
X142271904Y-94560952D01*
X142224285Y-94513333D01*
X142176666Y-94418095D01*
X142176666Y-94322857D01*
X142224285Y-94227619D01*
X142271904Y-94180000D01*
X142367142Y-94132380D01*
X142605238Y-94132380D01*
X142748095Y-94180000D01*
X143081428Y-94132380D02*
X143319523Y-95132380D01*
X143510000Y-94418095D01*
X143700476Y-95132380D01*
X143938571Y-94132380D01*
X144224285Y-94132380D02*
X144843333Y-94132380D01*
X144510000Y-94513333D01*
X144652857Y-94513333D01*
X144748095Y-94560952D01*
X144795714Y-94608571D01*
X144843333Y-94703809D01*
X144843333Y-94941904D01*
X144795714Y-95037142D01*
X144748095Y-95084761D01*
X144652857Y-95132380D01*
X144367142Y-95132380D01*
X144271904Y-95084761D01*
X144224285Y-95037142D01*
G04 #@! TO.C,SW2*
X142056666Y-86434761D02*
X142199523Y-86482380D01*
X142437619Y-86482380D01*
X142532857Y-86434761D01*
X142580476Y-86387142D01*
X142628095Y-86291904D01*
X142628095Y-86196666D01*
X142580476Y-86101428D01*
X142532857Y-86053809D01*
X142437619Y-86006190D01*
X142247142Y-85958571D01*
X142151904Y-85910952D01*
X142104285Y-85863333D01*
X142056666Y-85768095D01*
X142056666Y-85672857D01*
X142104285Y-85577619D01*
X142151904Y-85530000D01*
X142247142Y-85482380D01*
X142485238Y-85482380D01*
X142628095Y-85530000D01*
X142961428Y-85482380D02*
X143199523Y-86482380D01*
X143390000Y-85768095D01*
X143580476Y-86482380D01*
X143818571Y-85482380D01*
X144151904Y-85577619D02*
X144199523Y-85530000D01*
X144294761Y-85482380D01*
X144532857Y-85482380D01*
X144628095Y-85530000D01*
X144675714Y-85577619D01*
X144723333Y-85672857D01*
X144723333Y-85768095D01*
X144675714Y-85910952D01*
X144104285Y-86482380D01*
X144723333Y-86482380D01*
G04 #@! TO.C,U1*
X145632380Y-95321904D02*
X146441904Y-95321904D01*
X146537142Y-95274285D01*
X146584761Y-95226666D01*
X146632380Y-95131428D01*
X146632380Y-94940952D01*
X146584761Y-94845714D01*
X146537142Y-94798095D01*
X146441904Y-94750476D01*
X145632380Y-94750476D01*
X146632380Y-93750476D02*
X146632380Y-94321904D01*
X146632380Y-94036190D02*
X145632380Y-94036190D01*
X145775238Y-94131428D01*
X145870476Y-94226666D01*
X145918095Y-94321904D01*
G04 #@! TO.C,U2*
X159618095Y-100362380D02*
X159618095Y-101171904D01*
X159665714Y-101267142D01*
X159713333Y-101314761D01*
X159808571Y-101362380D01*
X159999047Y-101362380D01*
X160094285Y-101314761D01*
X160141904Y-101267142D01*
X160189523Y-101171904D01*
X160189523Y-100362380D01*
X160618095Y-100457619D02*
X160665714Y-100410000D01*
X160760952Y-100362380D01*
X160999047Y-100362380D01*
X161094285Y-100410000D01*
X161141904Y-100457619D01*
X161189523Y-100552857D01*
X161189523Y-100648095D01*
X161141904Y-100790952D01*
X160570476Y-101362380D01*
X161189523Y-101362380D01*
G04 #@! TO.C,Y1*
X159413809Y-100976190D02*
X159413809Y-101452380D01*
X159080476Y-100452380D02*
X159413809Y-100976190D01*
X159747142Y-100452380D01*
X160604285Y-101452380D02*
X160032857Y-101452380D01*
X160318571Y-101452380D02*
X160318571Y-100452380D01*
X160223333Y-100595238D01*
X160128095Y-100690476D01*
X160032857Y-100738095D01*
G04 #@! TO.C,H6*
X161908095Y-97082380D02*
X161908095Y-96082380D01*
X161908095Y-96558571D02*
X162479523Y-96558571D01*
X162479523Y-97082380D02*
X162479523Y-96082380D01*
X163384285Y-96082380D02*
X163193809Y-96082380D01*
X163098571Y-96130000D01*
X163050952Y-96177619D01*
X162955714Y-96320476D01*
X162908095Y-96510952D01*
X162908095Y-96891904D01*
X162955714Y-96987142D01*
X163003333Y-97034761D01*
X163098571Y-97082380D01*
X163289047Y-97082380D01*
X163384285Y-97034761D01*
X163431904Y-96987142D01*
X163479523Y-96891904D01*
X163479523Y-96653809D01*
X163431904Y-96558571D01*
X163384285Y-96510952D01*
X163289047Y-96463333D01*
X163098571Y-96463333D01*
X163003333Y-96510952D01*
X162955714Y-96558571D01*
X162908095Y-96653809D01*
G04 #@! TO.C,H5*
X154608095Y-87032380D02*
X154608095Y-86032380D01*
X154608095Y-86508571D02*
X155179523Y-86508571D01*
X155179523Y-87032380D02*
X155179523Y-86032380D01*
X156131904Y-86032380D02*
X155655714Y-86032380D01*
X155608095Y-86508571D01*
X155655714Y-86460952D01*
X155750952Y-86413333D01*
X155989047Y-86413333D01*
X156084285Y-86460952D01*
X156131904Y-86508571D01*
X156179523Y-86603809D01*
X156179523Y-86841904D01*
X156131904Y-86937142D01*
X156084285Y-86984761D01*
X155989047Y-87032380D01*
X155750952Y-87032380D01*
X155655714Y-86984761D01*
X155608095Y-86937142D01*
G04 #@! TO.C,H4*
X147488095Y-87112380D02*
X147488095Y-86112380D01*
X147488095Y-86588571D02*
X148059523Y-86588571D01*
X148059523Y-87112380D02*
X148059523Y-86112380D01*
X148964285Y-86445714D02*
X148964285Y-87112380D01*
X148726190Y-86064761D02*
X148488095Y-86779047D01*
X149107142Y-86779047D01*
G04 #@! TO.C,H3*
X158138095Y-86952380D02*
X158138095Y-85952380D01*
X158138095Y-86428571D02*
X158709523Y-86428571D01*
X158709523Y-86952380D02*
X158709523Y-85952380D01*
X159090476Y-85952380D02*
X159709523Y-85952380D01*
X159376190Y-86333333D01*
X159519047Y-86333333D01*
X159614285Y-86380952D01*
X159661904Y-86428571D01*
X159709523Y-86523809D01*
X159709523Y-86761904D01*
X159661904Y-86857142D01*
X159614285Y-86904761D01*
X159519047Y-86952380D01*
X159233333Y-86952380D01*
X159138095Y-86904761D01*
X159090476Y-86857142D01*
G04 #@! TO.C,H2*
X161658095Y-87072380D02*
X161658095Y-86072380D01*
X161658095Y-86548571D02*
X162229523Y-86548571D01*
X162229523Y-87072380D02*
X162229523Y-86072380D01*
X162658095Y-86167619D02*
X162705714Y-86120000D01*
X162800952Y-86072380D01*
X163039047Y-86072380D01*
X163134285Y-86120000D01*
X163181904Y-86167619D01*
X163229523Y-86262857D01*
X163229523Y-86358095D01*
X163181904Y-86500952D01*
X162610476Y-87072380D01*
X163229523Y-87072380D01*
G04 #@! TO.C,H1*
X151098095Y-87062380D02*
X151098095Y-86062380D01*
X151098095Y-86538571D02*
X151669523Y-86538571D01*
X151669523Y-87062380D02*
X151669523Y-86062380D01*
X152669523Y-87062380D02*
X152098095Y-87062380D01*
X152383809Y-87062380D02*
X152383809Y-86062380D01*
X152288571Y-86205238D01*
X152193333Y-86300476D01*
X152098095Y-86348095D01*
G04 #@! TO.C,C2*
X147059729Y-104297132D02*
X146992386Y-104297132D01*
X146857699Y-104229788D01*
X146790355Y-104162445D01*
X146723012Y-104027757D01*
X146723012Y-103893070D01*
X146756683Y-103792055D01*
X146857699Y-103623696D01*
X146958714Y-103522681D01*
X147127073Y-103421666D01*
X147228088Y-103387994D01*
X147362775Y-103387994D01*
X147497462Y-103455338D01*
X147564806Y-103522681D01*
X147632149Y-103657368D01*
X147632149Y-103724712D01*
X147901523Y-103994086D02*
X147968867Y-103994086D01*
X148069882Y-104027757D01*
X148238241Y-104196116D01*
X148271912Y-104297132D01*
X148271912Y-104364475D01*
X148238241Y-104465490D01*
X148170897Y-104532834D01*
X148036210Y-104600177D01*
X147228088Y-104600177D01*
X147665821Y-105037910D01*
G04 #@! TO.C,C1*
X148148447Y-102935850D02*
X148081104Y-102935850D01*
X147946417Y-102868506D01*
X147879073Y-102801163D01*
X147811730Y-102666475D01*
X147811730Y-102531788D01*
X147845401Y-102430773D01*
X147946417Y-102262414D01*
X148047432Y-102161399D01*
X148215791Y-102060384D01*
X148316806Y-102026712D01*
X148451493Y-102026712D01*
X148586180Y-102094056D01*
X148653524Y-102161399D01*
X148720867Y-102296086D01*
X148720867Y-102363430D01*
X148754539Y-103676628D02*
X148350478Y-103272567D01*
X148552508Y-103474598D02*
X149259615Y-102767491D01*
X149091256Y-102801163D01*
X148956569Y-102801163D01*
X148855554Y-102767491D01*
G04 #@! TO.C,H8*
X158558095Y-92282380D02*
X158558095Y-91282380D01*
X158558095Y-91758571D02*
X159129523Y-91758571D01*
X159129523Y-92282380D02*
X159129523Y-91282380D01*
X159748571Y-91710952D02*
X159653333Y-91663333D01*
X159605714Y-91615714D01*
X159558095Y-91520476D01*
X159558095Y-91472857D01*
X159605714Y-91377619D01*
X159653333Y-91330000D01*
X159748571Y-91282380D01*
X159939047Y-91282380D01*
X160034285Y-91330000D01*
X160081904Y-91377619D01*
X160129523Y-91472857D01*
X160129523Y-91520476D01*
X160081904Y-91615714D01*
X160034285Y-91663333D01*
X159939047Y-91710952D01*
X159748571Y-91710952D01*
X159653333Y-91758571D01*
X159605714Y-91806190D01*
X159558095Y-91901428D01*
X159558095Y-92091904D01*
X159605714Y-92187142D01*
X159653333Y-92234761D01*
X159748571Y-92282380D01*
X159939047Y-92282380D01*
X160034285Y-92234761D01*
X160081904Y-92187142D01*
X160129523Y-92091904D01*
X160129523Y-91901428D01*
X160081904Y-91806190D01*
X160034285Y-91758571D01*
X159939047Y-91710952D01*
G04 #@! TO.C,H7*
X143528095Y-96182380D02*
X143528095Y-95182380D01*
X143528095Y-95658571D02*
X144099523Y-95658571D01*
X144099523Y-96182380D02*
X144099523Y-95182380D01*
X144480476Y-95182380D02*
X145147142Y-95182380D01*
X144718571Y-96182380D01*
G04 #@! TO.C,SW4*
X166324761Y-92313333D02*
X166372380Y-92170476D01*
X166372380Y-91932380D01*
X166324761Y-91837142D01*
X166277142Y-91789523D01*
X166181904Y-91741904D01*
X166086666Y-91741904D01*
X165991428Y-91789523D01*
X165943809Y-91837142D01*
X165896190Y-91932380D01*
X165848571Y-92122857D01*
X165800952Y-92218095D01*
X165753333Y-92265714D01*
X165658095Y-92313333D01*
X165562857Y-92313333D01*
X165467619Y-92265714D01*
X165420000Y-92218095D01*
X165372380Y-92122857D01*
X165372380Y-91884761D01*
X165420000Y-91741904D01*
X165372380Y-91408571D02*
X166372380Y-91170476D01*
X165658095Y-90980000D01*
X166372380Y-90789523D01*
X165372380Y-90551428D01*
X165705714Y-89741904D02*
X166372380Y-89741904D01*
X165324761Y-89980000D02*
X166039047Y-90218095D01*
X166039047Y-89599047D01*
G04 #@! TO.C,D1*
X165502380Y-92498095D02*
X164502380Y-92498095D01*
X164502380Y-92260000D01*
X164550000Y-92117142D01*
X164645238Y-92021904D01*
X164740476Y-91974285D01*
X164930952Y-91926666D01*
X165073809Y-91926666D01*
X165264285Y-91974285D01*
X165359523Y-92021904D01*
X165454761Y-92117142D01*
X165502380Y-92260000D01*
X165502380Y-92498095D01*
X165502380Y-90974285D02*
X165502380Y-91545714D01*
X165502380Y-91260000D02*
X164502380Y-91260000D01*
X164645238Y-91355238D01*
X164740476Y-91450476D01*
X164788095Y-91545714D01*
G04 #@! TO.C,U3*
X153824595Y-89466880D02*
X153824595Y-90276404D01*
X153872214Y-90371642D01*
X153919833Y-90419261D01*
X154015071Y-90466880D01*
X154205547Y-90466880D01*
X154300785Y-90419261D01*
X154348404Y-90371642D01*
X154396023Y-90276404D01*
X154396023Y-89466880D01*
X154776976Y-89466880D02*
X155396023Y-89466880D01*
X155062690Y-89847833D01*
X155205547Y-89847833D01*
X155300785Y-89895452D01*
X155348404Y-89943071D01*
X155396023Y-90038309D01*
X155396023Y-90276404D01*
X155348404Y-90371642D01*
X155300785Y-90419261D01*
X155205547Y-90466880D01*
X154919833Y-90466880D01*
X154824595Y-90419261D01*
X154776976Y-90371642D01*
G04 #@! TD*
M02*
