G04 #@! TF.GenerationSoftware,KiCad,Pcbnew,(5.0.1-3-g963ef8bb5)*
G04 #@! TF.CreationDate,2019-01-03T19:12:47-05:00*
G04 #@! TF.ProjectId,neoshiba,6E656F73686962612E6B696361645F70,rev?*
G04 #@! TF.SameCoordinates,Original*
G04 #@! TF.FileFunction,Profile,NP*
%FSLAX46Y46*%
G04 Gerber Fmt 4.6, Leading zero omitted, Abs format (unit mm)*
G04 Created by KiCad (PCBNEW (5.0.1-3-g963ef8bb5)) date Thursday, January 03, 2019 at 07:12:47 PM*
%MOMM*%
%LPD*%
G01*
G04 APERTURE LIST*
%ADD10C,0.100000*%
G04 APERTURE END LIST*
D10*
X149399319Y-105003356D02*
X149927907Y-105254232D01*
X148884526Y-104729922D02*
X149399319Y-105003356D01*
X160026182Y-81102148D02*
X150500632Y-81102148D01*
X160591967Y-81342243D02*
X160026182Y-81102148D01*
X148954500Y-81829000D02*
X148462573Y-82114885D01*
X147983529Y-82421870D02*
X147518057Y-82749533D01*
X147518057Y-82749533D02*
X147066848Y-83097453D01*
X147066848Y-83097453D02*
X146630595Y-83465206D01*
X149974243Y-81322208D02*
X149458620Y-81564634D01*
X149458620Y-81564634D02*
X148954500Y-81829000D01*
X143934500Y-99269000D02*
X143946693Y-99845118D01*
X143946693Y-99845118D02*
X144220096Y-100227662D01*
X144220096Y-100227662D02*
X144392626Y-100227662D01*
X144392626Y-100227662D02*
X146535749Y-102709784D01*
X146535749Y-102709784D02*
X146535749Y-103048781D01*
X146535749Y-103048781D02*
X146973741Y-103424546D01*
X166934500Y-96919000D02*
X167447746Y-96066538D01*
X163175565Y-82925267D02*
X162691520Y-82562586D01*
X162691520Y-82562586D02*
X162191151Y-82221464D01*
X162191151Y-82221464D02*
X161674442Y-81903380D01*
X161674442Y-81903380D02*
X161141384Y-81609815D01*
X161141384Y-81609815D02*
X160591967Y-81342243D01*
X150500632Y-81102148D02*
X150500638Y-81102148D01*
X150500638Y-81102148D02*
X150500643Y-81102148D01*
X150500643Y-81102148D02*
X150500649Y-81102148D01*
X148462573Y-82114885D02*
X147983529Y-82421870D01*
X150500649Y-81102148D02*
X150500655Y-81102148D01*
X150500655Y-81102148D02*
X150500660Y-81102148D01*
X150500660Y-81102148D02*
X150500666Y-81102148D01*
X150500666Y-81102148D02*
X150500672Y-81102148D01*
X150500672Y-81102148D02*
X150500677Y-81102148D01*
X144486923Y-86240576D02*
X144235017Y-86240576D01*
X144235017Y-86240576D02*
X144023350Y-86503506D01*
X166254926Y-100368223D02*
X166470450Y-100044658D01*
X166470450Y-100044658D02*
X166484500Y-99319000D01*
X146630595Y-83465206D02*
X146630595Y-83758454D01*
X146630595Y-83758454D02*
X144486923Y-86240576D01*
X143534500Y-89669000D02*
X143047682Y-90538400D01*
X143047682Y-90538400D02*
X143047682Y-95960705D01*
X149927907Y-105254232D02*
X150469771Y-105481847D01*
X150469771Y-105481847D02*
X159994221Y-105481847D01*
X159994221Y-105481847D02*
X160530649Y-105257127D01*
X160530649Y-105257127D02*
X161051758Y-105006720D01*
X161051758Y-105006720D02*
X161557848Y-104732245D01*
X161557848Y-104732245D02*
X162049222Y-104435316D01*
X143047682Y-95960705D02*
X143334500Y-96569000D01*
X167447746Y-96066538D02*
X167447746Y-88572768D01*
X167447746Y-88572768D02*
X167216592Y-88017789D01*
X167216592Y-88017789D02*
X166959211Y-87477666D01*
X166959211Y-87477666D02*
X166678344Y-86951658D01*
X166678344Y-86951658D02*
X166376736Y-86439012D01*
X166376736Y-86439012D02*
X166237829Y-86439012D01*
X166237829Y-86439012D02*
X164094704Y-83956340D01*
X164094704Y-83956340D02*
X164094704Y-83709396D01*
X164094704Y-83709396D02*
X163643289Y-83308031D01*
X163643289Y-83308031D02*
X163175565Y-82925267D01*
X146973741Y-103424546D02*
X147428138Y-103781241D01*
X147428138Y-103781241D02*
X147898413Y-104118166D01*
X147898413Y-104118166D02*
X148384050Y-104434627D01*
X148384050Y-104434627D02*
X148884526Y-104729922D01*
X162049222Y-104435316D02*
X162526189Y-104117548D01*
X162526189Y-104117548D02*
X162989050Y-103780563D01*
X162989050Y-103780563D02*
X163438111Y-103425974D01*
X163438111Y-103425974D02*
X163873676Y-103055396D01*
X163873676Y-103055396D02*
X163873676Y-102850345D01*
X163873676Y-102850345D02*
X166017351Y-100368223D01*
X166017351Y-100368223D02*
X166254926Y-100368223D01*
X144023350Y-86503506D02*
X144034500Y-87669000D01*
X150500677Y-81102148D02*
X149974243Y-81322208D01*
X143534500Y-89669000D02*
X144033820Y-87669000D01*
X143334500Y-96569000D02*
X143934500Y-99269000D01*
X166934500Y-96919000D02*
X166484500Y-99319000D01*
M02*
