G04 #@! TF.GenerationSoftware,KiCad,Pcbnew,(5.0.1-3-g963ef8bb5)*
G04 #@! TF.CreationDate,2019-01-03T19:12:47-05:00*
G04 #@! TF.ProjectId,neoshiba,6E656F73686962612E6B696361645F70,rev?*
G04 #@! TF.SameCoordinates,Original*
G04 #@! TF.FileFunction,Soldermask,Top*
G04 #@! TF.FilePolarity,Negative*
%FSLAX46Y46*%
G04 Gerber Fmt 4.6, Leading zero omitted, Abs format (unit mm)*
G04 Created by KiCad (PCBNEW (5.0.1-3-g963ef8bb5)) date Thursday, January 03, 2019 at 07:12:47 PM*
%MOMM*%
%LPD*%
G01*
G04 APERTURE LIST*
%ADD10C,0.100000*%
G04 APERTURE END LIST*
D10*
G36*
X161300721Y-103590174D02*
X161400995Y-103631709D01*
X161491245Y-103692012D01*
X161567988Y-103768755D01*
X161628291Y-103859005D01*
X161669826Y-103959279D01*
X161691000Y-104065730D01*
X161691000Y-104174270D01*
X161669826Y-104280721D01*
X161628291Y-104380995D01*
X161567988Y-104471245D01*
X161491245Y-104547988D01*
X161400995Y-104608291D01*
X161300721Y-104649826D01*
X161194270Y-104671000D01*
X161085730Y-104671000D01*
X160979279Y-104649826D01*
X160879005Y-104608291D01*
X160788755Y-104547988D01*
X160712012Y-104471245D01*
X160651709Y-104380995D01*
X160610174Y-104280721D01*
X160589000Y-104174270D01*
X160589000Y-104065730D01*
X160610174Y-103959279D01*
X160651709Y-103859005D01*
X160712012Y-103768755D01*
X160788755Y-103692012D01*
X160879005Y-103631709D01*
X160979279Y-103590174D01*
X161085730Y-103569000D01*
X161194270Y-103569000D01*
X161300721Y-103590174D01*
X161300721Y-103590174D01*
G37*
G36*
X149063644Y-103078263D02*
X149101138Y-103089637D01*
X149135702Y-103108112D01*
X149170763Y-103136886D01*
X149693114Y-103659237D01*
X149721888Y-103694298D01*
X149740363Y-103728862D01*
X149751737Y-103766356D01*
X149755577Y-103805355D01*
X149751737Y-103844354D01*
X149740363Y-103881848D01*
X149721888Y-103916412D01*
X149693114Y-103951473D01*
X149241473Y-104403114D01*
X149206412Y-104431888D01*
X149171848Y-104450363D01*
X149134354Y-104461737D01*
X149095355Y-104465577D01*
X149056356Y-104461737D01*
X149018862Y-104450363D01*
X148984298Y-104431888D01*
X148949237Y-104403114D01*
X148426886Y-103880763D01*
X148398112Y-103845702D01*
X148379637Y-103811138D01*
X148368263Y-103773644D01*
X148364423Y-103734645D01*
X148368263Y-103695646D01*
X148379637Y-103658152D01*
X148398112Y-103623588D01*
X148426886Y-103588527D01*
X148878527Y-103136886D01*
X148913588Y-103108112D01*
X148948152Y-103089637D01*
X148985646Y-103078263D01*
X149024645Y-103074423D01*
X149063644Y-103078263D01*
X149063644Y-103078263D01*
G37*
G36*
X147826208Y-101840827D02*
X147863702Y-101852201D01*
X147898266Y-101870676D01*
X147933327Y-101899450D01*
X148455678Y-102421801D01*
X148484452Y-102456862D01*
X148502927Y-102491426D01*
X148514301Y-102528920D01*
X148518141Y-102567919D01*
X148514301Y-102606918D01*
X148502927Y-102644412D01*
X148484452Y-102678976D01*
X148455678Y-102714037D01*
X148004037Y-103165678D01*
X147968976Y-103194452D01*
X147934412Y-103212927D01*
X147896918Y-103224301D01*
X147857919Y-103228141D01*
X147818920Y-103224301D01*
X147781426Y-103212927D01*
X147746862Y-103194452D01*
X147711801Y-103165678D01*
X147189450Y-102643327D01*
X147160676Y-102608266D01*
X147142201Y-102573702D01*
X147130827Y-102536208D01*
X147126987Y-102497209D01*
X147130827Y-102458210D01*
X147142201Y-102420716D01*
X147160676Y-102386152D01*
X147189450Y-102351091D01*
X147641091Y-101899450D01*
X147676152Y-101870676D01*
X147710716Y-101852201D01*
X147748210Y-101840827D01*
X147787209Y-101836987D01*
X147826208Y-101840827D01*
X147826208Y-101840827D01*
G37*
G36*
X150152362Y-101716981D02*
X150189856Y-101728355D01*
X150224420Y-101746830D01*
X150259481Y-101775604D01*
X150781832Y-102297955D01*
X150810606Y-102333016D01*
X150829081Y-102367580D01*
X150840455Y-102405074D01*
X150844295Y-102444073D01*
X150840455Y-102483072D01*
X150829081Y-102520566D01*
X150810606Y-102555130D01*
X150781832Y-102590191D01*
X150330191Y-103041832D01*
X150295130Y-103070606D01*
X150260566Y-103089081D01*
X150223072Y-103100455D01*
X150184073Y-103104295D01*
X150145074Y-103100455D01*
X150107580Y-103089081D01*
X150073016Y-103070606D01*
X150037955Y-103041832D01*
X149515604Y-102519481D01*
X149486830Y-102484420D01*
X149468355Y-102449856D01*
X149456981Y-102412362D01*
X149453141Y-102373363D01*
X149456981Y-102334364D01*
X149468355Y-102296870D01*
X149486830Y-102262306D01*
X149515604Y-102227245D01*
X149967245Y-101775604D01*
X150002306Y-101746830D01*
X150036870Y-101728355D01*
X150074364Y-101716981D01*
X150113363Y-101713141D01*
X150152362Y-101716981D01*
X150152362Y-101716981D01*
G37*
G36*
X161300721Y-101890174D02*
X161400995Y-101931709D01*
X161491245Y-101992012D01*
X161567988Y-102068755D01*
X161628291Y-102159005D01*
X161669826Y-102259279D01*
X161691000Y-102365730D01*
X161691000Y-102474270D01*
X161669826Y-102580721D01*
X161628291Y-102680995D01*
X161567988Y-102771245D01*
X161491245Y-102847988D01*
X161400995Y-102908291D01*
X161300721Y-102949826D01*
X161194270Y-102971000D01*
X161085730Y-102971000D01*
X160979279Y-102949826D01*
X160879005Y-102908291D01*
X160788755Y-102847988D01*
X160712012Y-102771245D01*
X160651709Y-102680995D01*
X160610174Y-102580721D01*
X160589000Y-102474270D01*
X160589000Y-102365730D01*
X160610174Y-102259279D01*
X160651709Y-102159005D01*
X160712012Y-102068755D01*
X160788755Y-101992012D01*
X160879005Y-101931709D01*
X160979279Y-101890174D01*
X161085730Y-101869000D01*
X161194270Y-101869000D01*
X161300721Y-101890174D01*
X161300721Y-101890174D01*
G37*
G36*
X148914926Y-100479545D02*
X148952420Y-100490919D01*
X148986984Y-100509394D01*
X149022045Y-100538168D01*
X149544396Y-101060519D01*
X149573170Y-101095580D01*
X149591645Y-101130144D01*
X149603019Y-101167638D01*
X149606859Y-101206637D01*
X149603019Y-101245636D01*
X149591645Y-101283130D01*
X149573170Y-101317694D01*
X149544396Y-101352755D01*
X149092755Y-101804396D01*
X149057694Y-101833170D01*
X149023130Y-101851645D01*
X148985636Y-101863019D01*
X148946637Y-101866859D01*
X148907638Y-101863019D01*
X148870144Y-101851645D01*
X148835580Y-101833170D01*
X148800519Y-101804396D01*
X148278168Y-101282045D01*
X148249394Y-101246984D01*
X148230919Y-101212420D01*
X148219545Y-101174926D01*
X148215705Y-101135927D01*
X148219545Y-101096928D01*
X148230919Y-101059434D01*
X148249394Y-101024870D01*
X148278168Y-100989809D01*
X148729809Y-100538168D01*
X148764870Y-100509394D01*
X148799434Y-100490919D01*
X148836928Y-100479545D01*
X148875927Y-100475705D01*
X148914926Y-100479545D01*
X148914926Y-100479545D01*
G37*
G36*
X166628445Y-96936254D02*
X166976593Y-97005504D01*
X167386249Y-97175189D01*
X167754929Y-97421534D01*
X168068466Y-97735071D01*
X168314811Y-98103751D01*
X168484496Y-98513407D01*
X168543690Y-98811000D01*
X168571000Y-98948294D01*
X168571000Y-99391706D01*
X168556947Y-99462356D01*
X168484496Y-99826593D01*
X168314811Y-100236249D01*
X168068466Y-100604929D01*
X167754929Y-100918466D01*
X167386249Y-101164811D01*
X166976593Y-101334496D01*
X166628445Y-101403746D01*
X166541706Y-101421000D01*
X166098294Y-101421000D01*
X166011555Y-101403746D01*
X165663407Y-101334496D01*
X165253751Y-101164811D01*
X164885071Y-100918466D01*
X164571534Y-100604929D01*
X164325189Y-100236249D01*
X164155504Y-99826593D01*
X164083053Y-99462356D01*
X164069000Y-99391706D01*
X164069000Y-98948294D01*
X164096310Y-98811000D01*
X164155504Y-98513407D01*
X164325189Y-98103751D01*
X164571534Y-97735071D01*
X164885071Y-97421534D01*
X165253751Y-97175189D01*
X165663407Y-97005504D01*
X166011555Y-96936254D01*
X166098294Y-96919000D01*
X166541706Y-96919000D01*
X166628445Y-96936254D01*
X166628445Y-96936254D01*
G37*
G36*
X143815511Y-95645670D02*
X144166593Y-95715504D01*
X144576249Y-95885189D01*
X144944929Y-96131534D01*
X145258466Y-96445071D01*
X145504811Y-96813751D01*
X145674496Y-97223407D01*
X145729726Y-97501071D01*
X145761000Y-97658294D01*
X145761000Y-98101706D01*
X145752255Y-98145670D01*
X145674496Y-98536593D01*
X145504811Y-98946249D01*
X145258466Y-99314929D01*
X144944929Y-99628466D01*
X144576249Y-99874811D01*
X144166593Y-100044496D01*
X143818445Y-100113746D01*
X143731706Y-100131000D01*
X143288294Y-100131000D01*
X143201555Y-100113746D01*
X142853407Y-100044496D01*
X142443751Y-99874811D01*
X142075071Y-99628466D01*
X141761534Y-99314929D01*
X141515189Y-98946249D01*
X141345504Y-98536593D01*
X141267745Y-98145670D01*
X141259000Y-98101706D01*
X141259000Y-97658294D01*
X141290274Y-97501071D01*
X141345504Y-97223407D01*
X141515189Y-96813751D01*
X141761534Y-96445071D01*
X142075071Y-96131534D01*
X142443751Y-95885189D01*
X142853407Y-95715504D01*
X143204489Y-95645670D01*
X143288294Y-95629000D01*
X143731706Y-95629000D01*
X143815511Y-95645670D01*
X143815511Y-95645670D01*
G37*
G36*
X162256000Y-99811000D02*
X161404000Y-99811000D01*
X161404000Y-97909000D01*
X162256000Y-97909000D01*
X162256000Y-99811000D01*
X162256000Y-99811000D01*
G37*
G36*
X159356000Y-99811000D02*
X158504000Y-99811000D01*
X158504000Y-97909000D01*
X159356000Y-97909000D01*
X159356000Y-99811000D01*
X159356000Y-99811000D01*
G37*
G36*
X148405357Y-89635083D02*
X148410028Y-89636500D01*
X148414330Y-89638800D01*
X148420705Y-89644031D01*
X148441080Y-89657644D01*
X148463719Y-89667020D01*
X148487753Y-89671800D01*
X148512257Y-89671799D01*
X148536291Y-89667017D01*
X148558929Y-89657639D01*
X148579295Y-89644031D01*
X148585670Y-89638800D01*
X148589972Y-89636500D01*
X148594643Y-89635083D01*
X148605641Y-89634000D01*
X148894359Y-89634000D01*
X148905357Y-89635083D01*
X148910028Y-89636500D01*
X148914330Y-89638800D01*
X148920705Y-89644031D01*
X148941080Y-89657644D01*
X148963719Y-89667020D01*
X148987753Y-89671800D01*
X149012257Y-89671799D01*
X149036291Y-89667017D01*
X149058929Y-89657639D01*
X149079295Y-89644031D01*
X149085670Y-89638800D01*
X149089972Y-89636500D01*
X149094643Y-89635083D01*
X149105641Y-89634000D01*
X149394359Y-89634000D01*
X149405357Y-89635083D01*
X149410028Y-89636500D01*
X149414330Y-89638800D01*
X149420705Y-89644031D01*
X149441080Y-89657644D01*
X149463719Y-89667020D01*
X149487753Y-89671800D01*
X149512257Y-89671799D01*
X149536291Y-89667017D01*
X149558929Y-89657639D01*
X149579295Y-89644031D01*
X149585670Y-89638800D01*
X149589972Y-89636500D01*
X149594643Y-89635083D01*
X149605641Y-89634000D01*
X149894359Y-89634000D01*
X149905357Y-89635083D01*
X149910028Y-89636500D01*
X149914330Y-89638800D01*
X149920705Y-89644031D01*
X149941080Y-89657644D01*
X149963719Y-89667020D01*
X149987753Y-89671800D01*
X150012257Y-89671799D01*
X150036291Y-89667017D01*
X150058929Y-89657639D01*
X150079295Y-89644031D01*
X150085670Y-89638800D01*
X150089972Y-89636500D01*
X150094643Y-89635083D01*
X150105641Y-89634000D01*
X150394359Y-89634000D01*
X150405357Y-89635083D01*
X150410028Y-89636500D01*
X150414330Y-89638800D01*
X150420705Y-89644031D01*
X150441080Y-89657644D01*
X150463719Y-89667020D01*
X150487753Y-89671800D01*
X150512257Y-89671799D01*
X150536291Y-89667017D01*
X150558929Y-89657639D01*
X150579295Y-89644031D01*
X150585670Y-89638800D01*
X150589972Y-89636500D01*
X150594643Y-89635083D01*
X150605641Y-89634000D01*
X150894359Y-89634000D01*
X150905357Y-89635083D01*
X150910028Y-89636500D01*
X150914330Y-89638800D01*
X150920705Y-89644031D01*
X150941080Y-89657644D01*
X150963719Y-89667020D01*
X150987753Y-89671800D01*
X151012257Y-89671799D01*
X151036291Y-89667017D01*
X151058929Y-89657639D01*
X151079295Y-89644031D01*
X151085670Y-89638800D01*
X151089972Y-89636500D01*
X151094643Y-89635083D01*
X151105641Y-89634000D01*
X151394359Y-89634000D01*
X151405357Y-89635083D01*
X151410028Y-89636500D01*
X151414330Y-89638800D01*
X151420705Y-89644031D01*
X151441080Y-89657644D01*
X151463719Y-89667020D01*
X151487753Y-89671800D01*
X151512257Y-89671799D01*
X151536291Y-89667017D01*
X151558929Y-89657639D01*
X151579295Y-89644031D01*
X151585670Y-89638800D01*
X151589972Y-89636500D01*
X151594643Y-89635083D01*
X151605641Y-89634000D01*
X151894359Y-89634000D01*
X151905357Y-89635083D01*
X151910028Y-89636500D01*
X151914330Y-89638800D01*
X151920705Y-89644031D01*
X151941080Y-89657644D01*
X151963719Y-89667020D01*
X151987753Y-89671800D01*
X152012257Y-89671799D01*
X152036291Y-89667017D01*
X152058929Y-89657639D01*
X152079295Y-89644031D01*
X152085670Y-89638800D01*
X152089972Y-89636500D01*
X152094643Y-89635083D01*
X152105641Y-89634000D01*
X152394359Y-89634000D01*
X152405357Y-89635083D01*
X152410028Y-89636500D01*
X152414330Y-89638800D01*
X152420705Y-89644031D01*
X152441080Y-89657644D01*
X152463719Y-89667020D01*
X152487753Y-89671800D01*
X152512257Y-89671799D01*
X152536291Y-89667017D01*
X152558929Y-89657639D01*
X152579295Y-89644031D01*
X152585670Y-89638800D01*
X152589972Y-89636500D01*
X152594643Y-89635083D01*
X152605641Y-89634000D01*
X152894359Y-89634000D01*
X152905357Y-89635083D01*
X152910028Y-89636500D01*
X152914330Y-89638800D01*
X152920705Y-89644031D01*
X152941080Y-89657644D01*
X152963719Y-89667020D01*
X152987753Y-89671800D01*
X153012257Y-89671799D01*
X153036291Y-89667017D01*
X153058929Y-89657639D01*
X153079295Y-89644031D01*
X153085670Y-89638800D01*
X153089972Y-89636500D01*
X153094643Y-89635083D01*
X153105641Y-89634000D01*
X153394359Y-89634000D01*
X153405357Y-89635083D01*
X153410028Y-89636500D01*
X153414330Y-89638800D01*
X153420705Y-89644031D01*
X153441080Y-89657644D01*
X153463719Y-89667020D01*
X153487753Y-89671800D01*
X153512257Y-89671799D01*
X153536291Y-89667017D01*
X153558929Y-89657639D01*
X153579295Y-89644031D01*
X153585670Y-89638800D01*
X153589972Y-89636500D01*
X153594643Y-89635083D01*
X153605641Y-89634000D01*
X153894359Y-89634000D01*
X153905357Y-89635083D01*
X153910028Y-89636500D01*
X153914330Y-89638800D01*
X153920705Y-89644031D01*
X153941080Y-89657644D01*
X153963719Y-89667020D01*
X153987753Y-89671800D01*
X154012257Y-89671799D01*
X154036291Y-89667017D01*
X154058929Y-89657639D01*
X154079295Y-89644031D01*
X154085670Y-89638800D01*
X154089972Y-89636500D01*
X154094643Y-89635083D01*
X154105641Y-89634000D01*
X154394359Y-89634000D01*
X154405357Y-89635083D01*
X154410028Y-89636500D01*
X154414330Y-89638800D01*
X154420705Y-89644031D01*
X154441080Y-89657644D01*
X154463719Y-89667020D01*
X154487753Y-89671800D01*
X154512257Y-89671799D01*
X154536291Y-89667017D01*
X154558929Y-89657639D01*
X154579295Y-89644031D01*
X154585670Y-89638800D01*
X154589972Y-89636500D01*
X154594643Y-89635083D01*
X154605641Y-89634000D01*
X154894359Y-89634000D01*
X154905357Y-89635083D01*
X154910028Y-89636500D01*
X154914330Y-89638800D01*
X154920705Y-89644031D01*
X154941080Y-89657644D01*
X154963719Y-89667020D01*
X154987753Y-89671800D01*
X155012257Y-89671799D01*
X155036291Y-89667017D01*
X155058929Y-89657639D01*
X155079295Y-89644031D01*
X155085670Y-89638800D01*
X155089972Y-89636500D01*
X155094643Y-89635083D01*
X155105641Y-89634000D01*
X155394359Y-89634000D01*
X155405357Y-89635083D01*
X155410028Y-89636500D01*
X155414330Y-89638800D01*
X155420705Y-89644031D01*
X155441080Y-89657644D01*
X155463719Y-89667020D01*
X155487753Y-89671800D01*
X155512257Y-89671799D01*
X155536291Y-89667017D01*
X155558929Y-89657639D01*
X155579295Y-89644031D01*
X155585670Y-89638800D01*
X155589972Y-89636500D01*
X155594643Y-89635083D01*
X155605641Y-89634000D01*
X155894359Y-89634000D01*
X155905357Y-89635083D01*
X155910028Y-89636500D01*
X155914330Y-89638800D01*
X155918104Y-89641896D01*
X155921200Y-89645670D01*
X155923500Y-89649972D01*
X155924917Y-89654643D01*
X155926000Y-89665641D01*
X155926000Y-90509000D01*
X155928402Y-90533386D01*
X155935515Y-90556835D01*
X155947066Y-90578446D01*
X155962612Y-90597388D01*
X155981554Y-90612934D01*
X156003165Y-90624485D01*
X156026614Y-90631598D01*
X156051000Y-90634000D01*
X156894359Y-90634000D01*
X156905357Y-90635083D01*
X156910028Y-90636500D01*
X156914330Y-90638800D01*
X156918104Y-90641896D01*
X156921200Y-90645670D01*
X156923500Y-90649972D01*
X156924917Y-90654643D01*
X156926000Y-90665641D01*
X156926000Y-90954359D01*
X156924917Y-90965357D01*
X156923500Y-90970028D01*
X156921200Y-90974330D01*
X156915969Y-90980705D01*
X156902356Y-91001080D01*
X156892980Y-91023719D01*
X156888200Y-91047753D01*
X156888201Y-91072257D01*
X156892983Y-91096291D01*
X156902361Y-91118929D01*
X156915969Y-91139295D01*
X156921200Y-91145670D01*
X156923500Y-91149972D01*
X156924917Y-91154643D01*
X156926000Y-91165641D01*
X156926000Y-91454359D01*
X156924917Y-91465357D01*
X156923500Y-91470028D01*
X156921200Y-91474330D01*
X156915969Y-91480705D01*
X156902356Y-91501080D01*
X156892980Y-91523719D01*
X156888200Y-91547753D01*
X156888201Y-91572257D01*
X156892983Y-91596291D01*
X156902361Y-91618929D01*
X156915969Y-91639295D01*
X156921200Y-91645670D01*
X156923500Y-91649972D01*
X156924917Y-91654643D01*
X156926000Y-91665641D01*
X156926000Y-91954359D01*
X156924917Y-91965357D01*
X156923500Y-91970028D01*
X156921200Y-91974330D01*
X156915969Y-91980705D01*
X156902356Y-92001080D01*
X156892980Y-92023719D01*
X156888200Y-92047753D01*
X156888201Y-92072257D01*
X156892983Y-92096291D01*
X156902361Y-92118929D01*
X156915969Y-92139295D01*
X156921200Y-92145670D01*
X156923500Y-92149972D01*
X156924917Y-92154643D01*
X156926000Y-92165641D01*
X156926000Y-92454359D01*
X156924917Y-92465357D01*
X156923500Y-92470028D01*
X156921200Y-92474330D01*
X156915969Y-92480705D01*
X156902356Y-92501080D01*
X156892980Y-92523719D01*
X156888200Y-92547753D01*
X156888201Y-92572257D01*
X156892983Y-92596291D01*
X156902361Y-92618929D01*
X156915969Y-92639295D01*
X156921200Y-92645670D01*
X156923500Y-92649972D01*
X156924917Y-92654643D01*
X156926000Y-92665641D01*
X156926000Y-92954359D01*
X156924917Y-92965357D01*
X156923500Y-92970028D01*
X156921200Y-92974330D01*
X156915969Y-92980705D01*
X156902356Y-93001080D01*
X156892980Y-93023719D01*
X156888200Y-93047753D01*
X156888201Y-93072257D01*
X156892983Y-93096291D01*
X156902361Y-93118929D01*
X156915969Y-93139295D01*
X156921200Y-93145670D01*
X156923500Y-93149972D01*
X156924917Y-93154643D01*
X156926000Y-93165641D01*
X156926000Y-93454359D01*
X156924917Y-93465357D01*
X156923500Y-93470028D01*
X156921200Y-93474330D01*
X156915969Y-93480705D01*
X156902356Y-93501080D01*
X156892980Y-93523719D01*
X156888200Y-93547753D01*
X156888201Y-93572257D01*
X156892983Y-93596291D01*
X156902361Y-93618929D01*
X156915969Y-93639295D01*
X156921200Y-93645670D01*
X156923500Y-93649972D01*
X156924917Y-93654643D01*
X156926000Y-93665641D01*
X156926000Y-93954359D01*
X156924917Y-93965357D01*
X156923500Y-93970028D01*
X156921200Y-93974330D01*
X156915969Y-93980705D01*
X156902356Y-94001080D01*
X156892980Y-94023719D01*
X156888200Y-94047753D01*
X156888201Y-94072257D01*
X156892983Y-94096291D01*
X156902361Y-94118929D01*
X156915969Y-94139295D01*
X156921200Y-94145670D01*
X156923500Y-94149972D01*
X156924917Y-94154643D01*
X156926000Y-94165641D01*
X156926000Y-94454359D01*
X156924917Y-94465357D01*
X156923500Y-94470028D01*
X156921200Y-94474330D01*
X156915969Y-94480705D01*
X156902356Y-94501080D01*
X156892980Y-94523719D01*
X156888200Y-94547753D01*
X156888201Y-94572257D01*
X156892983Y-94596291D01*
X156902361Y-94618929D01*
X156915969Y-94639295D01*
X156921200Y-94645670D01*
X156923500Y-94649972D01*
X156924917Y-94654643D01*
X156926000Y-94665641D01*
X156926000Y-94954359D01*
X156924917Y-94965357D01*
X156923500Y-94970028D01*
X156921200Y-94974330D01*
X156915969Y-94980705D01*
X156902356Y-95001080D01*
X156892980Y-95023719D01*
X156888200Y-95047753D01*
X156888201Y-95072257D01*
X156892983Y-95096291D01*
X156902361Y-95118929D01*
X156915969Y-95139295D01*
X156921200Y-95145670D01*
X156923500Y-95149972D01*
X156924917Y-95154643D01*
X156926000Y-95165641D01*
X156926000Y-95454359D01*
X156924917Y-95465357D01*
X156923500Y-95470028D01*
X156921200Y-95474330D01*
X156915969Y-95480705D01*
X156902356Y-95501080D01*
X156892980Y-95523719D01*
X156888200Y-95547753D01*
X156888201Y-95572257D01*
X156892983Y-95596291D01*
X156902361Y-95618929D01*
X156915969Y-95639295D01*
X156921200Y-95645670D01*
X156923500Y-95649972D01*
X156924917Y-95654643D01*
X156926000Y-95665641D01*
X156926000Y-95954359D01*
X156924917Y-95965357D01*
X156923500Y-95970028D01*
X156921200Y-95974330D01*
X156915969Y-95980705D01*
X156902356Y-96001080D01*
X156892980Y-96023719D01*
X156888200Y-96047753D01*
X156888201Y-96072257D01*
X156892983Y-96096291D01*
X156902361Y-96118929D01*
X156915969Y-96139295D01*
X156921200Y-96145670D01*
X156923500Y-96149972D01*
X156924917Y-96154643D01*
X156926000Y-96165641D01*
X156926000Y-96454359D01*
X156924917Y-96465357D01*
X156923500Y-96470028D01*
X156921200Y-96474330D01*
X156915969Y-96480705D01*
X156902356Y-96501080D01*
X156892980Y-96523719D01*
X156888200Y-96547753D01*
X156888201Y-96572257D01*
X156892983Y-96596291D01*
X156902361Y-96618929D01*
X156915969Y-96639295D01*
X156921200Y-96645670D01*
X156923500Y-96649972D01*
X156924917Y-96654643D01*
X156926000Y-96665641D01*
X156926000Y-96954359D01*
X156924917Y-96965357D01*
X156923500Y-96970028D01*
X156921200Y-96974330D01*
X156915969Y-96980705D01*
X156902356Y-97001080D01*
X156892980Y-97023719D01*
X156888200Y-97047753D01*
X156888201Y-97072257D01*
X156892983Y-97096291D01*
X156902361Y-97118929D01*
X156915969Y-97139295D01*
X156921200Y-97145670D01*
X156923500Y-97149972D01*
X156924917Y-97154643D01*
X156926000Y-97165641D01*
X156926000Y-97454359D01*
X156924917Y-97465357D01*
X156923500Y-97470028D01*
X156921200Y-97474330D01*
X156915969Y-97480705D01*
X156902356Y-97501080D01*
X156892980Y-97523719D01*
X156888200Y-97547753D01*
X156888201Y-97572257D01*
X156892983Y-97596291D01*
X156902361Y-97618929D01*
X156915969Y-97639295D01*
X156921200Y-97645670D01*
X156923500Y-97649972D01*
X156924917Y-97654643D01*
X156926000Y-97665641D01*
X156926000Y-97954359D01*
X156924917Y-97965357D01*
X156923500Y-97970028D01*
X156921200Y-97974330D01*
X156915969Y-97980705D01*
X156902356Y-98001080D01*
X156892980Y-98023719D01*
X156888200Y-98047753D01*
X156888201Y-98072257D01*
X156892983Y-98096291D01*
X156902361Y-98118929D01*
X156915969Y-98139295D01*
X156921200Y-98145670D01*
X156923500Y-98149972D01*
X156924917Y-98154643D01*
X156926000Y-98165641D01*
X156926000Y-98454359D01*
X156924917Y-98465357D01*
X156923500Y-98470028D01*
X156921200Y-98474330D01*
X156918104Y-98478104D01*
X156914330Y-98481200D01*
X156910028Y-98483500D01*
X156905357Y-98484917D01*
X156894359Y-98486000D01*
X156051000Y-98486000D01*
X156026614Y-98488402D01*
X156003165Y-98495515D01*
X155981554Y-98507066D01*
X155962612Y-98522612D01*
X155947066Y-98541554D01*
X155935515Y-98563165D01*
X155928402Y-98586614D01*
X155926000Y-98611000D01*
X155926000Y-99454359D01*
X155924917Y-99465357D01*
X155923500Y-99470028D01*
X155921200Y-99474330D01*
X155918104Y-99478104D01*
X155914330Y-99481200D01*
X155910028Y-99483500D01*
X155905357Y-99484917D01*
X155894359Y-99486000D01*
X155605641Y-99486000D01*
X155594643Y-99484917D01*
X155589972Y-99483500D01*
X155585670Y-99481200D01*
X155579295Y-99475969D01*
X155558920Y-99462356D01*
X155536281Y-99452980D01*
X155512247Y-99448200D01*
X155487743Y-99448201D01*
X155463709Y-99452983D01*
X155441071Y-99462361D01*
X155420705Y-99475969D01*
X155414330Y-99481200D01*
X155410028Y-99483500D01*
X155405357Y-99484917D01*
X155394359Y-99486000D01*
X155105641Y-99486000D01*
X155094643Y-99484917D01*
X155089972Y-99483500D01*
X155085670Y-99481200D01*
X155079295Y-99475969D01*
X155058920Y-99462356D01*
X155036281Y-99452980D01*
X155012247Y-99448200D01*
X154987743Y-99448201D01*
X154963709Y-99452983D01*
X154941071Y-99462361D01*
X154920705Y-99475969D01*
X154914330Y-99481200D01*
X154910028Y-99483500D01*
X154905357Y-99484917D01*
X154894359Y-99486000D01*
X154605641Y-99486000D01*
X154594643Y-99484917D01*
X154589972Y-99483500D01*
X154585670Y-99481200D01*
X154579295Y-99475969D01*
X154558920Y-99462356D01*
X154536281Y-99452980D01*
X154512247Y-99448200D01*
X154487743Y-99448201D01*
X154463709Y-99452983D01*
X154441071Y-99462361D01*
X154420705Y-99475969D01*
X154414330Y-99481200D01*
X154410028Y-99483500D01*
X154405357Y-99484917D01*
X154394359Y-99486000D01*
X154105641Y-99486000D01*
X154094643Y-99484917D01*
X154089972Y-99483500D01*
X154085670Y-99481200D01*
X154079295Y-99475969D01*
X154058920Y-99462356D01*
X154036281Y-99452980D01*
X154012247Y-99448200D01*
X153987743Y-99448201D01*
X153963709Y-99452983D01*
X153941071Y-99462361D01*
X153920705Y-99475969D01*
X153914330Y-99481200D01*
X153910028Y-99483500D01*
X153905357Y-99484917D01*
X153894359Y-99486000D01*
X153605641Y-99486000D01*
X153594643Y-99484917D01*
X153589972Y-99483500D01*
X153585670Y-99481200D01*
X153579295Y-99475969D01*
X153558920Y-99462356D01*
X153536281Y-99452980D01*
X153512247Y-99448200D01*
X153487743Y-99448201D01*
X153463709Y-99452983D01*
X153441071Y-99462361D01*
X153420705Y-99475969D01*
X153414330Y-99481200D01*
X153410028Y-99483500D01*
X153405357Y-99484917D01*
X153394359Y-99486000D01*
X153105641Y-99486000D01*
X153094643Y-99484917D01*
X153089972Y-99483500D01*
X153085670Y-99481200D01*
X153079295Y-99475969D01*
X153058920Y-99462356D01*
X153036281Y-99452980D01*
X153012247Y-99448200D01*
X152987743Y-99448201D01*
X152963709Y-99452983D01*
X152941071Y-99462361D01*
X152920705Y-99475969D01*
X152914330Y-99481200D01*
X152910028Y-99483500D01*
X152905357Y-99484917D01*
X152894359Y-99486000D01*
X152605641Y-99486000D01*
X152594643Y-99484917D01*
X152589972Y-99483500D01*
X152585670Y-99481200D01*
X152579295Y-99475969D01*
X152558920Y-99462356D01*
X152536281Y-99452980D01*
X152512247Y-99448200D01*
X152487743Y-99448201D01*
X152463709Y-99452983D01*
X152441071Y-99462361D01*
X152420705Y-99475969D01*
X152414330Y-99481200D01*
X152410028Y-99483500D01*
X152405357Y-99484917D01*
X152394359Y-99486000D01*
X152105641Y-99486000D01*
X152094643Y-99484917D01*
X152089972Y-99483500D01*
X152085670Y-99481200D01*
X152079295Y-99475969D01*
X152058920Y-99462356D01*
X152036281Y-99452980D01*
X152012247Y-99448200D01*
X151987743Y-99448201D01*
X151963709Y-99452983D01*
X151941071Y-99462361D01*
X151920705Y-99475969D01*
X151914330Y-99481200D01*
X151910028Y-99483500D01*
X151905357Y-99484917D01*
X151894359Y-99486000D01*
X151605641Y-99486000D01*
X151594643Y-99484917D01*
X151589972Y-99483500D01*
X151585670Y-99481200D01*
X151579295Y-99475969D01*
X151558920Y-99462356D01*
X151536281Y-99452980D01*
X151512247Y-99448200D01*
X151487743Y-99448201D01*
X151463709Y-99452983D01*
X151441071Y-99462361D01*
X151420705Y-99475969D01*
X151414330Y-99481200D01*
X151410028Y-99483500D01*
X151405357Y-99484917D01*
X151394359Y-99486000D01*
X151105641Y-99486000D01*
X151094643Y-99484917D01*
X151089972Y-99483500D01*
X151085670Y-99481200D01*
X151079295Y-99475969D01*
X151058920Y-99462356D01*
X151036281Y-99452980D01*
X151012247Y-99448200D01*
X150987743Y-99448201D01*
X150963709Y-99452983D01*
X150941071Y-99462361D01*
X150920705Y-99475969D01*
X150914330Y-99481200D01*
X150910028Y-99483500D01*
X150905357Y-99484917D01*
X150894359Y-99486000D01*
X150605641Y-99486000D01*
X150594643Y-99484917D01*
X150589972Y-99483500D01*
X150585670Y-99481200D01*
X150579295Y-99475969D01*
X150558920Y-99462356D01*
X150536281Y-99452980D01*
X150512247Y-99448200D01*
X150487743Y-99448201D01*
X150463709Y-99452983D01*
X150441071Y-99462361D01*
X150420705Y-99475969D01*
X150414330Y-99481200D01*
X150410028Y-99483500D01*
X150405357Y-99484917D01*
X150394359Y-99486000D01*
X150105641Y-99486000D01*
X150094643Y-99484917D01*
X150089972Y-99483500D01*
X150085670Y-99481200D01*
X150079295Y-99475969D01*
X150058920Y-99462356D01*
X150036281Y-99452980D01*
X150012247Y-99448200D01*
X149987743Y-99448201D01*
X149963709Y-99452983D01*
X149941071Y-99462361D01*
X149920705Y-99475969D01*
X149914330Y-99481200D01*
X149910028Y-99483500D01*
X149905357Y-99484917D01*
X149894359Y-99486000D01*
X149605641Y-99486000D01*
X149594643Y-99484917D01*
X149589972Y-99483500D01*
X149585670Y-99481200D01*
X149579295Y-99475969D01*
X149558920Y-99462356D01*
X149536281Y-99452980D01*
X149512247Y-99448200D01*
X149487743Y-99448201D01*
X149463709Y-99452983D01*
X149441071Y-99462361D01*
X149420705Y-99475969D01*
X149414330Y-99481200D01*
X149410028Y-99483500D01*
X149405357Y-99484917D01*
X149394359Y-99486000D01*
X149105641Y-99486000D01*
X149094643Y-99484917D01*
X149089972Y-99483500D01*
X149085670Y-99481200D01*
X149079295Y-99475969D01*
X149058920Y-99462356D01*
X149036281Y-99452980D01*
X149012247Y-99448200D01*
X148987743Y-99448201D01*
X148963709Y-99452983D01*
X148941071Y-99462361D01*
X148920705Y-99475969D01*
X148914330Y-99481200D01*
X148910028Y-99483500D01*
X148905357Y-99484917D01*
X148894359Y-99486000D01*
X148605641Y-99486000D01*
X148594643Y-99484917D01*
X148589972Y-99483500D01*
X148585670Y-99481200D01*
X148579295Y-99475969D01*
X148558920Y-99462356D01*
X148536281Y-99452980D01*
X148512247Y-99448200D01*
X148487743Y-99448201D01*
X148463709Y-99452983D01*
X148441071Y-99462361D01*
X148420705Y-99475969D01*
X148414330Y-99481200D01*
X148410028Y-99483500D01*
X148405357Y-99484917D01*
X148394359Y-99486000D01*
X148105641Y-99486000D01*
X148094643Y-99484917D01*
X148089972Y-99483500D01*
X148085670Y-99481200D01*
X148081896Y-99478104D01*
X148078800Y-99474330D01*
X148076500Y-99470028D01*
X148075083Y-99465357D01*
X148074000Y-99454359D01*
X148074000Y-98611000D01*
X148071598Y-98586614D01*
X148064485Y-98563165D01*
X148052934Y-98541554D01*
X148037388Y-98522612D01*
X148018446Y-98507066D01*
X147996835Y-98495515D01*
X147973386Y-98488402D01*
X147949000Y-98486000D01*
X147105641Y-98486000D01*
X147094643Y-98484917D01*
X147089972Y-98483500D01*
X147085670Y-98481200D01*
X147081896Y-98478104D01*
X147078800Y-98474330D01*
X147076500Y-98470028D01*
X147075083Y-98465357D01*
X147074000Y-98454359D01*
X147074000Y-98165641D01*
X147075083Y-98154643D01*
X147076500Y-98149972D01*
X147078800Y-98145670D01*
X147084031Y-98139295D01*
X147097644Y-98118920D01*
X147107020Y-98096281D01*
X147111800Y-98072247D01*
X147111799Y-98047743D01*
X147107017Y-98023709D01*
X147097639Y-98001071D01*
X147084031Y-97980705D01*
X147078800Y-97974330D01*
X147076500Y-97970028D01*
X147075083Y-97965357D01*
X147074000Y-97954359D01*
X147074000Y-97665641D01*
X147075083Y-97654643D01*
X147076500Y-97649972D01*
X147078800Y-97645670D01*
X147084031Y-97639295D01*
X147097644Y-97618920D01*
X147107020Y-97596281D01*
X147111800Y-97572247D01*
X147111799Y-97547743D01*
X147107017Y-97523709D01*
X147097639Y-97501071D01*
X147084031Y-97480705D01*
X147078800Y-97474330D01*
X147076500Y-97470028D01*
X147075083Y-97465357D01*
X147074000Y-97454359D01*
X147074000Y-97165641D01*
X147075083Y-97154643D01*
X147076500Y-97149972D01*
X147078800Y-97145670D01*
X147084031Y-97139295D01*
X147097644Y-97118920D01*
X147107020Y-97096281D01*
X147111800Y-97072247D01*
X147111799Y-97047743D01*
X147107017Y-97023709D01*
X147097639Y-97001071D01*
X147084031Y-96980705D01*
X147078800Y-96974330D01*
X147076500Y-96970028D01*
X147075083Y-96965357D01*
X147074000Y-96954359D01*
X147074000Y-96665641D01*
X147075083Y-96654643D01*
X147076500Y-96649972D01*
X147078800Y-96645670D01*
X147084031Y-96639295D01*
X147097644Y-96618920D01*
X147107020Y-96596281D01*
X147111800Y-96572247D01*
X147111799Y-96547743D01*
X147107017Y-96523709D01*
X147097639Y-96501071D01*
X147084031Y-96480705D01*
X147078800Y-96474330D01*
X147076500Y-96470028D01*
X147075083Y-96465357D01*
X147074000Y-96454359D01*
X147074000Y-96165641D01*
X147075083Y-96154643D01*
X147076500Y-96149972D01*
X147078800Y-96145670D01*
X147084031Y-96139295D01*
X147097644Y-96118920D01*
X147107020Y-96096281D01*
X147111800Y-96072247D01*
X147111799Y-96047743D01*
X147107017Y-96023709D01*
X147097639Y-96001071D01*
X147084031Y-95980705D01*
X147078800Y-95974330D01*
X147076500Y-95970028D01*
X147075083Y-95965357D01*
X147074000Y-95954359D01*
X147074000Y-95665641D01*
X147075083Y-95654643D01*
X147076500Y-95649972D01*
X147078800Y-95645670D01*
X147084031Y-95639295D01*
X147097644Y-95618920D01*
X147107020Y-95596281D01*
X147111800Y-95572247D01*
X147111799Y-95547743D01*
X147107017Y-95523709D01*
X147097639Y-95501071D01*
X147084031Y-95480705D01*
X147078800Y-95474330D01*
X147076500Y-95470028D01*
X147075083Y-95465357D01*
X147074000Y-95454359D01*
X147074000Y-95165641D01*
X147075083Y-95154643D01*
X147076500Y-95149972D01*
X147078800Y-95145670D01*
X147084031Y-95139295D01*
X147097644Y-95118920D01*
X147107020Y-95096281D01*
X147111800Y-95072247D01*
X147111799Y-95047743D01*
X147107017Y-95023709D01*
X147097639Y-95001071D01*
X147084031Y-94980705D01*
X147078800Y-94974330D01*
X147076500Y-94970028D01*
X147075083Y-94965357D01*
X147074000Y-94954359D01*
X147074000Y-94665641D01*
X147075083Y-94654643D01*
X147076500Y-94649972D01*
X147078800Y-94645670D01*
X147084031Y-94639295D01*
X147097644Y-94618920D01*
X147107020Y-94596281D01*
X147111800Y-94572247D01*
X147111799Y-94547743D01*
X147107017Y-94523709D01*
X147097639Y-94501071D01*
X147084031Y-94480705D01*
X147078800Y-94474330D01*
X147076500Y-94470028D01*
X147075083Y-94465357D01*
X147074000Y-94454359D01*
X147074000Y-94165641D01*
X147075083Y-94154643D01*
X147076500Y-94149972D01*
X147078800Y-94145670D01*
X147084031Y-94139295D01*
X147097644Y-94118920D01*
X147107020Y-94096281D01*
X147111800Y-94072247D01*
X147111799Y-94047743D01*
X147107017Y-94023709D01*
X147097639Y-94001071D01*
X147084031Y-93980705D01*
X147078800Y-93974330D01*
X147076500Y-93970028D01*
X147075083Y-93965357D01*
X147074000Y-93954359D01*
X147074000Y-93665641D01*
X147075083Y-93654643D01*
X147076500Y-93649972D01*
X147078800Y-93645670D01*
X147084031Y-93639295D01*
X147097644Y-93618920D01*
X147107020Y-93596281D01*
X147111800Y-93572247D01*
X147111799Y-93547743D01*
X147107017Y-93523709D01*
X147097639Y-93501071D01*
X147084031Y-93480705D01*
X147078800Y-93474330D01*
X147076500Y-93470028D01*
X147075083Y-93465357D01*
X147074000Y-93454359D01*
X147074000Y-93165641D01*
X147075083Y-93154643D01*
X147076500Y-93149972D01*
X147078800Y-93145670D01*
X147084031Y-93139295D01*
X147097644Y-93118920D01*
X147107020Y-93096281D01*
X147111800Y-93072247D01*
X147111799Y-93047743D01*
X147107017Y-93023709D01*
X147097639Y-93001071D01*
X147084031Y-92980705D01*
X147078800Y-92974330D01*
X147076500Y-92970028D01*
X147075083Y-92965357D01*
X147074000Y-92954359D01*
X147074000Y-92665641D01*
X147075083Y-92654643D01*
X147076500Y-92649972D01*
X147078800Y-92645670D01*
X147084031Y-92639295D01*
X147097644Y-92618920D01*
X147107020Y-92596281D01*
X147111800Y-92572247D01*
X147111799Y-92547743D01*
X147107017Y-92523709D01*
X147097639Y-92501071D01*
X147084031Y-92480705D01*
X147078800Y-92474330D01*
X147076500Y-92470028D01*
X147075083Y-92465357D01*
X147074000Y-92454359D01*
X147074000Y-92165641D01*
X147075083Y-92154643D01*
X147076500Y-92149972D01*
X147078800Y-92145670D01*
X147084031Y-92139295D01*
X147097644Y-92118920D01*
X147107020Y-92096281D01*
X147111800Y-92072247D01*
X147111799Y-92047743D01*
X147107017Y-92023709D01*
X147097639Y-92001071D01*
X147084031Y-91980705D01*
X147078800Y-91974330D01*
X147076500Y-91970028D01*
X147075083Y-91965357D01*
X147074000Y-91954359D01*
X147074000Y-91665641D01*
X147075083Y-91654643D01*
X147076500Y-91649972D01*
X147078800Y-91645670D01*
X147084031Y-91639295D01*
X147097644Y-91618920D01*
X147107020Y-91596281D01*
X147111800Y-91572247D01*
X147111799Y-91547743D01*
X147107017Y-91523709D01*
X147097639Y-91501071D01*
X147084031Y-91480705D01*
X147078800Y-91474330D01*
X147076500Y-91470028D01*
X147075083Y-91465357D01*
X147074000Y-91454359D01*
X147074000Y-91165641D01*
X147075083Y-91154643D01*
X147076500Y-91149972D01*
X147078800Y-91145670D01*
X147084031Y-91139295D01*
X147097644Y-91118920D01*
X147107020Y-91096281D01*
X147111800Y-91072247D01*
X147111800Y-91047753D01*
X147988200Y-91047753D01*
X147988201Y-91072257D01*
X147992983Y-91096291D01*
X148002361Y-91118929D01*
X148015969Y-91139295D01*
X148021200Y-91145670D01*
X148023500Y-91149972D01*
X148024917Y-91154643D01*
X148026000Y-91165641D01*
X148026000Y-91454359D01*
X148024917Y-91465357D01*
X148023500Y-91470028D01*
X148021200Y-91474330D01*
X148015969Y-91480705D01*
X148002356Y-91501080D01*
X147992980Y-91523719D01*
X147988200Y-91547753D01*
X147988201Y-91572257D01*
X147992983Y-91596291D01*
X148002361Y-91618929D01*
X148015969Y-91639295D01*
X148021200Y-91645670D01*
X148023500Y-91649972D01*
X148024917Y-91654643D01*
X148026000Y-91665641D01*
X148026000Y-91954359D01*
X148024917Y-91965357D01*
X148023500Y-91970028D01*
X148021200Y-91974330D01*
X148015969Y-91980705D01*
X148002356Y-92001080D01*
X147992980Y-92023719D01*
X147988200Y-92047753D01*
X147988201Y-92072257D01*
X147992983Y-92096291D01*
X148002361Y-92118929D01*
X148015969Y-92139295D01*
X148021200Y-92145670D01*
X148023500Y-92149972D01*
X148024917Y-92154643D01*
X148026000Y-92165641D01*
X148026000Y-92454359D01*
X148024917Y-92465357D01*
X148023500Y-92470028D01*
X148021200Y-92474330D01*
X148015969Y-92480705D01*
X148002356Y-92501080D01*
X147992980Y-92523719D01*
X147988200Y-92547753D01*
X147988201Y-92572257D01*
X147992983Y-92596291D01*
X148002361Y-92618929D01*
X148015969Y-92639295D01*
X148021200Y-92645670D01*
X148023500Y-92649972D01*
X148024917Y-92654643D01*
X148026000Y-92665641D01*
X148026000Y-92954359D01*
X148024917Y-92965357D01*
X148023500Y-92970028D01*
X148021200Y-92974330D01*
X148015969Y-92980705D01*
X148002356Y-93001080D01*
X147992980Y-93023719D01*
X147988200Y-93047753D01*
X147988201Y-93072257D01*
X147992983Y-93096291D01*
X148002361Y-93118929D01*
X148015969Y-93139295D01*
X148021200Y-93145670D01*
X148023500Y-93149972D01*
X148024917Y-93154643D01*
X148026000Y-93165641D01*
X148026000Y-93454359D01*
X148024917Y-93465357D01*
X148023500Y-93470028D01*
X148021200Y-93474330D01*
X148015969Y-93480705D01*
X148002356Y-93501080D01*
X147992980Y-93523719D01*
X147988200Y-93547753D01*
X147988201Y-93572257D01*
X147992983Y-93596291D01*
X148002361Y-93618929D01*
X148015969Y-93639295D01*
X148021200Y-93645670D01*
X148023500Y-93649972D01*
X148024917Y-93654643D01*
X148026000Y-93665641D01*
X148026000Y-93954359D01*
X148024917Y-93965357D01*
X148023500Y-93970028D01*
X148021200Y-93974330D01*
X148015969Y-93980705D01*
X148002356Y-94001080D01*
X147992980Y-94023719D01*
X147988200Y-94047753D01*
X147988201Y-94072257D01*
X147992983Y-94096291D01*
X148002361Y-94118929D01*
X148015969Y-94139295D01*
X148021200Y-94145670D01*
X148023500Y-94149972D01*
X148024917Y-94154643D01*
X148026000Y-94165641D01*
X148026000Y-94454359D01*
X148024917Y-94465357D01*
X148023500Y-94470028D01*
X148021200Y-94474330D01*
X148015969Y-94480705D01*
X148002356Y-94501080D01*
X147992980Y-94523719D01*
X147988200Y-94547753D01*
X147988201Y-94572257D01*
X147992983Y-94596291D01*
X148002361Y-94618929D01*
X148015969Y-94639295D01*
X148021200Y-94645670D01*
X148023500Y-94649972D01*
X148024917Y-94654643D01*
X148026000Y-94665641D01*
X148026000Y-94954359D01*
X148024917Y-94965357D01*
X148023500Y-94970028D01*
X148021200Y-94974330D01*
X148015969Y-94980705D01*
X148002356Y-95001080D01*
X147992980Y-95023719D01*
X147988200Y-95047753D01*
X147988201Y-95072257D01*
X147992983Y-95096291D01*
X148002361Y-95118929D01*
X148015969Y-95139295D01*
X148021200Y-95145670D01*
X148023500Y-95149972D01*
X148024917Y-95154643D01*
X148026000Y-95165641D01*
X148026000Y-95454359D01*
X148024917Y-95465357D01*
X148023500Y-95470028D01*
X148021200Y-95474330D01*
X148015969Y-95480705D01*
X148002356Y-95501080D01*
X147992980Y-95523719D01*
X147988200Y-95547753D01*
X147988201Y-95572257D01*
X147992983Y-95596291D01*
X148002361Y-95618929D01*
X148015969Y-95639295D01*
X148021200Y-95645670D01*
X148023500Y-95649972D01*
X148024917Y-95654643D01*
X148026000Y-95665641D01*
X148026000Y-95954359D01*
X148024917Y-95965357D01*
X148023500Y-95970028D01*
X148021200Y-95974330D01*
X148015969Y-95980705D01*
X148002356Y-96001080D01*
X147992980Y-96023719D01*
X147988200Y-96047753D01*
X147988201Y-96072257D01*
X147992983Y-96096291D01*
X148002361Y-96118929D01*
X148015969Y-96139295D01*
X148021200Y-96145670D01*
X148023500Y-96149972D01*
X148024917Y-96154643D01*
X148026000Y-96165641D01*
X148026000Y-96454359D01*
X148024917Y-96465357D01*
X148023500Y-96470028D01*
X148021200Y-96474330D01*
X148015969Y-96480705D01*
X148002356Y-96501080D01*
X147992980Y-96523719D01*
X147988200Y-96547753D01*
X147988201Y-96572257D01*
X147992983Y-96596291D01*
X148002361Y-96618929D01*
X148015969Y-96639295D01*
X148021200Y-96645670D01*
X148023500Y-96649972D01*
X148024917Y-96654643D01*
X148026000Y-96665641D01*
X148026000Y-96954359D01*
X148024917Y-96965357D01*
X148023500Y-96970028D01*
X148021200Y-96974330D01*
X148015969Y-96980705D01*
X148002356Y-97001080D01*
X147992980Y-97023719D01*
X147988200Y-97047753D01*
X147988201Y-97072257D01*
X147992983Y-97096291D01*
X148002361Y-97118929D01*
X148015969Y-97139295D01*
X148021200Y-97145670D01*
X148023500Y-97149972D01*
X148024917Y-97154643D01*
X148026000Y-97165641D01*
X148026000Y-97454359D01*
X148024917Y-97465357D01*
X148023500Y-97470028D01*
X148021200Y-97474330D01*
X148015969Y-97480705D01*
X148002356Y-97501080D01*
X147992980Y-97523719D01*
X147988200Y-97547753D01*
X147988201Y-97572257D01*
X147992983Y-97596291D01*
X148002361Y-97618929D01*
X148015969Y-97639295D01*
X148021200Y-97645670D01*
X148023500Y-97649972D01*
X148024917Y-97654643D01*
X148026000Y-97665641D01*
X148026000Y-97954359D01*
X148024917Y-97965357D01*
X148023500Y-97970028D01*
X148021200Y-97974330D01*
X148015969Y-97980705D01*
X148002356Y-98001080D01*
X147992980Y-98023719D01*
X147988200Y-98047753D01*
X147988201Y-98072257D01*
X147992983Y-98096291D01*
X148002361Y-98118929D01*
X148015969Y-98139295D01*
X148021200Y-98145670D01*
X148023500Y-98149972D01*
X148024917Y-98154643D01*
X148026000Y-98165641D01*
X148026000Y-98409000D01*
X148028402Y-98433386D01*
X148035515Y-98456835D01*
X148047066Y-98478446D01*
X148062612Y-98497388D01*
X148081554Y-98512934D01*
X148103165Y-98524485D01*
X148126614Y-98531598D01*
X148151000Y-98534000D01*
X148394359Y-98534000D01*
X148405357Y-98535083D01*
X148410028Y-98536500D01*
X148414330Y-98538800D01*
X148420705Y-98544031D01*
X148441080Y-98557644D01*
X148463719Y-98567020D01*
X148487753Y-98571800D01*
X148512257Y-98571799D01*
X148536291Y-98567017D01*
X148558929Y-98557639D01*
X148579295Y-98544031D01*
X148585670Y-98538800D01*
X148589972Y-98536500D01*
X148594643Y-98535083D01*
X148605641Y-98534000D01*
X148894359Y-98534000D01*
X148905357Y-98535083D01*
X148910028Y-98536500D01*
X148914330Y-98538800D01*
X148920705Y-98544031D01*
X148941080Y-98557644D01*
X148963719Y-98567020D01*
X148987753Y-98571800D01*
X149012257Y-98571799D01*
X149036291Y-98567017D01*
X149058929Y-98557639D01*
X149079295Y-98544031D01*
X149085670Y-98538800D01*
X149089972Y-98536500D01*
X149094643Y-98535083D01*
X149105641Y-98534000D01*
X149394359Y-98534000D01*
X149405357Y-98535083D01*
X149410028Y-98536500D01*
X149414330Y-98538800D01*
X149420705Y-98544031D01*
X149441080Y-98557644D01*
X149463719Y-98567020D01*
X149487753Y-98571800D01*
X149512257Y-98571799D01*
X149536291Y-98567017D01*
X149558929Y-98557639D01*
X149579295Y-98544031D01*
X149585670Y-98538800D01*
X149589972Y-98536500D01*
X149594643Y-98535083D01*
X149605641Y-98534000D01*
X149894359Y-98534000D01*
X149905357Y-98535083D01*
X149910028Y-98536500D01*
X149914330Y-98538800D01*
X149920705Y-98544031D01*
X149941080Y-98557644D01*
X149963719Y-98567020D01*
X149987753Y-98571800D01*
X150012257Y-98571799D01*
X150036291Y-98567017D01*
X150058929Y-98557639D01*
X150079295Y-98544031D01*
X150085670Y-98538800D01*
X150089972Y-98536500D01*
X150094643Y-98535083D01*
X150105641Y-98534000D01*
X150394359Y-98534000D01*
X150405357Y-98535083D01*
X150410028Y-98536500D01*
X150414330Y-98538800D01*
X150420705Y-98544031D01*
X150441080Y-98557644D01*
X150463719Y-98567020D01*
X150487753Y-98571800D01*
X150512257Y-98571799D01*
X150536291Y-98567017D01*
X150558929Y-98557639D01*
X150579295Y-98544031D01*
X150585670Y-98538800D01*
X150589972Y-98536500D01*
X150594643Y-98535083D01*
X150605641Y-98534000D01*
X150894359Y-98534000D01*
X150905357Y-98535083D01*
X150910028Y-98536500D01*
X150914330Y-98538800D01*
X150920705Y-98544031D01*
X150941080Y-98557644D01*
X150963719Y-98567020D01*
X150987753Y-98571800D01*
X151012257Y-98571799D01*
X151036291Y-98567017D01*
X151058929Y-98557639D01*
X151079295Y-98544031D01*
X151085670Y-98538800D01*
X151089972Y-98536500D01*
X151094643Y-98535083D01*
X151105641Y-98534000D01*
X151394359Y-98534000D01*
X151405357Y-98535083D01*
X151410028Y-98536500D01*
X151414330Y-98538800D01*
X151420705Y-98544031D01*
X151441080Y-98557644D01*
X151463719Y-98567020D01*
X151487753Y-98571800D01*
X151512257Y-98571799D01*
X151536291Y-98567017D01*
X151558929Y-98557639D01*
X151579295Y-98544031D01*
X151585670Y-98538800D01*
X151589972Y-98536500D01*
X151594643Y-98535083D01*
X151605641Y-98534000D01*
X151894359Y-98534000D01*
X151905357Y-98535083D01*
X151910028Y-98536500D01*
X151914330Y-98538800D01*
X151920705Y-98544031D01*
X151941080Y-98557644D01*
X151963719Y-98567020D01*
X151987753Y-98571800D01*
X152012257Y-98571799D01*
X152036291Y-98567017D01*
X152058929Y-98557639D01*
X152079295Y-98544031D01*
X152085670Y-98538800D01*
X152089972Y-98536500D01*
X152094643Y-98535083D01*
X152105641Y-98534000D01*
X152394359Y-98534000D01*
X152405357Y-98535083D01*
X152410028Y-98536500D01*
X152414330Y-98538800D01*
X152420705Y-98544031D01*
X152441080Y-98557644D01*
X152463719Y-98567020D01*
X152487753Y-98571800D01*
X152512257Y-98571799D01*
X152536291Y-98567017D01*
X152558929Y-98557639D01*
X152579295Y-98544031D01*
X152585670Y-98538800D01*
X152589972Y-98536500D01*
X152594643Y-98535083D01*
X152605641Y-98534000D01*
X152894359Y-98534000D01*
X152905357Y-98535083D01*
X152910028Y-98536500D01*
X152914330Y-98538800D01*
X152920705Y-98544031D01*
X152941080Y-98557644D01*
X152963719Y-98567020D01*
X152987753Y-98571800D01*
X153012257Y-98571799D01*
X153036291Y-98567017D01*
X153058929Y-98557639D01*
X153079295Y-98544031D01*
X153085670Y-98538800D01*
X153089972Y-98536500D01*
X153094643Y-98535083D01*
X153105641Y-98534000D01*
X153394359Y-98534000D01*
X153405357Y-98535083D01*
X153410028Y-98536500D01*
X153414330Y-98538800D01*
X153420705Y-98544031D01*
X153441080Y-98557644D01*
X153463719Y-98567020D01*
X153487753Y-98571800D01*
X153512257Y-98571799D01*
X153536291Y-98567017D01*
X153558929Y-98557639D01*
X153579295Y-98544031D01*
X153585670Y-98538800D01*
X153589972Y-98536500D01*
X153594643Y-98535083D01*
X153605641Y-98534000D01*
X153894359Y-98534000D01*
X153905357Y-98535083D01*
X153910028Y-98536500D01*
X153914330Y-98538800D01*
X153920705Y-98544031D01*
X153941080Y-98557644D01*
X153963719Y-98567020D01*
X153987753Y-98571800D01*
X154012257Y-98571799D01*
X154036291Y-98567017D01*
X154058929Y-98557639D01*
X154079295Y-98544031D01*
X154085670Y-98538800D01*
X154089972Y-98536500D01*
X154094643Y-98535083D01*
X154105641Y-98534000D01*
X154394359Y-98534000D01*
X154405357Y-98535083D01*
X154410028Y-98536500D01*
X154414330Y-98538800D01*
X154420705Y-98544031D01*
X154441080Y-98557644D01*
X154463719Y-98567020D01*
X154487753Y-98571800D01*
X154512257Y-98571799D01*
X154536291Y-98567017D01*
X154558929Y-98557639D01*
X154579295Y-98544031D01*
X154585670Y-98538800D01*
X154589972Y-98536500D01*
X154594643Y-98535083D01*
X154605641Y-98534000D01*
X154894359Y-98534000D01*
X154905357Y-98535083D01*
X154910028Y-98536500D01*
X154914330Y-98538800D01*
X154920705Y-98544031D01*
X154941080Y-98557644D01*
X154963719Y-98567020D01*
X154987753Y-98571800D01*
X155012257Y-98571799D01*
X155036291Y-98567017D01*
X155058929Y-98557639D01*
X155079295Y-98544031D01*
X155085670Y-98538800D01*
X155089972Y-98536500D01*
X155094643Y-98535083D01*
X155105641Y-98534000D01*
X155394359Y-98534000D01*
X155405357Y-98535083D01*
X155410028Y-98536500D01*
X155414330Y-98538800D01*
X155420705Y-98544031D01*
X155441080Y-98557644D01*
X155463719Y-98567020D01*
X155487753Y-98571800D01*
X155512257Y-98571799D01*
X155536291Y-98567017D01*
X155558929Y-98557639D01*
X155579295Y-98544031D01*
X155585670Y-98538800D01*
X155589972Y-98536500D01*
X155594643Y-98535083D01*
X155605641Y-98534000D01*
X155849000Y-98534000D01*
X155873386Y-98531598D01*
X155896835Y-98524485D01*
X155918446Y-98512934D01*
X155937388Y-98497388D01*
X155952934Y-98478446D01*
X155964485Y-98456835D01*
X155971598Y-98433386D01*
X155974000Y-98409000D01*
X155974000Y-98165641D01*
X155975083Y-98154643D01*
X155976500Y-98149972D01*
X155978800Y-98145670D01*
X155984031Y-98139295D01*
X155997644Y-98118920D01*
X156007020Y-98096281D01*
X156011800Y-98072247D01*
X156011799Y-98047743D01*
X156007017Y-98023709D01*
X155997639Y-98001071D01*
X155984031Y-97980705D01*
X155978800Y-97974330D01*
X155976500Y-97970028D01*
X155975083Y-97965357D01*
X155974000Y-97954359D01*
X155974000Y-97665641D01*
X155975083Y-97654643D01*
X155976500Y-97649972D01*
X155978800Y-97645670D01*
X155984031Y-97639295D01*
X155997644Y-97618920D01*
X156007020Y-97596281D01*
X156011800Y-97572247D01*
X156011799Y-97547743D01*
X156007017Y-97523709D01*
X155997639Y-97501071D01*
X155984031Y-97480705D01*
X155978800Y-97474330D01*
X155976500Y-97470028D01*
X155975083Y-97465357D01*
X155974000Y-97454359D01*
X155974000Y-97165641D01*
X155975083Y-97154643D01*
X155976500Y-97149972D01*
X155978800Y-97145670D01*
X155984031Y-97139295D01*
X155997644Y-97118920D01*
X156007020Y-97096281D01*
X156011800Y-97072247D01*
X156011799Y-97047743D01*
X156007017Y-97023709D01*
X155997639Y-97001071D01*
X155984031Y-96980705D01*
X155978800Y-96974330D01*
X155976500Y-96970028D01*
X155975083Y-96965357D01*
X155974000Y-96954359D01*
X155974000Y-96665641D01*
X155975083Y-96654643D01*
X155976500Y-96649972D01*
X155978800Y-96645670D01*
X155984031Y-96639295D01*
X155997644Y-96618920D01*
X156007020Y-96596281D01*
X156011800Y-96572247D01*
X156011799Y-96547743D01*
X156007017Y-96523709D01*
X155997639Y-96501071D01*
X155984031Y-96480705D01*
X155978800Y-96474330D01*
X155976500Y-96470028D01*
X155975083Y-96465357D01*
X155974000Y-96454359D01*
X155974000Y-96165641D01*
X155975083Y-96154643D01*
X155976500Y-96149972D01*
X155978800Y-96145670D01*
X155984031Y-96139295D01*
X155997644Y-96118920D01*
X156007020Y-96096281D01*
X156011800Y-96072247D01*
X156011799Y-96047743D01*
X156007017Y-96023709D01*
X155997639Y-96001071D01*
X155984031Y-95980705D01*
X155978800Y-95974330D01*
X155976500Y-95970028D01*
X155975083Y-95965357D01*
X155974000Y-95954359D01*
X155974000Y-95665641D01*
X155975083Y-95654643D01*
X155976500Y-95649972D01*
X155978800Y-95645670D01*
X155984031Y-95639295D01*
X155997644Y-95618920D01*
X156007020Y-95596281D01*
X156011800Y-95572247D01*
X156011799Y-95547743D01*
X156007017Y-95523709D01*
X155997639Y-95501071D01*
X155984031Y-95480705D01*
X155978800Y-95474330D01*
X155976500Y-95470028D01*
X155975083Y-95465357D01*
X155974000Y-95454359D01*
X155974000Y-95165641D01*
X155975083Y-95154643D01*
X155976500Y-95149972D01*
X155978800Y-95145670D01*
X155984031Y-95139295D01*
X155997644Y-95118920D01*
X156007020Y-95096281D01*
X156011800Y-95072247D01*
X156011799Y-95047743D01*
X156007017Y-95023709D01*
X155997639Y-95001071D01*
X155984031Y-94980705D01*
X155978800Y-94974330D01*
X155976500Y-94970028D01*
X155975083Y-94965357D01*
X155974000Y-94954359D01*
X155974000Y-94665641D01*
X155975083Y-94654643D01*
X155976500Y-94649972D01*
X155978800Y-94645670D01*
X155984031Y-94639295D01*
X155997644Y-94618920D01*
X156007020Y-94596281D01*
X156011800Y-94572247D01*
X156011799Y-94547743D01*
X156007017Y-94523709D01*
X155997639Y-94501071D01*
X155984031Y-94480705D01*
X155978800Y-94474330D01*
X155976500Y-94470028D01*
X155975083Y-94465357D01*
X155974000Y-94454359D01*
X155974000Y-94165641D01*
X155975083Y-94154643D01*
X155976500Y-94149972D01*
X155978800Y-94145670D01*
X155984031Y-94139295D01*
X155997644Y-94118920D01*
X156007020Y-94096281D01*
X156011800Y-94072247D01*
X156011799Y-94047743D01*
X156007017Y-94023709D01*
X155997639Y-94001071D01*
X155984031Y-93980705D01*
X155978800Y-93974330D01*
X155976500Y-93970028D01*
X155975083Y-93965357D01*
X155974000Y-93954359D01*
X155974000Y-93665641D01*
X155975083Y-93654643D01*
X155976500Y-93649972D01*
X155978800Y-93645670D01*
X155984031Y-93639295D01*
X155997644Y-93618920D01*
X156007020Y-93596281D01*
X156011800Y-93572247D01*
X156011799Y-93547743D01*
X156007017Y-93523709D01*
X155997639Y-93501071D01*
X155984031Y-93480705D01*
X155978800Y-93474330D01*
X155976500Y-93470028D01*
X155975083Y-93465357D01*
X155974000Y-93454359D01*
X155974000Y-93165641D01*
X155975083Y-93154643D01*
X155976500Y-93149972D01*
X155978800Y-93145670D01*
X155984031Y-93139295D01*
X155997644Y-93118920D01*
X156007020Y-93096281D01*
X156011800Y-93072247D01*
X156011799Y-93047743D01*
X156007017Y-93023709D01*
X155997639Y-93001071D01*
X155984031Y-92980705D01*
X155978800Y-92974330D01*
X155976500Y-92970028D01*
X155975083Y-92965357D01*
X155974000Y-92954359D01*
X155974000Y-92665641D01*
X155975083Y-92654643D01*
X155976500Y-92649972D01*
X155978800Y-92645670D01*
X155984031Y-92639295D01*
X155997644Y-92618920D01*
X156007020Y-92596281D01*
X156011800Y-92572247D01*
X156011799Y-92547743D01*
X156007017Y-92523709D01*
X155997639Y-92501071D01*
X155984031Y-92480705D01*
X155978800Y-92474330D01*
X155976500Y-92470028D01*
X155975083Y-92465357D01*
X155974000Y-92454359D01*
X155974000Y-92165641D01*
X155975083Y-92154643D01*
X155976500Y-92149972D01*
X155978800Y-92145670D01*
X155984031Y-92139295D01*
X155997644Y-92118920D01*
X156007020Y-92096281D01*
X156011800Y-92072247D01*
X156011799Y-92047743D01*
X156007017Y-92023709D01*
X155997639Y-92001071D01*
X155984031Y-91980705D01*
X155978800Y-91974330D01*
X155976500Y-91970028D01*
X155975083Y-91965357D01*
X155974000Y-91954359D01*
X155974000Y-91665641D01*
X155975083Y-91654643D01*
X155976500Y-91649972D01*
X155978800Y-91645670D01*
X155984031Y-91639295D01*
X155997644Y-91618920D01*
X156007020Y-91596281D01*
X156011800Y-91572247D01*
X156011799Y-91547743D01*
X156007017Y-91523709D01*
X155997639Y-91501071D01*
X155984031Y-91480705D01*
X155978800Y-91474330D01*
X155976500Y-91470028D01*
X155975083Y-91465357D01*
X155974000Y-91454359D01*
X155974000Y-91165641D01*
X155975083Y-91154643D01*
X155976500Y-91149972D01*
X155978800Y-91145670D01*
X155984031Y-91139295D01*
X155997644Y-91118920D01*
X156007020Y-91096281D01*
X156011800Y-91072247D01*
X156011799Y-91047743D01*
X156007017Y-91023709D01*
X155997639Y-91001071D01*
X155984031Y-90980705D01*
X155978800Y-90974330D01*
X155976500Y-90970028D01*
X155975083Y-90965357D01*
X155974000Y-90954359D01*
X155974000Y-90711000D01*
X155971598Y-90686614D01*
X155964485Y-90663165D01*
X155952934Y-90641554D01*
X155937388Y-90622612D01*
X155918446Y-90607066D01*
X155896835Y-90595515D01*
X155873386Y-90588402D01*
X155849000Y-90586000D01*
X155605641Y-90586000D01*
X155594643Y-90584917D01*
X155589972Y-90583500D01*
X155585670Y-90581200D01*
X155579295Y-90575969D01*
X155558920Y-90562356D01*
X155536281Y-90552980D01*
X155512247Y-90548200D01*
X155487743Y-90548201D01*
X155463709Y-90552983D01*
X155441071Y-90562361D01*
X155420705Y-90575969D01*
X155414330Y-90581200D01*
X155410028Y-90583500D01*
X155405357Y-90584917D01*
X155394359Y-90586000D01*
X155105641Y-90586000D01*
X155094643Y-90584917D01*
X155089972Y-90583500D01*
X155085670Y-90581200D01*
X155079295Y-90575969D01*
X155058920Y-90562356D01*
X155036281Y-90552980D01*
X155012247Y-90548200D01*
X154987743Y-90548201D01*
X154963709Y-90552983D01*
X154941071Y-90562361D01*
X154920705Y-90575969D01*
X154914330Y-90581200D01*
X154910028Y-90583500D01*
X154905357Y-90584917D01*
X154894359Y-90586000D01*
X154605641Y-90586000D01*
X154594643Y-90584917D01*
X154589972Y-90583500D01*
X154585670Y-90581200D01*
X154579295Y-90575969D01*
X154558920Y-90562356D01*
X154536281Y-90552980D01*
X154512247Y-90548200D01*
X154487743Y-90548201D01*
X154463709Y-90552983D01*
X154441071Y-90562361D01*
X154420705Y-90575969D01*
X154414330Y-90581200D01*
X154410028Y-90583500D01*
X154405357Y-90584917D01*
X154394359Y-90586000D01*
X154105641Y-90586000D01*
X154094643Y-90584917D01*
X154089972Y-90583500D01*
X154085670Y-90581200D01*
X154079295Y-90575969D01*
X154058920Y-90562356D01*
X154036281Y-90552980D01*
X154012247Y-90548200D01*
X153987743Y-90548201D01*
X153963709Y-90552983D01*
X153941071Y-90562361D01*
X153920705Y-90575969D01*
X153914330Y-90581200D01*
X153910028Y-90583500D01*
X153905357Y-90584917D01*
X153894359Y-90586000D01*
X153605641Y-90586000D01*
X153594643Y-90584917D01*
X153589972Y-90583500D01*
X153585670Y-90581200D01*
X153579295Y-90575969D01*
X153558920Y-90562356D01*
X153536281Y-90552980D01*
X153512247Y-90548200D01*
X153487743Y-90548201D01*
X153463709Y-90552983D01*
X153441071Y-90562361D01*
X153420705Y-90575969D01*
X153414330Y-90581200D01*
X153410028Y-90583500D01*
X153405357Y-90584917D01*
X153394359Y-90586000D01*
X153105641Y-90586000D01*
X153094643Y-90584917D01*
X153089972Y-90583500D01*
X153085670Y-90581200D01*
X153079295Y-90575969D01*
X153058920Y-90562356D01*
X153036281Y-90552980D01*
X153012247Y-90548200D01*
X152987743Y-90548201D01*
X152963709Y-90552983D01*
X152941071Y-90562361D01*
X152920705Y-90575969D01*
X152914330Y-90581200D01*
X152910028Y-90583500D01*
X152905357Y-90584917D01*
X152894359Y-90586000D01*
X152605641Y-90586000D01*
X152594643Y-90584917D01*
X152589972Y-90583500D01*
X152585670Y-90581200D01*
X152579295Y-90575969D01*
X152558920Y-90562356D01*
X152536281Y-90552980D01*
X152512247Y-90548200D01*
X152487743Y-90548201D01*
X152463709Y-90552983D01*
X152441071Y-90562361D01*
X152420705Y-90575969D01*
X152414330Y-90581200D01*
X152410028Y-90583500D01*
X152405357Y-90584917D01*
X152394359Y-90586000D01*
X152105641Y-90586000D01*
X152094643Y-90584917D01*
X152089972Y-90583500D01*
X152085670Y-90581200D01*
X152079295Y-90575969D01*
X152058920Y-90562356D01*
X152036281Y-90552980D01*
X152012247Y-90548200D01*
X151987743Y-90548201D01*
X151963709Y-90552983D01*
X151941071Y-90562361D01*
X151920705Y-90575969D01*
X151914330Y-90581200D01*
X151910028Y-90583500D01*
X151905357Y-90584917D01*
X151894359Y-90586000D01*
X151605641Y-90586000D01*
X151594643Y-90584917D01*
X151589972Y-90583500D01*
X151585670Y-90581200D01*
X151579295Y-90575969D01*
X151558920Y-90562356D01*
X151536281Y-90552980D01*
X151512247Y-90548200D01*
X151487743Y-90548201D01*
X151463709Y-90552983D01*
X151441071Y-90562361D01*
X151420705Y-90575969D01*
X151414330Y-90581200D01*
X151410028Y-90583500D01*
X151405357Y-90584917D01*
X151394359Y-90586000D01*
X151105641Y-90586000D01*
X151094643Y-90584917D01*
X151089972Y-90583500D01*
X151085670Y-90581200D01*
X151079295Y-90575969D01*
X151058920Y-90562356D01*
X151036281Y-90552980D01*
X151012247Y-90548200D01*
X150987743Y-90548201D01*
X150963709Y-90552983D01*
X150941071Y-90562361D01*
X150920705Y-90575969D01*
X150914330Y-90581200D01*
X150910028Y-90583500D01*
X150905357Y-90584917D01*
X150894359Y-90586000D01*
X150605641Y-90586000D01*
X150594643Y-90584917D01*
X150589972Y-90583500D01*
X150585670Y-90581200D01*
X150579295Y-90575969D01*
X150558920Y-90562356D01*
X150536281Y-90552980D01*
X150512247Y-90548200D01*
X150487743Y-90548201D01*
X150463709Y-90552983D01*
X150441071Y-90562361D01*
X150420705Y-90575969D01*
X150414330Y-90581200D01*
X150410028Y-90583500D01*
X150405357Y-90584917D01*
X150394359Y-90586000D01*
X150105641Y-90586000D01*
X150094643Y-90584917D01*
X150089972Y-90583500D01*
X150085670Y-90581200D01*
X150079295Y-90575969D01*
X150058920Y-90562356D01*
X150036281Y-90552980D01*
X150012247Y-90548200D01*
X149987743Y-90548201D01*
X149963709Y-90552983D01*
X149941071Y-90562361D01*
X149920705Y-90575969D01*
X149914330Y-90581200D01*
X149910028Y-90583500D01*
X149905357Y-90584917D01*
X149894359Y-90586000D01*
X149605641Y-90586000D01*
X149594643Y-90584917D01*
X149589972Y-90583500D01*
X149585670Y-90581200D01*
X149579295Y-90575969D01*
X149558920Y-90562356D01*
X149536281Y-90552980D01*
X149512247Y-90548200D01*
X149487743Y-90548201D01*
X149463709Y-90552983D01*
X149441071Y-90562361D01*
X149420705Y-90575969D01*
X149414330Y-90581200D01*
X149410028Y-90583500D01*
X149405357Y-90584917D01*
X149394359Y-90586000D01*
X149105641Y-90586000D01*
X149094643Y-90584917D01*
X149089972Y-90583500D01*
X149085670Y-90581200D01*
X149079295Y-90575969D01*
X149058920Y-90562356D01*
X149036281Y-90552980D01*
X149012247Y-90548200D01*
X148987743Y-90548201D01*
X148963709Y-90552983D01*
X148941071Y-90562361D01*
X148920705Y-90575969D01*
X148914330Y-90581200D01*
X148910028Y-90583500D01*
X148905357Y-90584917D01*
X148894359Y-90586000D01*
X148605641Y-90586000D01*
X148594643Y-90584917D01*
X148589972Y-90583500D01*
X148585670Y-90581200D01*
X148579295Y-90575969D01*
X148558920Y-90562356D01*
X148536281Y-90552980D01*
X148512247Y-90548200D01*
X148487743Y-90548201D01*
X148463709Y-90552983D01*
X148441071Y-90562361D01*
X148420705Y-90575969D01*
X148414330Y-90581200D01*
X148410028Y-90583500D01*
X148405357Y-90584917D01*
X148394359Y-90586000D01*
X148151000Y-90586000D01*
X148126614Y-90588402D01*
X148103165Y-90595515D01*
X148081554Y-90607066D01*
X148062612Y-90622612D01*
X148047066Y-90641554D01*
X148035515Y-90663165D01*
X148028402Y-90686614D01*
X148026000Y-90711000D01*
X148026000Y-90954359D01*
X148024917Y-90965357D01*
X148023500Y-90970028D01*
X148021200Y-90974330D01*
X148015969Y-90980705D01*
X148002356Y-91001080D01*
X147992980Y-91023719D01*
X147988200Y-91047753D01*
X147111800Y-91047753D01*
X147111799Y-91047743D01*
X147107017Y-91023709D01*
X147097639Y-91001071D01*
X147084031Y-90980705D01*
X147078800Y-90974330D01*
X147076500Y-90970028D01*
X147075083Y-90965357D01*
X147074000Y-90954359D01*
X147074000Y-90665641D01*
X147075083Y-90654643D01*
X147076500Y-90649972D01*
X147078800Y-90645670D01*
X147081896Y-90641896D01*
X147085670Y-90638800D01*
X147089972Y-90636500D01*
X147094643Y-90635083D01*
X147105641Y-90634000D01*
X147949000Y-90634000D01*
X147973386Y-90631598D01*
X147996835Y-90624485D01*
X148018446Y-90612934D01*
X148037388Y-90597388D01*
X148052934Y-90578446D01*
X148064485Y-90556835D01*
X148071598Y-90533386D01*
X148074000Y-90509000D01*
X148074000Y-89665641D01*
X148075083Y-89654643D01*
X148076500Y-89649972D01*
X148078800Y-89645670D01*
X148081896Y-89641896D01*
X148085670Y-89638800D01*
X148089972Y-89636500D01*
X148094643Y-89635083D01*
X148105641Y-89634000D01*
X148394359Y-89634000D01*
X148405357Y-89635083D01*
X148405357Y-89635083D01*
G37*
G36*
X154509336Y-92010585D02*
X154518904Y-92013488D01*
X154527725Y-92018203D01*
X154535454Y-92024546D01*
X154541797Y-92032275D01*
X154546512Y-92041096D01*
X154549415Y-92050664D01*
X154551000Y-92066758D01*
X154551000Y-97053242D01*
X154549415Y-97069336D01*
X154546512Y-97078904D01*
X154541797Y-97087725D01*
X154535454Y-97095454D01*
X154527725Y-97101797D01*
X154518904Y-97106512D01*
X154509336Y-97109415D01*
X154493242Y-97111000D01*
X149506758Y-97111000D01*
X149490664Y-97109415D01*
X149481096Y-97106512D01*
X149472275Y-97101797D01*
X149464546Y-97095454D01*
X149458203Y-97087725D01*
X149453488Y-97078904D01*
X149450585Y-97069336D01*
X149449000Y-97053242D01*
X149449000Y-92066758D01*
X149450585Y-92050664D01*
X149453488Y-92041096D01*
X149458203Y-92032275D01*
X149464546Y-92024546D01*
X149472275Y-92018203D01*
X149481096Y-92013488D01*
X149490664Y-92010585D01*
X149506758Y-92009000D01*
X154493242Y-92009000D01*
X154509336Y-92010585D01*
X154509336Y-92010585D01*
G37*
G36*
X160681000Y-99161000D02*
X160079000Y-99161000D01*
X160079000Y-98559000D01*
X160681000Y-98559000D01*
X160681000Y-99161000D01*
X160681000Y-99161000D01*
G37*
G36*
X163005734Y-93423232D02*
X163215202Y-93509996D01*
X163403723Y-93635962D01*
X163564038Y-93796277D01*
X163690004Y-93984798D01*
X163776768Y-94194266D01*
X163821000Y-94416635D01*
X163821000Y-94643365D01*
X163776768Y-94865734D01*
X163690004Y-95075202D01*
X163564038Y-95263723D01*
X163403723Y-95424038D01*
X163215202Y-95550004D01*
X163005734Y-95636768D01*
X162783365Y-95681000D01*
X162556635Y-95681000D01*
X162334266Y-95636768D01*
X162124798Y-95550004D01*
X161936277Y-95424038D01*
X161775962Y-95263723D01*
X161649996Y-95075202D01*
X161563232Y-94865734D01*
X161519000Y-94643365D01*
X161519000Y-94416635D01*
X161563232Y-94194266D01*
X161649996Y-93984798D01*
X161775962Y-93796277D01*
X161936277Y-93635962D01*
X162124798Y-93509996D01*
X162334266Y-93423232D01*
X162556635Y-93379000D01*
X162783365Y-93379000D01*
X163005734Y-93423232D01*
X163005734Y-93423232D01*
G37*
G36*
X159597396Y-92865546D02*
X159770466Y-92937234D01*
X159926230Y-93041312D01*
X160058688Y-93173770D01*
X160162766Y-93329534D01*
X160234454Y-93502604D01*
X160271000Y-93686333D01*
X160271000Y-93873667D01*
X160234454Y-94057396D01*
X160162766Y-94230466D01*
X160058688Y-94386230D01*
X159926230Y-94518688D01*
X159770466Y-94622766D01*
X159597396Y-94694454D01*
X159413667Y-94731000D01*
X159226333Y-94731000D01*
X159042604Y-94694454D01*
X158869534Y-94622766D01*
X158713770Y-94518688D01*
X158581312Y-94386230D01*
X158477234Y-94230466D01*
X158405546Y-94057396D01*
X158369000Y-93873667D01*
X158369000Y-93686333D01*
X158405546Y-93502604D01*
X158477234Y-93329534D01*
X158581312Y-93173770D01*
X158713770Y-93041312D01*
X158869534Y-92937234D01*
X159042604Y-92865546D01*
X159226333Y-92829000D01*
X159413667Y-92829000D01*
X159597396Y-92865546D01*
X159597396Y-92865546D01*
G37*
G36*
X144567396Y-92865546D02*
X144740466Y-92937234D01*
X144896230Y-93041312D01*
X145028688Y-93173770D01*
X145132766Y-93329534D01*
X145204454Y-93502604D01*
X145241000Y-93686333D01*
X145241000Y-93873667D01*
X145204454Y-94057396D01*
X145132766Y-94230466D01*
X145028688Y-94386230D01*
X144896230Y-94518688D01*
X144740466Y-94622766D01*
X144567396Y-94694454D01*
X144383667Y-94731000D01*
X144196333Y-94731000D01*
X144012604Y-94694454D01*
X143839534Y-94622766D01*
X143683770Y-94518688D01*
X143551312Y-94386230D01*
X143447234Y-94230466D01*
X143375546Y-94057396D01*
X143339000Y-93873667D01*
X143339000Y-93686333D01*
X143375546Y-93502604D01*
X143447234Y-93329534D01*
X143551312Y-93173770D01*
X143683770Y-93041312D01*
X143839534Y-92937234D01*
X144012604Y-92865546D01*
X144196333Y-92829000D01*
X144383667Y-92829000D01*
X144567396Y-92865546D01*
X144567396Y-92865546D01*
G37*
G36*
X166844499Y-92063445D02*
X166881993Y-92074819D01*
X166916557Y-92093294D01*
X166946847Y-92118153D01*
X166971706Y-92148443D01*
X166990181Y-92183007D01*
X167001555Y-92220501D01*
X167006000Y-92265638D01*
X167006000Y-93004362D01*
X167001555Y-93049499D01*
X166990181Y-93086993D01*
X166971706Y-93121557D01*
X166946847Y-93151847D01*
X166916557Y-93176706D01*
X166881993Y-93195181D01*
X166844499Y-93206555D01*
X166799362Y-93211000D01*
X166160638Y-93211000D01*
X166115501Y-93206555D01*
X166078007Y-93195181D01*
X166043443Y-93176706D01*
X166013153Y-93151847D01*
X165988294Y-93121557D01*
X165969819Y-93086993D01*
X165958445Y-93049499D01*
X165954000Y-93004362D01*
X165954000Y-92265638D01*
X165958445Y-92220501D01*
X165969819Y-92183007D01*
X165988294Y-92148443D01*
X166013153Y-92118153D01*
X166043443Y-92093294D01*
X166078007Y-92074819D01*
X166115501Y-92063445D01*
X166160638Y-92059000D01*
X166799362Y-92059000D01*
X166844499Y-92063445D01*
X166844499Y-92063445D01*
G37*
G36*
X161916991Y-90256101D02*
X162002321Y-90264505D01*
X162139172Y-90306019D01*
X162139174Y-90306020D01*
X162139177Y-90306021D01*
X162265296Y-90373432D01*
X162375843Y-90464157D01*
X162466568Y-90574704D01*
X162533979Y-90700823D01*
X162533980Y-90700826D01*
X162533981Y-90700828D01*
X162575495Y-90837679D01*
X162589512Y-90980000D01*
X162575495Y-91122321D01*
X162535440Y-91254362D01*
X162533979Y-91259177D01*
X162466568Y-91385296D01*
X162375843Y-91495843D01*
X162265296Y-91586568D01*
X162139177Y-91653979D01*
X162139174Y-91653980D01*
X162139172Y-91653981D01*
X162002321Y-91695495D01*
X161916991Y-91703899D01*
X161895660Y-91706000D01*
X161824340Y-91706000D01*
X161803009Y-91703899D01*
X161717679Y-91695495D01*
X161580828Y-91653981D01*
X161580826Y-91653980D01*
X161580823Y-91653979D01*
X161454704Y-91586568D01*
X161344157Y-91495843D01*
X161253432Y-91385296D01*
X161186021Y-91259177D01*
X161184560Y-91254362D01*
X161144505Y-91122321D01*
X161130488Y-90980000D01*
X161144505Y-90837679D01*
X161186019Y-90700828D01*
X161186020Y-90700826D01*
X161186021Y-90700823D01*
X161253432Y-90574704D01*
X161344157Y-90464157D01*
X161454704Y-90373432D01*
X161580823Y-90306021D01*
X161580826Y-90306020D01*
X161580828Y-90306019D01*
X161717679Y-90264505D01*
X161803009Y-90256101D01*
X161824340Y-90254000D01*
X161895660Y-90254000D01*
X161916991Y-90256101D01*
X161916991Y-90256101D01*
G37*
G36*
X164586000Y-91706000D02*
X163134000Y-91706000D01*
X163134000Y-90254000D01*
X164586000Y-90254000D01*
X164586000Y-91706000D01*
X164586000Y-91706000D01*
G37*
G36*
X143698445Y-86996254D02*
X144046593Y-87065504D01*
X144456249Y-87235189D01*
X144824929Y-87481534D01*
X145138466Y-87795071D01*
X145384811Y-88163751D01*
X145554496Y-88573407D01*
X145641000Y-89008296D01*
X145641000Y-89451704D01*
X145554496Y-89886593D01*
X145384811Y-90296249D01*
X145138466Y-90664929D01*
X144824929Y-90978466D01*
X144456249Y-91224811D01*
X144046593Y-91394496D01*
X143698445Y-91463746D01*
X143611706Y-91481000D01*
X143168294Y-91481000D01*
X143081555Y-91463746D01*
X142733407Y-91394496D01*
X142323751Y-91224811D01*
X141955071Y-90978466D01*
X141641534Y-90664929D01*
X141395189Y-90296249D01*
X141225504Y-89886593D01*
X141139000Y-89451704D01*
X141139000Y-89008296D01*
X141225504Y-88573407D01*
X141395189Y-88163751D01*
X141641534Y-87795071D01*
X141955071Y-87481534D01*
X142323751Y-87235189D01*
X142733407Y-87065504D01*
X143081555Y-86996254D01*
X143168294Y-86979000D01*
X143611706Y-86979000D01*
X143698445Y-86996254D01*
X143698445Y-86996254D01*
G37*
G36*
X166844499Y-90313445D02*
X166881993Y-90324819D01*
X166916557Y-90343294D01*
X166946847Y-90368153D01*
X166971706Y-90398443D01*
X166990181Y-90433007D01*
X167001555Y-90470501D01*
X167006000Y-90515638D01*
X167006000Y-91254362D01*
X167001555Y-91299499D01*
X166990181Y-91336993D01*
X166971706Y-91371557D01*
X166946847Y-91401847D01*
X166916557Y-91426706D01*
X166881993Y-91445181D01*
X166844499Y-91456555D01*
X166799362Y-91461000D01*
X166160638Y-91461000D01*
X166115501Y-91456555D01*
X166078007Y-91445181D01*
X166043443Y-91426706D01*
X166013153Y-91401847D01*
X165988294Y-91371557D01*
X165969819Y-91336993D01*
X165958445Y-91299499D01*
X165954000Y-91254362D01*
X165954000Y-90515638D01*
X165958445Y-90470501D01*
X165969819Y-90433007D01*
X165988294Y-90398443D01*
X166013153Y-90368153D01*
X166043443Y-90343294D01*
X166078007Y-90324819D01*
X166115501Y-90313445D01*
X166160638Y-90309000D01*
X166799362Y-90309000D01*
X166844499Y-90313445D01*
X166844499Y-90313445D01*
G37*
G36*
X164656000Y-87890000D02*
X145929000Y-87890000D01*
X145929000Y-86279000D01*
X164656000Y-86279000D01*
X164656000Y-87890000D01*
X164656000Y-87890000D01*
G37*
G36*
X148585734Y-83453232D02*
X148795202Y-83539996D01*
X148983723Y-83665962D01*
X149144038Y-83826277D01*
X149270004Y-84014798D01*
X149356768Y-84224266D01*
X149401000Y-84446635D01*
X149401000Y-84673365D01*
X149356768Y-84895734D01*
X149270004Y-85105202D01*
X149144038Y-85293723D01*
X148983723Y-85454038D01*
X148795202Y-85580004D01*
X148585734Y-85666768D01*
X148363365Y-85711000D01*
X148136635Y-85711000D01*
X147914266Y-85666768D01*
X147704798Y-85580004D01*
X147516277Y-85454038D01*
X147355962Y-85293723D01*
X147229996Y-85105202D01*
X147143232Y-84895734D01*
X147099000Y-84673365D01*
X147099000Y-84446635D01*
X147143232Y-84224266D01*
X147229996Y-84014798D01*
X147355962Y-83826277D01*
X147516277Y-83665962D01*
X147704798Y-83539996D01*
X147914266Y-83453232D01*
X148136635Y-83409000D01*
X148363365Y-83409000D01*
X148585734Y-83453232D01*
X148585734Y-83453232D01*
G37*
G36*
X162755734Y-83413232D02*
X162965202Y-83499996D01*
X163153723Y-83625962D01*
X163314038Y-83786277D01*
X163440004Y-83974798D01*
X163526768Y-84184266D01*
X163571000Y-84406635D01*
X163571000Y-84633365D01*
X163526768Y-84855734D01*
X163440004Y-85065202D01*
X163314038Y-85253723D01*
X163153723Y-85414038D01*
X162965202Y-85540004D01*
X162755734Y-85626768D01*
X162533365Y-85671000D01*
X162306635Y-85671000D01*
X162084266Y-85626768D01*
X161874798Y-85540004D01*
X161686277Y-85414038D01*
X161525962Y-85253723D01*
X161399996Y-85065202D01*
X161313232Y-84855734D01*
X161269000Y-84633365D01*
X161269000Y-84406635D01*
X161313232Y-84184266D01*
X161399996Y-83974798D01*
X161525962Y-83786277D01*
X161686277Y-83625962D01*
X161874798Y-83499996D01*
X162084266Y-83413232D01*
X162306635Y-83369000D01*
X162533365Y-83369000D01*
X162755734Y-83413232D01*
X162755734Y-83413232D01*
G37*
G36*
X152195734Y-83403232D02*
X152405202Y-83489996D01*
X152593723Y-83615962D01*
X152754038Y-83776277D01*
X152880004Y-83964798D01*
X152966768Y-84174266D01*
X153011000Y-84396635D01*
X153011000Y-84623365D01*
X152966768Y-84845734D01*
X152880004Y-85055202D01*
X152754038Y-85243723D01*
X152593723Y-85404038D01*
X152405202Y-85530004D01*
X152195734Y-85616768D01*
X151973365Y-85661000D01*
X151746635Y-85661000D01*
X151524266Y-85616768D01*
X151314798Y-85530004D01*
X151126277Y-85404038D01*
X150965962Y-85243723D01*
X150839996Y-85055202D01*
X150753232Y-84845734D01*
X150709000Y-84623365D01*
X150709000Y-84396635D01*
X150753232Y-84174266D01*
X150839996Y-83964798D01*
X150965962Y-83776277D01*
X151126277Y-83615962D01*
X151314798Y-83489996D01*
X151524266Y-83403232D01*
X151746635Y-83359000D01*
X151973365Y-83359000D01*
X152195734Y-83403232D01*
X152195734Y-83403232D01*
G37*
G36*
X155705734Y-83373232D02*
X155915202Y-83459996D01*
X156103723Y-83585962D01*
X156264038Y-83746277D01*
X156390004Y-83934798D01*
X156476768Y-84144266D01*
X156521000Y-84366635D01*
X156521000Y-84593365D01*
X156476768Y-84815734D01*
X156390004Y-85025202D01*
X156264038Y-85213723D01*
X156103723Y-85374038D01*
X155915202Y-85500004D01*
X155705734Y-85586768D01*
X155483365Y-85631000D01*
X155256635Y-85631000D01*
X155034266Y-85586768D01*
X154824798Y-85500004D01*
X154636277Y-85374038D01*
X154475962Y-85213723D01*
X154349996Y-85025202D01*
X154263232Y-84815734D01*
X154219000Y-84593365D01*
X154219000Y-84366635D01*
X154263232Y-84144266D01*
X154349996Y-83934798D01*
X154475962Y-83746277D01*
X154636277Y-83585962D01*
X154824798Y-83459996D01*
X155034266Y-83373232D01*
X155256635Y-83329000D01*
X155483365Y-83329000D01*
X155705734Y-83373232D01*
X155705734Y-83373232D01*
G37*
G36*
X159235734Y-83293232D02*
X159445202Y-83379996D01*
X159633723Y-83505962D01*
X159794038Y-83666277D01*
X159920004Y-83854798D01*
X160006768Y-84064266D01*
X160051000Y-84286635D01*
X160051000Y-84513365D01*
X160006768Y-84735734D01*
X159920004Y-84945202D01*
X159794038Y-85133723D01*
X159633723Y-85294038D01*
X159445202Y-85420004D01*
X159235734Y-85506768D01*
X159013365Y-85551000D01*
X158786635Y-85551000D01*
X158564266Y-85506768D01*
X158354798Y-85420004D01*
X158166277Y-85294038D01*
X158005962Y-85133723D01*
X157879996Y-84945202D01*
X157793232Y-84735734D01*
X157749000Y-84513365D01*
X157749000Y-84286635D01*
X157793232Y-84064266D01*
X157879996Y-83854798D01*
X158005962Y-83666277D01*
X158166277Y-83505962D01*
X158354798Y-83379996D01*
X158564266Y-83293232D01*
X158786635Y-83249000D01*
X159013365Y-83249000D01*
X159235734Y-83293232D01*
X159235734Y-83293232D01*
G37*
M02*
